<?xml version="1.0" encoding="UTF-8"?>
<svg xmlns="http://www.w3.org/2000/svg" xmlns:xlink="http://www.w3.org/1999/xlink" width="426pt" height="99pt" viewBox="0 0 426 99" version="1.1">
<defs>
<clipPath id="clip1">
  <path d="M 206 0.25 L 235 0.25 L 235 62 L 206 62 Z M 206 0.25 "/>
</clipPath>
<clipPath id="clip2">
  <path d="M 240 0.25 L 250 0.25 L 250 62 L 240 62 Z M 240 0.25 "/>
</clipPath>
<clipPath id="clip3">
  <path d="M 322 0.25 L 353 0.25 L 353 62 L 322 62 Z M 322 0.25 "/>
</clipPath>
<clipPath id="clip4">
  <path d="M 358 0.25 L 388 0.25 L 388 62 L 358 62 Z M 358 0.25 "/>
</clipPath>
<clipPath id="clip5">
  <path d="M 394 0.25 L 425 0.25 L 425 62 L 394 62 Z M 394 0.25 "/>
</clipPath>
<clipPath id="clip6">
  <path d="M 257 0.25 L 284 0.25 L 284 62 L 257 62 Z M 257 0.25 "/>
</clipPath>
<clipPath id="clip7">
  <path d="M 170 0.25 L 199 0.25 L 199 62 L 170 62 Z M 170 0.25 "/>
</clipPath>
<clipPath id="clip8">
  <path d="M 69 0.25 L 95 0.25 L 95 62 L 69 62 Z M 69 0.25 "/>
</clipPath>
<clipPath id="clip9">
  <path d="M 0 0.25 L 34 0.25 L 34 62 L 0 62 Z M 0 0.25 "/>
</clipPath>
<clipPath id="clip10">
  <path d="M 38 0.25 L 64 0.25 L 64 62 L 38 62 Z M 38 0.25 "/>
</clipPath>
<clipPath id="clip11">
  <path d="M 96 0.25 L 131 0.25 L 131 62 L 96 62 Z M 96 0.25 "/>
</clipPath>
<clipPath id="clip12">
  <path d="M 134 0.25 L 166 0.25 L 166 62 L 134 62 Z M 134 0.25 "/>
</clipPath>
<clipPath id="clip13">
  <path d="M 288 0.25 L 320 0.25 L 320 62 L 288 62 Z M 288 0.25 "/>
</clipPath>
<clipPath id="clip14">
  <path d="M 413 77 L 425.300781 77 L 425.300781 87 L 413 87 Z M 413 77 "/>
</clipPath>
</defs>
<g id="surface1">
<g clip-path="url(#clip1)" clip-rule="nonzero">
<path style=" stroke:none;fill-rule:nonzero;fill:rgb(13.729858%,12.159729%,12.548828%);fill-opacity:1;" d="M 225.933594 23.410156 C 225.847656 24.652344 225.582031 25.714844 225.132812 26.589844 C 225.042969 26.765625 224.9375 26.929688 224.824219 27.089844 C 224.386719 27.734375 223.789062 28.261719 223.03125 28.667969 C 222.074219 29.179688 220.730469 29.433594 218.992188 29.433594 L 214.867188 29.433594 L 214.867188 8.902344 L 219.328125 8.902344 C 221.011719 8.902344 222.300781 9.171875 223.199219 9.710938 C 223.878906 10.117188 224.417969 10.636719 224.824219 11.273438 C 224.953125 11.476562 225.074219 11.6875 225.175781 11.914062 C 225.597656 12.847656 225.847656 13.953125 225.933594 15.222656 C 226.015625 16.496094 226.058594 17.839844 226.058594 19.253906 C 226.058594 20.78125 226.015625 22.164062 225.933594 23.410156 Z M 230.265625 5 C 228.804688 3.417969 227.179688 2.316406 225.386719 1.695312 C 223.589844 1.070312 221.515625 0.761719 219.160156 0.761719 L 206.285156 0.761719 L 206.285156 61.160156 L 214.867188 61.160156 L 214.867188 37.578125 L 219.242188 37.578125 C 221.382812 37.578125 223.238281 37.324219 224.824219 36.828125 C 225.609375 36.585938 226.335938 36.285156 226.984375 35.921875 C 228.945312 34.820312 230.515625 33.28125 231.695312 31.300781 C 232.703125 29.660156 233.363281 27.894531 233.671875 25.996094 C 233.980469 24.101562 234.136719 21.828125 234.136719 19.167969 C 234.136719 15.550781 233.851562 12.679688 233.292969 10.558594 C 232.730469 8.4375 231.722656 6.585938 230.265625 5 "/>
</g>
<g clip-path="url(#clip2)" clip-rule="nonzero">
<path style=" stroke:none;fill-rule:nonzero;fill:rgb(13.729858%,12.159729%,12.548828%);fill-opacity:1;" d="M 240.78125 7.007812 L 240.78125 61.160156 L 249.363281 61.160156 L 249.363281 0.761719 L 240.78125 0.761719 L 240.78125 7.007812 "/>
</g>
<g clip-path="url(#clip3)" clip-rule="nonzero">
<path style=" stroke:none;fill-rule:nonzero;fill:rgb(13.729858%,12.159729%,12.548828%);fill-opacity:1;" d="M 351.410156 8.945312 C 350.738281 7.335938 349.773438 5.878906 348.507812 4.578125 C 347.246094 3.277344 345.734375 2.230469 343.964844 1.4375 C 342.199219 0.648438 340.25 0.25 338.117188 0.25 C 335.648438 0.25 333.492188 0.691406 331.640625 1.566406 C 329.789062 2.445312 328.261719 3.617188 327.054688 5.085938 C 325.847656 6.558594 324.9375 8.308594 324.320312 10.347656 C 323.703125 12.382812 323.394531 14.53125 323.394531 16.792969 C 323.394531 20.582031 324.027344 23.734375 325.289062 26.25 C 326.5 28.667969 328.851562 30.625 332.316406 32.128906 C 332.457031 32.191406 332.589844 32.257812 332.734375 32.316406 L 338.875 34.863281 C 339.941406 35.316406 340.796875 35.738281 341.441406 36.132812 C 342.085938 36.53125 342.589844 37.039062 342.957031 37.660156 C 343.320312 38.285156 343.558594 39.101562 343.671875 40.121094 C 343.78125 41.140625 343.839844 42.441406 343.839844 44.023438 C 343.839844 45.378906 343.78125 46.625 343.671875 47.753906 C 343.558594 48.886719 343.292969 49.835938 342.871094 50.597656 C 342.449219 51.363281 341.832031 51.957031 341.023438 52.378906 C 340.207031 52.804688 339.070312 53.015625 337.613281 53.015625 C 335.425781 53.015625 333.867188 52.378906 332.945312 51.105469 C 332.699219 50.773438 332.496094 50.429688 332.316406 50.074219 C 331.8125 49.074219 331.558594 47.992188 331.558594 46.824219 L 331.558594 44.109375 L 322.976562 44.109375 L 322.976562 47.332031 C 322.976562 49.367188 323.355469 51.261719 324.109375 53.015625 C 324.867188 54.769531 325.890625 56.28125 327.183594 57.554688 C 328.472656 58.828125 330.015625 59.832031 331.808594 60.566406 C 333.605469 61.296875 335.535156 61.667969 337.613281 61.667969 C 340.363281 61.667969 342.691406 61.214844 344.597656 60.3125 C 346.503906 59.40625 348.03125 58.175781 349.183594 56.621094 C 349.574219 56.09375 349.910156 55.515625 350.230469 54.914062 C 350.84375 53.746094 351.328125 52.460938 351.664062 51.023438 C 352.167969 48.847656 352.421875 46.484375 352.421875 43.9375 C 352.421875 41.734375 352.308594 39.769531 352.085938 38.042969 C 351.859375 36.320312 351.421875 34.792969 350.78125 33.460938 C 350.136719 32.132812 349.222656 30.972656 348.046875 29.984375 C 346.867188 28.996094 345.324219 28.132812 343.417969 27.398438 L 336.859375 24.765625 C 335.734375 24.316406 334.851562 23.863281 334.207031 23.410156 C 333.5625 22.957031 333.070312 22.433594 332.734375 21.839844 C 332.558594 21.53125 332.421875 21.191406 332.316406 20.820312 C 332.21875 20.480469 332.144531 20.113281 332.105469 19.71875 C 332.019531 18.902344 331.976562 17.898438 331.976562 16.707031 C 331.976562 15.691406 332.0625 14.714844 332.230469 13.78125 C 332.25 13.664062 332.289062 13.566406 332.316406 13.457031 C 332.351562 13.289062 332.398438 13.132812 332.441406 12.976562 C 332.613281 12.378906 332.820312 11.8125 333.113281 11.320312 C 333.53125 10.617188 334.121094 10.035156 334.878906 9.582031 C 335.636719 9.128906 336.605469 8.902344 337.78125 8.902344 C 339.96875 8.902344 341.527344 9.625 342.449219 11.066406 C 342.828125 11.65625 343.109375 12.300781 343.332031 12.976562 C 343.65625 13.960938 343.839844 15.027344 343.839844 16.199219 L 343.839844 18.148438 L 352.421875 18.148438 L 352.421875 13.910156 C 352.421875 13.597656 352.398438 13.285156 352.375 12.976562 C 352.273438 11.605469 351.960938 10.261719 351.410156 8.945312 "/>
</g>
<g clip-path="url(#clip4)" clip-rule="nonzero">
<path style=" stroke:none;fill-rule:nonzero;fill:rgb(13.729858%,12.159729%,12.548828%);fill-opacity:1;" d="M 367.566406 11.8125 C 367.839844 11.265625 368.171875 10.773438 368.617188 10.386719 C 369.765625 9.398438 371.125 8.902344 372.695312 8.902344 C 374.265625 8.902344 375.625 9.398438 376.777344 10.386719 C 376.949219 10.535156 377.082031 10.722656 377.226562 10.894531 C 377.703125 11.457031 378.042969 12.152344 378.246094 12.976562 C 378.398438 13.589844 378.503906 14.253906 378.503906 15.011719 L 378.503906 46.910156 C 378.503906 48.960938 377.941406 50.472656 376.835938 51.464844 C 376.816406 51.484375 376.800781 51.511719 376.777344 51.53125 C 375.625 52.519531 374.265625 53.015625 372.695312 53.015625 C 371.125 53.015625 369.765625 52.519531 368.617188 51.53125 C 367.464844 50.542969 366.890625 49 366.890625 46.910156 L 366.890625 15.011719 C 366.890625 14.253906 366.992188 13.589844 367.144531 12.976562 C 367.25 12.554688 367.390625 12.167969 367.566406 11.8125 Z M 386.375 10.023438 C 386.214844 9.519531 386.03125 9.03125 385.820312 8.5625 C 385.460938 7.765625 385.039062 7.035156 384.582031 6.355469 C 383.96875 5.449219 383.28125 4.636719 382.496094 3.941406 C 381.121094 2.726562 379.578125 1.808594 377.871094 1.183594 C 376.160156 0.5625 374.433594 0.25 372.695312 0.25 C 370.957031 0.25 369.234375 0.5625 367.523438 1.183594 C 365.8125 1.808594 364.269531 2.726562 362.894531 3.941406 C 361.519531 5.15625 360.414062 6.699219 359.574219 8.5625 C 359.5625 8.589844 359.554688 8.613281 359.542969 8.636719 C 358.789062 10.339844 358.394531 12.285156 358.335938 14.457031 C 358.328125 14.644531 358.308594 14.820312 358.308594 15.011719 L 358.308594 46.910156 C 358.308594 47.132812 358.332031 47.34375 358.339844 47.5625 C 358.402344 49.617188 358.765625 51.445312 359.433594 53.03125 C 359.484375 53.152344 359.519531 53.28125 359.574219 53.394531 C 359.648438 53.5625 359.738281 53.714844 359.820312 53.875 C 360.5625 55.363281 361.488281 56.632812 362.601562 57.683594 C 362.699219 57.78125 362.789062 57.886719 362.894531 57.976562 C 363.617188 58.617188 364.390625 59.171875 365.210938 59.648438 C 365.945312 60.074219 366.710938 60.441406 367.523438 60.734375 C 368.796875 61.199219 370.082031 61.488281 371.375 61.605469 C 371.382812 61.605469 371.386719 61.609375 371.394531 61.609375 C 371.5 61.621094 371.605469 61.617188 371.710938 61.625 C 372.039062 61.644531 372.367188 61.667969 372.695312 61.667969 C 372.980469 61.667969 373.265625 61.648438 373.550781 61.628906 C 375 61.542969 376.441406 61.253906 377.871094 60.734375 C 379.578125 60.113281 381.121094 59.195312 382.496094 57.976562 C 383.351562 57.222656 384.089844 56.328125 384.742188 55.332031 C 384.832031 55.191406 384.925781 55.058594 385.011719 54.914062 C 385.300781 54.429688 385.574219 53.929688 385.820312 53.394531 C 386.027344 52.945312 386.210938 52.46875 386.367188 51.976562 C 386.84375 50.472656 387.082031 48.785156 387.082031 46.910156 L 387.082031 15.011719 C 387.082031 14.308594 387.035156 13.632812 386.964844 12.976562 C 386.855469 11.933594 386.664062 10.945312 386.375 10.023438 "/>
</g>
<g clip-path="url(#clip5)" clip-rule="nonzero">
<path style=" stroke:none;fill-rule:nonzero;fill:rgb(13.729858%,12.159729%,12.548828%);fill-opacity:1;" d="M 415.6875 0.761719 L 415.6875 37.152344 L 415.519531 37.152344 L 404.785156 7.007812 L 402.5625 0.761719 L 394.316406 0.761719 L 394.316406 61.15625 L 402.898438 61.15625 L 402.898438 24.851562 L 403.066406 24.851562 L 413.933594 54.914062 L 416.191406 61.15625 L 424.269531 61.15625 L 424.269531 0.761719 L 415.6875 0.761719 "/>
</g>
<g clip-path="url(#clip6)" clip-rule="nonzero">
<path style=" stroke:none;fill-rule:nonzero;fill:rgb(13.729858%,12.159729%,12.548828%);fill-opacity:1;" d="M 257.691406 61.15625 L 283.265625 61.15625 L 283.265625 52.507812 L 266.289062 52.507812 L 266.28125 34.777344 L 281.078125 34.777344 L 281.078125 26.632812 L 266.277344 26.632812 L 266.273438 8.902344 L 283.265625 8.902344 L 283.265625 0.761719 L 257.691406 0.761719 L 257.691406 61.15625 "/>
</g>
<g clip-path="url(#clip7)" clip-rule="nonzero">
<path style=" stroke:none;fill-rule:nonzero;fill:rgb(13.729858%,12.159729%,12.548828%);fill-opacity:1;" d="M 189.628906 16.367188 L 189.628906 45.464844 C 189.628906 48.066406 189.125 49.976562 188.117188 51.191406 C 187.105469 52.410156 185.394531 53.015625 182.984375 53.015625 L 179.03125 53.015625 L 179.03125 8.902344 L 182.984375 8.902344 C 185.507812 8.902344 187.242188 9.554688 188.199219 10.855469 C 189.152344 12.15625 189.628906 13.992188 189.628906 16.367188 Z M 183.152344 0.761719 L 170.449219 0.761719 L 170.449219 61.160156 L 182.394531 61.160156 C 187.496094 61.160156 191.410156 59.816406 194.132812 57.128906 C 196.851562 54.445312 198.210938 50.273438 198.210938 44.617188 L 198.210938 16.367188 C 198.210938 11.449219 196.921875 7.617188 194.339844 4.875 C 191.761719 2.132812 188.03125 0.761719 183.152344 0.761719 "/>
</g>
<g clip-path="url(#clip8)" clip-rule="nonzero">
<path style=" stroke:none;fill-rule:nonzero;fill:rgb(13.729858%,12.159729%,12.548828%);fill-opacity:1;" d="M 77.820312 52.507812 L 77.820312 0.761719 L 69.238281 0.761719 L 69.238281 61.15625 L 94.816406 61.15625 L 94.816406 52.507812 L 77.820312 52.507812 "/>
</g>
<g clip-path="url(#clip9)" clip-rule="nonzero">
<path style=" stroke:none;fill-rule:nonzero;fill:rgb(13.729858%,12.159729%,12.548828%);fill-opacity:1;" d="M 12.621094 40.035156 L 16.828125 18.148438 L 16.996094 18.148438 L 21.203125 40.035156 Z M 28.6875 37.597656 L 21.910156 7.007812 L 20.527344 0.757812 L 13.378906 0.757812 L 11.992188 7.007812 L 5.417969 36.691406 L 0 61.160156 L 8.582031 61.160156 L 9.796875 54.914062 L 11.105469 48.179688 L 22.800781 48.179688 L 24.109375 54.914062 L 25.324219 61.160156 L 33.90625 61.160156 L 28.6875 37.597656 "/>
</g>
<g clip-path="url(#clip10)" clip-rule="nonzero">
<path style=" stroke:none;fill-rule:nonzero;fill:rgb(13.729858%,12.159729%,12.548828%);fill-opacity:1;" d="M 46.695312 52.507812 L 46.695312 0.761719 L 38.109375 0.761719 L 38.109375 61.15625 L 63.6875 61.15625 L 63.6875 52.507812 L 46.695312 52.507812 "/>
</g>
<g clip-path="url(#clip11)" clip-rule="nonzero">
<path style=" stroke:none;fill-rule:nonzero;fill:rgb(13.729858%,12.159729%,12.548828%);fill-opacity:1;" d="M 109.117188 40.035156 L 113.324219 18.148438 L 113.492188 18.148438 L 117.699219 40.035156 Z M 119.730469 12.976562 L 117.023438 0.761719 L 109.875 0.761719 L 107.167969 12.976562 L 103.488281 29.597656 L 96.496094 61.160156 L 105.078125 61.160156 L 106.292969 54.914062 L 107.601562 48.179688 L 119.296875 48.179688 L 120.605469 54.914062 L 121.820312 61.160156 L 130.402344 61.160156 L 126.753906 44.691406 L 119.730469 12.976562 "/>
</g>
<g clip-path="url(#clip12)" clip-rule="nonzero">
<path style=" stroke:none;fill-rule:nonzero;fill:rgb(13.729858%,12.159729%,12.548828%);fill-opacity:1;" d="M 153.746094 25.277344 C 153.269531 26.070312 152.585938 26.675781 151.6875 27.101562 C 150.789062 27.523438 149.582031 27.734375 148.070312 27.734375 L 143.191406 27.734375 L 143.191406 8.902344 L 147.648438 8.902344 C 149.21875 8.902344 150.480469 9.101562 151.433594 9.5 C 152.386719 9.894531 153.128906 10.503906 153.664062 11.320312 C 153.980469 11.808594 154.226562 12.367188 154.414062 12.976562 C 154.542969 13.390625 154.648438 13.824219 154.71875 14.289062 C 154.886719 15.449219 154.96875 16.792969 154.96875 18.320312 C 154.96875 19.847656 154.886719 21.191406 154.71875 22.351562 C 154.546875 23.507812 154.222656 24.484375 153.746094 25.277344 Z M 156.144531 33.589844 C 157.429688 32.878906 158.523438 32.050781 159.445312 31.125 C 160.5 30.0625 161.324219 28.867188 161.910156 27.523438 C 163.003906 25.007812 163.550781 21.996094 163.550781 18.488281 C 163.550781 6.671875 158.503906 0.757812 148.40625 0.757812 L 134.609375 0.757812 L 134.609375 61.160156 L 143.191406 61.160156 L 143.191406 35.371094 L 148.324219 35.371094 L 154.378906 54.914062 L 156.3125 61.160156 L 165.402344 61.160156 L 159.445312 43.417969 L 156.144531 33.589844 "/>
</g>
<g clip-path="url(#clip13)" clip-rule="nonzero">
<path style=" stroke:none;fill-rule:nonzero;fill:rgb(13.729858%,12.159729%,12.548828%);fill-opacity:1;" d="M 307.957031 25.277344 C 307.480469 26.070312 306.792969 26.675781 305.898438 27.101562 C 305 27.523438 303.792969 27.734375 302.28125 27.734375 L 299.628906 27.738281 L 297.398438 27.738281 L 297.398438 8.902344 L 301.859375 8.902344 C 303.429688 8.902344 304.691406 9.101562 305.644531 9.5 C 306.597656 9.894531 307.339844 10.503906 307.875 11.320312 C 308.191406 11.808594 308.4375 12.367188 308.625 12.976562 C 308.753906 13.390625 308.859375 13.824219 308.925781 14.289062 C 309.09375 15.449219 309.179688 16.792969 309.179688 18.320312 C 309.179688 19.847656 309.09375 21.191406 308.925781 22.351562 C 308.757812 23.507812 308.433594 24.484375 307.957031 25.277344 Z M 310.355469 33.589844 C 313.101562 32.0625 315.023438 30.039062 316.117188 27.523438 C 317.210938 25.007812 317.757812 21.996094 317.757812 18.492188 C 317.757812 16.238281 317.351562 13.359375 317.304688 12.976562 L 317.308594 12.976562 C 317.300781 12.945312 317.300781 12.933594 317.300781 12.941406 C 315.863281 4.832031 310.976562 0.757812 302.617188 0.757812 L 288.820312 0.757812 L 288.820312 61.160156 L 297.398438 61.160156 L 297.398438 35.371094 L 302.53125 35.371094 L 308.589844 54.914062 L 310.523438 61.160156 L 319.609375 61.160156 L 317.515625 54.914062 L 310.355469 33.589844 "/>
</g>
<path style=" stroke:none;fill-rule:nonzero;fill:rgb(13.729858%,12.159729%,12.548828%);fill-opacity:1;" d="M 220.441406 99 L 195.589844 99 L 195.589844 74.148438 L 220.441406 74.148438 L 220.441406 99 "/>
<path style=" stroke:none;fill-rule:nonzero;fill:rgb(100%,100%,100%);fill-opacity:1;" d="M 206.136719 81.222656 L 208.015625 79.347656 L 209.890625 81.222656 L 210.929688 80.1875 L 209.054688 78.308594 L 210.929688 76.433594 L 209.890625 75.394531 L 208.015625 77.269531 L 206.136719 75.394531 L 205.097656 76.433594 L 206.976562 78.308594 L 205.097656 80.1875 L 206.136719 81.222656 "/>
<path style=" stroke:none;fill-rule:nonzero;fill:rgb(100%,100%,100%);fill-opacity:1;" d="M 206.136719 88.132812 L 208.015625 86.253906 L 209.890625 88.132812 L 210.929688 87.09375 L 209.054688 85.214844 L 210.929688 83.339844 L 209.890625 82.300781 L 208.015625 84.175781 L 206.136719 82.300781 L 205.097656 83.339844 L 206.976562 85.214844 L 205.097656 87.09375 L 206.136719 88.132812 "/>
<path style=" stroke:none;fill-rule:nonzero;fill:rgb(100%,100%,100%);fill-opacity:1;" d="M 206.136719 97.746094 L 208.015625 95.867188 L 209.890625 97.746094 L 210.929688 96.707031 L 209.054688 94.828125 L 210.929688 92.953125 L 209.890625 91.914062 L 208.015625 93.789062 L 206.136719 91.914062 L 205.097656 92.953125 L 206.976562 94.828125 L 205.097656 96.707031 L 206.136719 97.746094 "/>
<path style=" stroke:none;fill-rule:nonzero;fill:rgb(100%,100%,100%);fill-opacity:1;" d="M 213.664062 81.199219 L 211.503906 81.296875 C 211.503906 81.296875 211.8125 83.578125 211.679688 85.878906 C 211.554688 88.078125 211.210938 88.464844 211.210938 88.464844 C 210.722656 89.382812 209.210938 89.605469 208.4375 89.664062 C 207.664062 89.722656 207.316406 89.683594 207.316406 89.683594 C 207.316406 89.683594 205.089844 89.597656 204.589844 88.558594 C 204.304688 87.96875 204.246094 86.808594 204.246094 86.808594 C 204.246094 86.808594 204.230469 81.371094 204.210938 81.246094 C 204.199219 81.179688 203.761719 81.292969 203.253906 81.289062 C 202.839844 81.289062 202.234375 81.261719 202.234375 81.261719 L 202.414062 85.257812 L 202.390625 87.621094 C 202.390625 87.621094 202.390625 88.886719 202.714844 89.390625 C 203.265625 90.25 203.875 90.554688 204.222656 90.71875 C 204.566406 90.882812 205.117188 91.042969 205.726562 91.167969 C 206.339844 91.289062 207.355469 91.351562 208.699219 91.007812 C 210.042969 90.664062 210.636719 90.054688 210.636719 90.054688 L 211.65625 89.09375 L 211.652344 91.359375 L 213.792969 90.730469 C 213.792969 90.730469 213.511719 88.9375 213.515625 85.882812 C 213.515625 82.824219 213.664062 81.199219 213.664062 81.199219 "/>
<path style=" stroke:none;fill-rule:nonzero;fill:rgb(13.729858%,12.159729%,12.548828%);fill-opacity:1;" d="M 345.5625 81.148438 L 343.65625 76.234375 L 343.617188 76.234375 L 341.988281 81.148438 Z M 341.761719 81.820312 L 341.007812 84.257812 C 340.867188 84.703125 340.804688 85.097656 340.804688 85.375 C 340.804688 85.941406 341.609375 86.0625 342.074219 86.0625 C 342.226562 86.0625 342.261719 86.160156 342.261719 86.386719 C 342.261719 86.558594 342.242188 86.628906 342.121094 86.628906 C 341.730469 86.628906 340.476562 86.539062 340.011719 86.539062 C 339.550781 86.539062 338.824219 86.628906 338.308594 86.628906 C 337.96875 86.628906 337.96875 86.574219 337.96875 86.351562 L 337.96875 86.160156 C 337.96875 86.078125 338.117188 86.042969 338.535156 86.007812 C 339.429688 85.921875 339.550781 85.753906 339.875 84.804688 L 343.277344 74.910156 C 343.617188 74.621094 343.980469 74.222656 344.40625 74.085938 L 348.722656 84.960938 C 349.011719 85.683594 349.324219 86.042969 350.320312 86.042969 C 350.507812 86.042969 350.542969 86.25 350.542969 86.4375 C 350.542969 86.628906 350.425781 86.628906 350.21875 86.628906 C 349.9375 86.628906 348.839844 86.539062 348.171875 86.539062 C 347.484375 86.539062 346.796875 86.574219 346.109375 86.628906 C 345.851562 86.628906 345.835938 86.574219 345.835938 86.335938 C 345.835938 86.148438 345.9375 86.0625 346.179688 86.0625 C 346.4375 86.0625 347.277344 86.007812 347.277344 85.59375 C 347.277344 85.460938 347.210938 85.183594 346.96875 84.582031 L 345.871094 81.820312 L 341.761719 81.820312 "/>
<path style=" stroke:none;fill-rule:nonzero;fill:rgb(13.729858%,12.159729%,12.548828%);fill-opacity:1;" d="M 325.394531 82.085938 C 325.394531 79.925781 323.917969 77.730469 321.609375 77.730469 C 319.234375 77.730469 318.089844 79.59375 318.089844 81.761719 C 318.089844 83.957031 319.425781 86.230469 321.8125 86.230469 C 324.175781 86.230469 325.394531 84.292969 325.394531 82.085938 M 316.71875 82.183594 C 316.71875 79.503906 319.015625 77.308594 321.671875 77.308594 C 324.367188 77.308594 326.769531 79.15625 326.769531 81.824219 C 326.769531 84.40625 324.277344 86.730469 321.722656 86.730469 C 319.039062 86.730469 316.71875 84.988281 316.71875 82.183594 "/>
<path style=" stroke:none;fill-rule:nonzero;fill:rgb(13.729858%,12.159729%,12.548828%);fill-opacity:1;" d="M 328.339844 78.925781 C 328.339844 78.144531 328.210938 77.976562 327.457031 77.976562 L 327.238281 77.976562 C 327.007812 77.992188 326.90625 77.949219 326.90625 77.871094 C 326.90625 77.769531 326.90625 77.550781 327.046875 77.550781 L 332.308594 77.550781 C 332.742188 77.550781 333.179688 77.488281 333.628906 77.488281 C 333.707031 77.488281 333.8125 77.5 333.8125 77.601562 L 333.863281 79.054688 C 333.863281 79.144531 333.875 79.234375 333.875 79.324219 C 333.875 79.375 333.773438 79.398438 333.644531 79.398438 L 333.449219 79.398438 C 333.425781 79.246094 333.398438 79.09375 333.363281 78.953125 L 333.246094 78.554688 C 333.105469 78.050781 332.734375 77.976562 332.332031 77.976562 L 330.535156 77.976562 C 329.585938 77.976562 329.496094 78.269531 329.496094 79.207031 L 329.496094 81.46875 L 331.398438 81.46875 C 332.5 81.46875 332.769531 81.160156 332.769531 80.453125 C 332.898438 80.425781 333.027344 80.386719 333.117188 80.386719 C 333.167969 80.386719 333.195312 80.414062 333.195312 80.476562 C 333.195312 80.578125 333.144531 80.773438 333.144531 81.710938 C 333.144531 82.085938 333.195312 82.75 333.195312 83.03125 C 333.195312 83.148438 333.105469 83.199219 332.964844 83.199219 C 332.859375 83.199219 332.820312 83.085938 332.769531 82.878906 C 332.679688 82.351562 332.425781 81.890625 331.332031 81.890625 L 329.496094 81.890625 L 329.496094 85.253906 C 329.496094 85.753906 329.5625 86.023438 330.21875 86.078125 L 330.882812 86.128906 C 330.949219 86.128906 330.972656 86.207031 330.972656 86.292969 C 330.972656 86.398438 330.972656 86.550781 330.832031 86.550781 C 329.867188 86.550781 329.457031 86.488281 328.855469 86.488281 C 328.328125 86.488281 327.378906 86.550781 327.035156 86.550781 C 326.929688 86.550781 326.929688 86.421875 326.929688 86.320312 C 326.929688 86.242188 326.941406 86.128906 326.996094 86.128906 L 327.5625 86.089844 C 328.238281 86.035156 328.339844 85.882812 328.339844 85.128906 L 328.339844 78.925781 "/>
<path style=" stroke:none;fill-rule:nonzero;fill:rgb(13.729858%,12.159729%,12.548828%);fill-opacity:1;" d="M 228.558594 76.40625 C 228.558594 75.054688 227.734375 75.054688 226.792969 75.054688 L 226.707031 74.984375 L 226.707031 74.691406 C 226.707031 74.503906 226.828125 74.488281 227.015625 74.488281 C 227.460938 74.488281 228.558594 74.574219 229.367188 74.574219 C 230.222656 74.574219 231.09375 74.488281 231.949219 74.488281 L 232.003906 74.539062 L 232.003906 74.984375 L 231.917969 75.054688 L 231.714844 75.054688 C 230.597656 75.054688 230.101562 75.171875 230.101562 76.460938 L 230.101562 81.429688 C 230.101562 83.898438 230.582031 85.835938 233.527344 85.835938 C 236.597656 85.835938 237.589844 84.359375 237.589844 81.464844 L 237.589844 77.007812 C 237.589844 75.054688 237.589844 75.1875 236.085938 75.054688 L 236.015625 74.914062 L 236.015625 74.589844 L 236.066406 74.488281 C 236.375 74.488281 236.71875 74.574219 238.003906 74.574219 C 238.722656 74.574219 239.632812 74.488281 240.179688 74.488281 L 240.25 74.589844 L 240.25 74.949219 L 240.144531 75.054688 C 238.898438 75.054688 238.449219 75.121094 238.449219 75.976562 L 238.449219 82.097656 C 238.449219 85.238281 236.617188 86.828125 233.496094 86.828125 C 231.011719 86.828125 228.558594 85.957031 228.558594 83.09375 L 228.558594 76.40625 "/>
<path style=" stroke:none;fill-rule:nonzero;fill:rgb(13.729858%,12.159729%,12.548828%);fill-opacity:1;" d="M 241.226562 79.082031 C 241.226562 78.824219 241.214844 78.757812 241.164062 78.65625 C 241.050781 78.4375 240.484375 77.976562 240.265625 77.960938 L 239.585938 77.921875 C 239.53125 77.921875 239.519531 77.792969 239.519531 77.695312 C 239.519531 77.625 239.519531 77.527344 239.585938 77.527344 C 239.984375 77.527344 240.289062 77.5 240.609375 77.5 C 241.203125 77.5 242.140625 77.550781 242.371094 77.578125 L 246.265625 82.277344 C 246.855469 82.996094 247.433594 83.664062 248.355469 84.589844 L 248.410156 84.589844 L 248.410156 78.9375 C 248.410156 78.089844 248.101562 77.960938 247.6875 77.949219 L 247.136719 77.921875 C 247.085938 77.921875 247.058594 77.792969 247.058594 77.707031 C 247.058594 77.625 247.097656 77.5 247.175781 77.5 C 247.457031 77.5 248.125 77.566406 248.753906 77.566406 C 249.332031 77.566406 249.949219 77.5 250.308594 77.5 C 250.371094 77.5 250.386719 77.550781 250.386719 77.601562 L 250.386719 77.84375 C 250.386719 77.910156 250.359375 77.921875 250.269531 77.921875 L 249.9375 77.921875 C 249.050781 77.921875 249.050781 78.375 249.050781 79.464844 L 249.050781 86.902344 L 248.742188 86.902344 L 241.804688 78.976562 L 241.804688 84.875 C 241.804688 85.976562 241.960938 86.101562 243.066406 86.144531 C 243.117188 86.144531 243.15625 86.261719 243.15625 86.363281 C 243.15625 86.464844 243.140625 86.566406 243.101562 86.566406 C 242.859375 86.566406 242.039062 86.503906 241.496094 86.503906 C 240.867188 86.503906 240.585938 86.566406 239.996094 86.566406 C 239.917969 86.566406 239.90625 86.476562 239.90625 86.3125 C 239.90625 86.195312 239.917969 86.144531 240.074219 86.144531 C 240.609375 86.144531 241.226562 86.015625 241.226562 85.359375 L 241.226562 79.082031 "/>
<path style=" stroke:none;fill-rule:nonzero;fill:rgb(13.729858%,12.159729%,12.548828%);fill-opacity:1;" d="M 253.753906 84.191406 C 253.753906 86.066406 253.792969 86.078125 255.054688 86.144531 L 255.117188 86.234375 L 255.117188 86.476562 C 255.117188 86.554688 254.925781 86.566406 254.808594 86.566406 C 254.628906 86.566406 253.769531 86.503906 253.242188 86.503906 C 252.625 86.503906 251.996094 86.566406 251.328125 86.566406 C 251.277344 86.539062 251.265625 86.464844 251.265625 86.335938 C 251.277344 86.167969 251.304688 86.144531 251.675781 86.144531 C 252.5625 86.144531 252.601562 85.953125 252.601562 84.972656 L 252.601562 78.835938 C 252.601562 78.101562 252.382812 77.921875 251.304688 77.921875 L 251.265625 77.859375 L 251.238281 77.652344 C 251.253906 77.511719 251.367188 77.5 251.445312 77.5 C 251.789062 77.5 252.203125 77.566406 253.074219 77.566406 C 253.71875 77.566406 254.488281 77.5 255 77.5 L 255.066406 77.589844 L 255.066406 77.820312 L 255.015625 77.898438 L 254.667969 77.921875 C 254.15625 77.960938 253.753906 78.015625 253.753906 78.605469 L 253.753906 84.191406 "/>
<path style=" stroke:none;fill-rule:nonzero;fill:rgb(13.729858%,12.159729%,12.548828%);fill-opacity:1;" d="M 256.839844 78.359375 C 256.699219 78.015625 256.1875 77.921875 255.824219 77.921875 L 255.746094 77.859375 L 255.746094 77.527344 L 255.890625 77.5 C 256.429688 77.5 257.214844 77.5625 257.496094 77.5625 C 258.085938 77.5625 258.664062 77.5 259.253906 77.5 L 259.292969 77.539062 L 259.253906 77.898438 L 258.652344 77.949219 C 258.445312 77.960938 258.214844 78.039062 258.214844 78.230469 C 258.214844 78.335938 258.28125 78.503906 258.328125 78.617188 L 259.808594 82.472656 L 260.644531 84.382812 C 260.734375 84.574219 260.742188 84.617188 260.785156 84.617188 C 260.808594 84.617188 260.847656 84.5625 260.898438 84.410156 L 262.734375 79.539062 C 262.941406 78.992188 263.09375 78.511719 263.082031 78.359375 C 263.070312 78.140625 263.003906 78.027344 262.632812 77.992188 L 261.964844 77.921875 L 261.886719 77.886719 L 261.886719 77.488281 C 262.390625 77.488281 262.890625 77.5625 263.390625 77.5625 C 263.789062 77.5625 264.636719 77.488281 264.726562 77.488281 L 264.828125 77.539062 L 264.828125 77.835938 L 264.714844 77.921875 L 264.316406 77.949219 C 264.058594 77.960938 263.953125 78.089844 263.777344 78.539062 C 262.554688 81.480469 262.261719 82.40625 261.285156 84.886719 L 260.628906 86.554688 C 260.566406 86.734375 260.539062 86.746094 260.449219 86.746094 C 260.332031 86.746094 260.308594 86.707031 260.285156 86.65625 L 256.839844 78.359375 "/>
<path style=" stroke:none;fill-rule:nonzero;fill:rgb(13.729858%,12.159729%,12.548828%);fill-opacity:1;" d="M 266.886719 78.808594 C 266.886719 77.976562 266.257812 77.886719 265.515625 77.886719 C 265.460938 77.886719 265.460938 77.820312 265.460938 77.769531 L 265.460938 77.628906 C 265.460938 77.511719 265.679688 77.5 266.128906 77.5 C 266.644531 77.5 267.222656 77.566406 267.761719 77.566406 C 268.273438 77.566406 268.789062 77.5 269.304688 77.5 L 272.011719 77.5 C 272.117188 77.5 272.128906 77.617188 272.128906 77.757812 L 272.128906 79.324219 C 272.128906 79.375 272.101562 79.425781 272.039062 79.425781 C 271.9375 79.425781 271.730469 79.441406 271.71875 79.285156 L 271.679688 78.886719 C 271.601562 78.066406 271.035156 77.921875 270.316406 77.921875 L 268.992188 77.921875 C 268.273438 77.921875 268.042969 78.078125 268.042969 79.054688 L 268.042969 81.378906 C 268.042969 81.414062 268.121094 81.480469 268.148438 81.480469 L 269.660156 81.429688 C 270.433594 81.40625 270.652344 81.160156 270.84375 80.476562 C 270.867188 80.40625 270.910156 80.378906 271.046875 80.378906 C 271.140625 80.378906 271.203125 80.390625 271.203125 80.453125 C 271.203125 80.722656 271.128906 81.316406 271.128906 81.738281 C 271.128906 82.429688 271.203125 82.804688 271.203125 83.023438 C 271.203125 83.097656 271.074219 83.179688 270.996094 83.179688 C 270.894531 83.179688 270.804688 83.136719 270.78125 83.007812 C 270.714844 82.664062 270.714844 82.414062 270.652344 82.238281 C 270.585938 82.046875 270.433594 81.957031 270.046875 81.945312 L 268.222656 81.90625 C 268.042969 81.90625 268.042969 81.96875 268.042969 82.058594 L 268.042969 85.117188 C 268.042969 86.039062 268.726562 86.066406 269.613281 86.066406 L 270.304688 86.066406 C 270.984375 86.066406 271.460938 86.054688 271.78125 85.863281 C 272.066406 85.695312 272.460938 84.910156 272.601562 84.589844 C 272.769531 84.589844 272.988281 84.628906 272.988281 84.71875 C 272.988281 84.757812 272.953125 84.859375 272.925781 84.921875 L 272.566406 86.21875 C 272.460938 86.566406 272.398438 86.566406 272.230469 86.566406 C 270.84375 86.566406 269.484375 86.503906 267.621094 86.503906 C 267.195312 86.503906 266.117188 86.566406 265.460938 86.566406 C 265.425781 86.566406 265.386719 86.4375 265.386719 86.363281 C 265.386719 86.261719 265.410156 86.144531 265.460938 86.144531 C 266.582031 86.09375 266.886719 85.976562 266.886719 84.796875 L 266.886719 78.808594 "/>
<path style=" stroke:none;fill-rule:nonzero;fill:rgb(13.729858%,12.159729%,12.548828%);fill-opacity:1;" d="M 276.511719 81.625 C 276.679688 81.636719 276.832031 81.648438 277 81.648438 C 278.027344 81.648438 279.3125 81.289062 279.3125 79.773438 C 279.3125 78.640625 278.539062 77.910156 277.410156 77.910156 C 276.539062 77.910156 276.511719 78.117188 276.511719 78.5 Z M 275.355469 78.886719 C 275.355469 78.246094 275.328125 77.921875 274.523438 77.921875 L 273.996094 77.921875 C 273.917969 77.921875 273.90625 77.78125 273.90625 77.679688 C 273.90625 77.617188 273.945312 77.5 273.996094 77.5 C 274.738281 77.5 275.5 77.539062 276.242188 77.539062 C 276.832031 77.539062 277.410156 77.5 278.003906 77.5 C 279.3125 77.5 280.597656 78.375 280.597656 79.722656 C 280.597656 80.890625 279.53125 81.675781 278.53125 81.828125 L 278.53125 81.851562 C 279.03125 81.96875 279.554688 82.90625 279.6875 83.113281 L 281.097656 85.273438 C 281.546875 85.953125 281.84375 86.078125 282.613281 86.121094 L 282.691406 86.195312 L 282.691406 86.4375 C 282.691406 86.554688 282.601562 86.566406 282.550781 86.566406 C 282.28125 86.566406 281.882812 86.53125 281.6875 86.53125 C 281.382812 86.53125 281.074219 86.566406 280.765625 86.566406 C 280.46875 86.566406 279.890625 85.707031 279.132812 84.359375 C 278.296875 82.878906 277.808594 82.074219 276.964844 82.074219 C 276.859375 82.074219 276.707031 82.074219 276.511719 82.097656 L 276.511719 85.246094 C 276.511719 85.707031 276.511719 86.144531 277.15625 86.144531 C 277.644531 86.144531 277.859375 86.144531 277.859375 86.246094 C 277.859375 86.492188 277.824219 86.566406 277.628906 86.566406 C 276.964844 86.566406 276.410156 86.503906 275.859375 86.503906 C 275.640625 86.503906 274.214844 86.566406 274.035156 86.566406 C 273.957031 86.566406 273.933594 86.402344 273.933594 86.296875 C 273.933594 86.183594 273.984375 86.15625 274.242188 86.144531 C 275.125 86.101562 275.355469 85.976562 275.355469 85.089844 L 275.355469 78.886719 "/>
<path style=" stroke:none;fill-rule:nonzero;fill:rgb(13.729858%,12.159729%,12.548828%);fill-opacity:1;" d="M 284.726562 81.890625 C 283.800781 81.339844 283.425781 80.824219 283.425781 79.824219 C 283.425781 78.21875 284.738281 77.320312 286.46875 77.320312 C 286.960938 77.320312 287.652344 77.488281 288.089844 77.679688 L 288.179688 79.285156 L 288.179688 79.347656 C 288.179688 79.414062 288.050781 79.441406 287.871094 79.441406 C 287.703125 79.441406 287.679688 79.363281 287.664062 79.234375 C 287.574219 78.375 286.960938 77.820312 286.046875 77.820312 C 285.171875 77.820312 284.492188 78.4375 284.492188 79.261719 C 284.492188 80.183594 285.058594 80.542969 286.339844 81.222656 C 287.613281 81.890625 288.71875 82.480469 288.71875 84.089844 C 288.71875 85.835938 287.140625 86.746094 285.535156 86.746094 C 285.007812 86.746094 284.132812 86.578125 283.644531 86.375 C 283.542969 86.324219 283.503906 86.15625 283.46875 85.875 L 283.3125 84.667969 C 283.3125 84.589844 283.570312 84.589844 283.644531 84.589844 C 283.683594 84.589844 283.722656 84.617188 283.746094 84.703125 C 284.042969 85.683594 284.710938 86.246094 285.738281 86.246094 C 286.636719 86.246094 287.496094 85.464844 287.496094 84.589844 C 287.496094 83.753906 287.023438 83.253906 286.355469 82.855469 L 284.726562 81.890625 "/>
<path style=" stroke:none;fill-rule:nonzero;fill:rgb(13.729858%,12.159729%,12.548828%);fill-opacity:1;" d="M 292.304688 84.191406 C 292.304688 86.066406 292.34375 86.078125 293.601562 86.144531 L 293.667969 86.234375 L 293.667969 86.476562 C 293.667969 86.554688 293.472656 86.566406 293.355469 86.566406 C 293.179688 86.566406 292.320312 86.503906 291.789062 86.503906 C 291.175781 86.503906 290.546875 86.566406 289.878906 86.566406 C 289.824219 86.539062 289.816406 86.464844 289.816406 86.335938 C 289.824219 86.167969 289.851562 86.144531 290.222656 86.144531 C 291.113281 86.144531 291.148438 85.953125 291.148438 84.972656 L 291.148438 78.835938 C 291.148438 78.101562 290.929688 77.921875 289.851562 77.921875 L 289.816406 77.859375 L 289.789062 77.652344 C 289.800781 77.511719 289.917969 77.5 289.992188 77.5 C 290.339844 77.5 290.75 77.566406 291.625 77.566406 C 292.269531 77.566406 293.035156 77.5 293.554688 77.5 L 293.617188 77.589844 L 293.617188 77.820312 L 293.566406 77.898438 L 293.214844 77.921875 C 292.703125 77.960938 292.304688 78.015625 292.304688 78.605469 L 292.304688 84.191406 "/>
<path style=" stroke:none;fill-rule:nonzero;fill:rgb(13.729858%,12.159729%,12.548828%);fill-opacity:1;" d="M 299.128906 85.195312 C 299.128906 86.144531 299.769531 86.144531 300.566406 86.144531 L 300.644531 86.210938 L 300.644531 86.414062 C 300.644531 86.566406 300.578125 86.566406 300.371094 86.566406 C 300.113281 86.566406 299.484375 86.503906 298.589844 86.503906 C 297.882812 86.503906 296.777344 86.566406 296.46875 86.566406 C 296.441406 86.476562 296.414062 86.414062 296.414062 86.335938 C 296.414062 86.296875 296.429688 86.21875 296.46875 86.195312 L 296.597656 86.144531 L 296.753906 86.144531 C 297.921875 86.144531 297.972656 85.746094 297.972656 84.679688 L 297.972656 78.59375 L 297.933594 78.003906 L 296.214844 78.003906 C 295.234375 78.003906 295.082031 78.617188 294.839844 79.441406 C 294.8125 79.515625 294.761719 79.554688 294.683594 79.554688 C 294.503906 79.554688 294.386719 79.503906 294.386719 79.425781 C 294.386719 79.207031 294.542969 78.015625 294.542969 77 C 294.542969 76.949219 294.722656 76.949219 294.902344 76.949219 C 295.3125 77.5 295.441406 77.5 295.992188 77.5 L 300.769531 77.5 C 301.671875 77.5 301.925781 77.230469 302.25 76.832031 C 302.335938 76.832031 302.632812 76.832031 302.632812 76.949219 C 302.632812 77.050781 302.378906 78.101562 302.351562 79.03125 C 302.351562 79.167969 302.3125 79.441406 302.25 79.441406 C 302.132812 79.441406 301.835938 79.375 301.835938 79.308594 L 301.785156 78.667969 C 301.734375 78.015625 301.425781 78.003906 300.902344 78.003906 L 299.128906 78.003906 L 299.128906 85.195312 "/>
<path style=" stroke:none;fill-rule:nonzero;fill:rgb(13.729858%,12.159729%,12.548828%);fill-opacity:1;" d="M 307.035156 82.484375 C 307.035156 82.351562 307.023438 82.1875 306.882812 81.976562 L 303.984375 78.0625 C 303.90625 77.945312 303.789062 77.878906 303.492188 77.867188 L 303 77.839844 L 302.925781 77.800781 L 302.925781 77.464844 L 303 77.425781 L 303.15625 77.425781 C 303.375 77.425781 304.761719 77.492188 305.003906 77.492188 C 305.328125 77.492188 305.847656 77.425781 306.273438 77.425781 C 306.558594 77.425781 306.6875 77.425781 306.6875 77.503906 L 306.6875 77.660156 C 306.6875 77.789062 306.648438 77.851562 306.609375 77.851562 L 305.859375 77.878906 C 305.675781 77.878906 305.5625 77.957031 305.5625 78.097656 C 305.5625 78.152344 305.636719 78.28125 305.769531 78.445312 L 307.617188 81.023438 C 307.722656 81.164062 307.835938 81.292969 307.96875 81.410156 C 308.214844 81.175781 309.351562 79.613281 309.910156 78.796875 C 310.117188 78.5 310.230469 78.253906 310.230469 78.152344 C 310.230469 77.96875 310.128906 77.894531 309.75 77.878906 L 309.105469 77.851562 C 309.117188 77.851562 309.105469 77.660156 309.105469 77.605469 C 309.105469 77.542969 309.117188 77.464844 309.183594 77.425781 C 309.6875 77.476562 310.308594 77.492188 310.863281 77.492188 C 311.242188 77.492188 311.808594 77.425781 311.976562 77.425781 L 312.054688 77.476562 L 312.054688 77.777344 L 312.003906 77.828125 L 311.523438 77.851562 C 311.109375 77.878906 310.59375 78.757812 310.347656 79.09375 L 308.199219 82.03125 L 308.199219 85.070312 C 308.199219 85.34375 308.214844 85.578125 308.238281 85.652344 C 308.34375 85.960938 308.679688 86.132812 309.160156 86.132812 L 309.507812 86.132812 L 309.621094 86.183594 L 309.621094 86.546875 L 309.558594 86.558594 L 309.363281 86.558594 C 308.792969 86.558594 308.238281 86.492188 307.667969 86.492188 C 307.089844 86.492188 306.492188 86.558594 305.910156 86.558594 L 305.730469 86.558594 L 305.625 86.53125 L 305.625 86.3125 C 305.625 86.234375 305.652344 86.144531 305.753906 86.132812 L 306.363281 86.066406 C 306.738281 86.027344 307.035156 85.898438 307.035156 85.253906 L 307.035156 82.484375 "/>
<path style=" stroke:none;fill-rule:nonzero;fill:rgb(13.729858%,12.159729%,12.548828%);fill-opacity:1;" d="M 359.816406 77.523438 C 360.214844 77.523438 360.625 77.558594 361.039062 77.558594 C 361.363281 77.558594 361.695312 77.523438 362.019531 77.523438 C 362.210938 77.523438 362.25 77.570312 362.25 77.613281 L 362.25 77.816406 C 362.25 77.90625 362.210938 77.972656 362.15625 77.972656 C 362.066406 77.972656 361.929688 77.945312 361.769531 77.945312 C 361.023438 77.945312 361.023438 78.320312 361.023438 79.15625 C 361.023438 79.890625 361.164062 84.710938 361.164062 85.417969 C 361.164062 85.78125 361.347656 86.195312 361.902344 86.195312 C 362.414062 86.195312 362.480469 86.21875 362.480469 86.335938 C 362.480469 86.492188 362.402344 86.621094 362.367188 86.621094 C 361.679688 86.621094 361.140625 86.554688 360.597656 86.554688 C 360.058594 86.554688 359.503906 86.621094 358.949219 86.621094 C 358.859375 86.621094 358.847656 86.566406 358.847656 86.492188 L 358.847656 86.359375 C 358.847656 86.230469 358.964844 86.195312 359.554688 86.195312 C 359.816406 86.195312 360.046875 85.886719 360.046875 85.433594 C 360.046875 84.042969 359.992188 81.039062 359.941406 78.835938 C 359.890625 78.824219 359.902344 78.824219 359.902344 78.824219 C 359.183594 80.304688 358.242188 82.457031 357.804688 83.601562 L 356.589844 86.785156 C 356.578125 86.824219 356.539062 86.863281 356.476562 86.863281 C 356.414062 86.863281 356.359375 86.796875 356.320312 86.621094 C 356.246094 86.292969 356.128906 85.988281 355.996094 85.679688 L 353.5625 79.75 C 353.472656 79.53125 353.394531 79.375 353.347656 79.375 C 353.289062 79.375 353.289062 79.632812 353.289062 79.777344 C 353.289062 80.792969 353.140625 84.683594 353.140625 85.316406 C 353.140625 85.871094 353.140625 86.195312 354.273438 86.195312 C 354.351562 86.195312 354.363281 86.257812 354.363281 86.410156 C 354.363281 86.464844 354.351562 86.621094 354.296875 86.621094 C 354.117188 86.621094 353.488281 86.554688 352.789062 86.554688 C 352.058594 86.554688 351.335938 86.621094 351.152344 86.621094 C 351.117188 86.621094 351.074219 86.578125 351.074219 86.515625 L 351.074219 86.324219 C 351.074219 86.207031 351.179688 86.195312 351.335938 86.195312 C 352.390625 86.195312 352.546875 85.871094 352.546875 84.75 C 352.546875 84.117188 352.761719 79.375 352.761719 78.910156 C 352.761719 78.230469 352.429688 77.945312 351.269531 77.945312 C 351.230469 77.945312 351.203125 77.882812 351.203125 77.804688 L 351.203125 77.636719 C 351.203125 77.570312 351.242188 77.523438 351.308594 77.523438 C 351.796875 77.523438 352.261719 77.585938 352.777344 77.585938 C 353.097656 77.585938 353.433594 77.523438 353.757812 77.523438 C 353.847656 77.523438 353.9375 77.726562 354 77.894531 L 356.785156 84.558594 L 356.847656 84.558594 L 359.816406 77.523438 "/>
<path style=" stroke:none;fill-rule:nonzero;fill:rgb(13.729858%,12.159729%,12.548828%);fill-opacity:1;" d="M 364.476562 81.929688 C 363.542969 81.375 363.171875 80.855469 363.171875 79.855469 C 363.171875 78.242188 364.484375 77.339844 366.222656 77.339844 C 366.714844 77.339844 367.410156 77.507812 367.851562 77.703125 L 367.941406 79.3125 L 367.941406 79.378906 C 367.941406 79.441406 367.808594 79.464844 367.628906 79.464844 C 367.460938 79.464844 367.4375 79.390625 367.421875 79.261719 C 367.332031 78.398438 366.714844 77.84375 365.800781 77.84375 C 364.925781 77.84375 364.242188 78.460938 364.242188 79.285156 C 364.242188 80.214844 364.808594 80.574219 366.097656 81.257812 C 367.371094 81.929688 368.480469 82.519531 368.480469 84.132812 C 368.480469 85.886719 366.894531 86.796875 365.285156 86.796875 C 364.757812 86.796875 363.878906 86.632812 363.390625 86.425781 C 363.285156 86.375 363.246094 86.207031 363.207031 85.921875 L 363.054688 84.710938 C 363.054688 84.632812 363.3125 84.632812 363.390625 84.632812 C 363.429688 84.632812 363.46875 84.660156 363.492188 84.75 C 363.789062 85.726562 364.460938 86.292969 365.492188 86.292969 C 366.394531 86.292969 367.253906 85.507812 367.253906 84.632812 C 367.253906 83.796875 366.78125 83.292969 366.109375 82.894531 L 364.476562 81.929688 "/>
<path style=" stroke:none;fill-rule:nonzero;fill:rgb(13.729858%,12.159729%,12.548828%);fill-opacity:1;" d="M 373.859375 85.273438 C 373.859375 86.226562 374.503906 86.226562 375.300781 86.226562 L 375.378906 86.289062 L 375.378906 86.5 C 375.378906 86.652344 375.316406 86.652344 375.109375 86.652344 C 374.851562 86.652344 374.222656 86.589844 373.316406 86.589844 C 372.609375 86.589844 371.5 86.652344 371.191406 86.652344 C 371.164062 86.5625 371.140625 86.5 371.140625 86.421875 C 371.140625 86.382812 371.15625 86.304688 371.191406 86.277344 L 371.324219 86.226562 L 371.476562 86.226562 C 372.648438 86.226562 372.699219 85.828125 372.699219 84.757812 L 372.699219 78.652344 L 372.660156 78.058594 L 370.9375 78.058594 C 369.953125 78.058594 369.800781 78.675781 369.554688 79.5 C 369.53125 79.578125 369.476562 79.617188 369.402344 79.617188 C 369.21875 79.617188 369.105469 79.566406 369.105469 79.488281 C 369.105469 79.269531 369.257812 78.070312 369.257812 77.050781 C 369.257812 77 369.441406 77 369.621094 77 C 370.03125 77.554688 370.160156 77.554688 370.714844 77.554688 L 375.507812 77.554688 C 376.410156 77.554688 376.667969 77.285156 376.992188 76.886719 C 377.082031 76.886719 377.378906 76.886719 377.378906 77 C 377.378906 77.105469 377.117188 78.160156 377.09375 79.089844 C 377.09375 79.230469 377.054688 79.5 376.992188 79.5 C 376.871094 79.5 376.578125 79.4375 376.578125 79.371094 L 376.527344 78.726562 C 376.476562 78.070312 376.164062 78.058594 375.636719 78.058594 L 373.859375 78.058594 L 373.859375 85.273438 "/>
<path style=" stroke:none;fill-rule:nonzero;fill:rgb(13.729858%,12.159729%,12.548828%);fill-opacity:1;" d="M 379.269531 78.835938 C 379.269531 78 378.636719 77.90625 377.890625 77.90625 C 377.839844 77.90625 377.839844 77.84375 377.839844 77.792969 L 377.839844 77.648438 C 377.839844 77.53125 378.058594 77.523438 378.507812 77.523438 C 379.023438 77.523438 379.601562 77.585938 380.144531 77.585938 C 380.660156 77.585938 381.175781 77.523438 381.691406 77.523438 L 384.410156 77.523438 C 384.511719 77.523438 384.527344 77.636719 384.527344 77.777344 L 384.527344 79.351562 C 384.527344 79.402344 384.496094 79.453125 384.433594 79.453125 C 384.332031 79.453125 384.125 79.464844 384.113281 79.3125 L 384.074219 78.910156 C 383.996094 78.089844 383.429688 77.945312 382.710938 77.945312 L 381.378906 77.945312 C 380.660156 77.945312 380.429688 78.101562 380.429688 79.078125 L 380.429688 81.410156 C 380.429688 81.449219 380.503906 81.515625 380.53125 81.515625 L 382.050781 81.464844 C 382.824219 81.4375 383.046875 81.195312 383.238281 80.511719 C 383.261719 80.433594 383.300781 80.40625 383.445312 80.40625 C 383.535156 80.40625 383.597656 80.421875 383.597656 80.484375 C 383.597656 80.757812 383.519531 81.347656 383.519531 81.773438 C 383.519531 82.46875 383.597656 82.84375 383.597656 83.0625 C 383.597656 83.140625 383.46875 83.21875 383.390625 83.21875 C 383.289062 83.21875 383.199219 83.179688 383.171875 83.046875 C 383.109375 82.703125 383.109375 82.457031 383.046875 82.277344 C 382.976562 82.082031 382.824219 81.992188 382.4375 81.980469 L 380.609375 81.941406 C 380.429688 81.941406 380.429688 82.003906 380.429688 82.09375 L 380.429688 85.164062 C 380.429688 86.089844 381.109375 86.117188 382 86.117188 L 382.695312 86.117188 C 383.378906 86.117188 383.855469 86.101562 384.179688 85.90625 C 384.464844 85.742188 384.859375 84.957031 385 84.632812 C 385.171875 84.632812 385.386719 84.671875 385.386719 84.761719 C 385.386719 84.800781 385.351562 84.90625 385.324219 84.96875 L 384.964844 86.269531 C 384.859375 86.621094 384.796875 86.621094 384.628906 86.621094 C 383.238281 86.621094 381.871094 86.554688 380.003906 86.554688 C 379.578125 86.554688 378.496094 86.621094 377.839844 86.621094 C 377.800781 86.621094 377.761719 86.492188 377.761719 86.410156 C 377.761719 86.308594 377.785156 86.195312 377.839844 86.195312 C 378.957031 86.140625 379.269531 86.027344 379.269531 84.839844 L 379.269531 78.835938 "/>
<path style=" stroke:none;fill-rule:nonzero;fill:rgb(13.729858%,12.159729%,12.548828%);fill-opacity:1;" d="M 388.515625 81.65625 C 388.683594 81.667969 388.839844 81.683594 389.003906 81.683594 C 390.035156 81.683594 391.324219 81.324219 391.324219 79.800781 C 391.324219 78.667969 390.554688 77.933594 389.417969 77.933594 C 388.539062 77.933594 388.515625 78.140625 388.515625 78.527344 Z M 387.355469 78.910156 C 387.355469 78.269531 387.328125 77.945312 386.519531 77.945312 L 385.988281 77.945312 C 385.910156 77.945312 385.898438 77.804688 385.898438 77.703125 C 385.898438 77.636719 385.941406 77.523438 385.988281 77.523438 C 386.738281 77.523438 387.5 77.558594 388.246094 77.558594 C 388.839844 77.558594 389.417969 77.523438 390.011719 77.523438 C 391.324219 77.523438 392.613281 78.398438 392.613281 79.75 C 392.613281 80.921875 391.546875 81.707031 390.539062 81.863281 L 390.539062 81.890625 C 391.042969 82.003906 391.570312 82.945312 391.699219 83.152344 L 393.117188 85.316406 C 393.566406 86 393.863281 86.128906 394.636719 86.167969 L 394.714844 86.246094 L 394.714844 86.492188 C 394.714844 86.605469 394.621094 86.621094 394.574219 86.621094 C 394.300781 86.621094 393.902344 86.578125 393.707031 86.578125 C 393.398438 86.578125 393.089844 86.621094 392.78125 86.621094 C 392.484375 86.621094 391.90625 85.753906 391.144531 84.402344 C 390.308594 82.917969 389.816406 82.105469 388.964844 82.105469 C 388.863281 82.105469 388.707031 82.105469 388.515625 82.132812 L 388.515625 85.292969 C 388.515625 85.753906 388.515625 86.195312 389.160156 86.195312 C 389.648438 86.195312 389.871094 86.195312 389.871094 86.292969 C 389.871094 86.539062 389.832031 86.621094 389.636719 86.621094 C 388.964844 86.621094 388.414062 86.554688 387.859375 86.554688 C 387.640625 86.554688 386.210938 86.621094 386.03125 86.621094 C 385.949219 86.621094 385.925781 86.453125 385.925781 86.347656 C 385.925781 86.230469 385.976562 86.207031 386.234375 86.195312 C 387.121094 86.15625 387.355469 86.027344 387.355469 85.136719 L 387.355469 78.910156 "/>
<path style=" stroke:none;fill-rule:nonzero;fill:rgb(13.729858%,12.159729%,12.548828%);fill-opacity:1;" d="M 397.761719 84.691406 C 397.761719 86.105469 399.21875 86.105469 399.785156 86.105469 C 401.546875 86.105469 403.429688 84.652344 403.429688 81.957031 C 403.429688 79.664062 402.195312 78.53125 401.304688 78.015625 C 400.683594 77.746094 399.871094 77.679688 399.320312 77.679688 C 398.265625 77.679688 397.761719 77.757812 397.761719 78.582031 Z M 396.601562 78.941406 C 396.601562 78.453125 396.496094 77.949219 396.019531 77.949219 C 395.867188 77.949219 395.453125 78 395.210938 78 C 395.15625 78 395.15625 77.808594 395.15625 77.746094 C 395.15625 77.664062 395.15625 77.628906 395.378906 77.578125 C 396.242188 77.394531 398.300781 77.253906 399.40625 77.253906 C 400.117188 77.253906 400.789062 77.320312 401.421875 77.484375 C 403.171875 77.964844 404.808594 79.523438 404.808594 81.894531 C 404.808594 85.089844 402.140625 86.53125 399.691406 86.53125 C 398.46875 86.53125 397.824219 86.480469 397.183594 86.480469 C 396.535156 86.480469 395.894531 86.519531 395.246094 86.53125 C 395.195312 86.53125 395.183594 86.417969 395.183594 86.324219 C 395.183594 86.234375 395.246094 86.105469 395.300781 86.105469 C 395.710938 86.054688 396.046875 86.03125 396.28125 85.875 C 396.472656 85.746094 396.601562 85.539062 396.601562 85.128906 L 396.601562 78.941406 "/>
<path style=" stroke:none;fill-rule:nonzero;fill:rgb(13.729858%,12.159729%,12.548828%);fill-opacity:1;" d="M 409.949219 82.507812 L 408.515625 78.824219 L 408.488281 78.824219 L 407.269531 82.507812 Z M 407.097656 83.011719 L 406.53125 84.839844 C 406.429688 85.175781 406.378906 85.472656 406.378906 85.679688 C 406.378906 86.101562 406.984375 86.195312 407.332031 86.195312 C 407.445312 86.195312 407.472656 86.269531 407.472656 86.4375 C 407.472656 86.566406 407.460938 86.621094 407.371094 86.621094 C 407.074219 86.621094 406.132812 86.554688 405.785156 86.554688 C 405.4375 86.554688 404.894531 86.621094 404.511719 86.621094 C 404.253906 86.621094 404.253906 86.578125 404.253906 86.410156 L 404.253906 86.269531 C 404.253906 86.207031 404.367188 86.179688 404.679688 86.15625 C 405.347656 86.089844 405.4375 85.960938 405.683594 85.253906 L 408.234375 77.832031 C 408.488281 77.613281 408.761719 77.316406 409.082031 77.210938 L 412.316406 85.367188 C 412.539062 85.90625 412.769531 86.179688 413.515625 86.179688 C 413.660156 86.179688 413.683594 86.335938 413.683594 86.476562 C 413.683594 86.621094 413.59375 86.621094 413.441406 86.621094 C 413.234375 86.621094 412.410156 86.554688 411.90625 86.554688 C 411.390625 86.554688 410.875 86.578125 410.359375 86.621094 C 410.164062 86.621094 410.152344 86.578125 410.152344 86.398438 C 410.152344 86.257812 410.230469 86.195312 410.410156 86.195312 C 410.605469 86.195312 411.238281 86.15625 411.238281 85.84375 C 411.238281 85.742188 411.183594 85.535156 411.003906 85.085938 L 410.179688 83.011719 L 407.097656 83.011719 "/>
<g clip-path="url(#clip14)" clip-rule="nonzero">
<path style=" stroke:none;fill-rule:nonzero;fill:rgb(13.729858%,12.159729%,12.548828%);fill-opacity:1;" d="M 422.632812 77.523438 C 423.03125 77.523438 423.445312 77.558594 423.859375 77.558594 C 424.175781 77.558594 424.515625 77.523438 424.835938 77.523438 C 425.03125 77.523438 425.066406 77.570312 425.066406 77.613281 L 425.066406 77.816406 C 425.066406 77.90625 425.03125 77.972656 424.980469 77.972656 C 424.886719 77.972656 424.746094 77.945312 424.589844 77.945312 C 423.84375 77.945312 423.84375 78.320312 423.84375 79.15625 C 423.84375 79.890625 423.984375 84.710938 423.984375 85.417969 C 423.984375 85.78125 424.167969 86.195312 424.722656 86.195312 C 425.234375 86.195312 425.300781 86.21875 425.300781 86.335938 C 425.300781 86.492188 425.222656 86.621094 425.183594 86.621094 C 424.5 86.621094 423.960938 86.554688 423.417969 86.554688 C 422.878906 86.554688 422.324219 86.621094 421.769531 86.621094 C 421.679688 86.621094 421.664062 86.566406 421.664062 86.492188 L 421.664062 86.359375 C 421.664062 86.230469 421.78125 86.195312 422.371094 86.195312 C 422.632812 86.195312 422.863281 85.886719 422.863281 85.433594 C 422.863281 84.042969 422.8125 81.039062 422.761719 78.835938 C 422.710938 78.824219 422.722656 78.824219 422.722656 78.824219 C 422 80.304688 421.058594 82.457031 420.621094 83.601562 L 419.410156 86.785156 C 419.398438 86.824219 419.359375 86.863281 419.296875 86.863281 C 419.230469 86.863281 419.179688 86.796875 419.140625 86.621094 C 419.0625 86.292969 418.949219 85.988281 418.816406 85.679688 L 416.382812 79.75 C 416.292969 79.53125 416.214844 79.375 416.164062 79.375 C 416.113281 79.375 416.113281 79.632812 416.113281 79.777344 C 416.113281 80.792969 415.957031 84.683594 415.957031 85.316406 C 415.957031 85.871094 415.957031 86.195312 417.089844 86.195312 C 417.171875 86.195312 417.179688 86.257812 417.179688 86.410156 C 417.179688 86.464844 417.171875 86.621094 417.117188 86.621094 C 416.9375 86.621094 416.304688 86.554688 415.609375 86.554688 C 414.871094 86.554688 414.152344 86.621094 413.972656 86.621094 C 413.933594 86.621094 413.898438 86.578125 413.898438 86.515625 L 413.898438 86.324219 C 413.898438 86.207031 413.996094 86.195312 414.152344 86.195312 C 415.210938 86.195312 415.363281 85.871094 415.363281 84.75 C 415.363281 84.117188 415.585938 79.375 415.585938 78.910156 C 415.585938 78.230469 415.25 77.945312 414.085938 77.945312 C 414.050781 77.945312 414.023438 77.882812 414.023438 77.804688 L 414.023438 77.636719 C 414.023438 77.570312 414.0625 77.523438 414.128906 77.523438 C 414.617188 77.523438 415.078125 77.585938 415.601562 77.585938 C 415.917969 77.585938 416.253906 77.523438 416.574219 77.523438 C 416.667969 77.523438 416.757812 77.726562 416.820312 77.894531 L 419.605469 84.558594 L 419.667969 84.558594 L 422.632812 77.523438 "/>
</g>
<path style=" stroke:none;fill-rule:nonzero;fill:rgb(13.729858%,12.159729%,12.548828%);fill-opacity:1;" d="M 7.5 84.703125 C 7.5 85.953125 8.34375 85.953125 9.394531 85.953125 L 9.496094 86.035156 L 9.496094 86.308594 C 9.496094 86.511719 9.410156 86.511719 9.140625 86.511719 C 8.800781 86.511719 7.972656 86.425781 6.789062 86.425781 C 5.859375 86.425781 4.40625 86.511719 4 86.511719 C 3.964844 86.394531 3.929688 86.308594 3.929688 86.207031 C 3.929688 86.15625 3.949219 86.054688 4 86.019531 L 4.167969 85.953125 L 4.371094 85.953125 C 5.910156 85.953125 5.976562 85.429688 5.976562 84.023438 L 5.976562 76.007812 L 5.925781 75.226562 L 3.660156 75.226562 C 2.375 75.226562 2.171875 76.039062 1.851562 77.125 C 1.816406 77.222656 1.75 77.273438 1.648438 77.273438 C 1.410156 77.273438 1.257812 77.207031 1.257812 77.105469 C 1.257812 76.820312 1.460938 75.246094 1.460938 73.90625 C 1.460938 73.84375 1.699219 73.84375 1.933594 73.84375 C 2.476562 74.570312 2.644531 74.570312 3.371094 74.570312 L 9.664062 74.570312 C 10.847656 74.570312 11.1875 74.214844 11.609375 73.6875 C 11.726562 73.6875 12.117188 73.6875 12.117188 73.84375 C 12.117188 73.976562 11.777344 75.363281 11.746094 76.582031 C 11.746094 76.769531 11.695312 77.125 11.609375 77.125 C 11.457031 77.125 11.070312 77.039062 11.070312 76.953125 L 11 76.105469 C 10.933594 75.246094 10.527344 75.226562 9.835938 75.226562 L 7.5 75.226562 L 7.5 84.703125 "/>
<path style=" stroke:none;fill-rule:nonzero;fill:rgb(13.729858%,12.159729%,12.548828%);fill-opacity:1;" d="M 13.941406 78.960938 C 13.941406 78.363281 13.851562 77.929688 12.730469 77.914062 L 12.667969 77.816406 L 12.667969 77.597656 C 12.667969 77.507812 12.78125 77.496094 12.882812 77.496094 C 13.265625 77.496094 14.015625 77.558594 14.578125 77.558594 C 15.085938 77.558594 15.597656 77.496094 16.15625 77.496094 C 16.425781 77.496094 16.488281 77.496094 16.488281 77.636719 L 16.488281 77.839844 C 16.488281 77.902344 16.335938 77.914062 16.132812 77.914062 C 15.609375 77.914062 15.085938 77.953125 15.085938 78.578125 L 15.085938 81.445312 L 20.550781 81.445312 L 20.550781 79.0625 C 20.550781 78.183594 20.550781 77.992188 19.519531 77.914062 C 19.378906 77.902344 19.355469 77.863281 19.355469 77.710938 L 19.355469 77.558594 L 19.417969 77.496094 C 19.839844 77.523438 20.640625 77.558594 21.429688 77.558594 C 22.246094 77.558594 22.578125 77.535156 22.949219 77.496094 L 22.996094 77.574219 L 22.996094 77.816406 C 22.996094 77.914062 22.882812 77.914062 22.691406 77.914062 C 22.03125 77.914062 21.699219 78.03125 21.699219 78.769531 L 21.699219 85.074219 C 21.699219 85.992188 22.195312 86.070312 22.921875 86.070312 C 22.972656 86.070312 22.972656 86.261719 22.972656 86.402344 C 22.972656 86.453125 22.921875 86.492188 22.578125 86.492188 C 22.066406 86.492188 21.558594 86.425781 21.046875 86.425781 C 20.578125 86.425781 19.789062 86.492188 19.636719 86.492188 C 19.304688 86.492188 19.238281 86.464844 19.238281 86.414062 L 19.238281 86.132812 L 19.304688 86.070312 C 20.527344 86.070312 20.550781 85.816406 20.550781 84.921875 L 20.550781 81.941406 L 15.085938 81.941406 L 15.085938 85.164062 C 15.085938 85.890625 15.277344 86.070312 16.21875 86.070312 C 16.359375 86.070312 16.398438 86.09375 16.398438 86.210938 L 16.398438 86.402344 C 16.398438 86.476562 16.273438 86.492188 15.992188 86.492188 C 15.46875 86.492188 14.945312 86.425781 14.425781 86.425781 C 13.941406 86.425781 13.445312 86.492188 12.960938 86.492188 C 12.871094 86.492188 12.753906 86.492188 12.691406 86.414062 L 12.691406 86.132812 L 12.78125 86.070312 C 13.378906 86.070312 13.941406 86.019531 13.941406 85.371094 L 13.941406 78.960938 "/>
<path style=" stroke:none;fill-rule:nonzero;fill:rgb(13.729858%,12.159729%,12.548828%);fill-opacity:1;" d="M 25.277344 78.792969 C 25.277344 77.96875 24.652344 77.878906 23.914062 77.878906 C 23.863281 77.878906 23.863281 77.816406 23.863281 77.765625 L 23.863281 77.625 C 23.863281 77.507812 24.078125 77.496094 24.523438 77.496094 C 25.035156 77.496094 25.605469 77.558594 26.144531 77.558594 C 26.652344 77.558594 27.160156 77.496094 27.671875 77.496094 L 30.359375 77.496094 C 30.460938 77.496094 30.472656 77.609375 30.472656 77.75 L 30.472656 79.304688 C 30.472656 79.355469 30.449219 79.40625 30.386719 79.40625 C 30.28125 79.40625 30.078125 79.417969 30.066406 79.265625 L 30.027344 78.871094 C 29.953125 78.058594 29.390625 77.914062 28.675781 77.914062 L 27.367188 77.914062 C 26.652344 77.914062 26.421875 78.070312 26.421875 79.039062 L 26.421875 81.34375 C 26.421875 81.382812 26.5 81.445312 26.523438 81.445312 L 28.027344 81.394531 C 28.792969 81.371094 29.007812 81.125 29.199219 80.453125 C 29.226562 80.375 29.265625 80.347656 29.40625 80.347656 C 29.492188 80.347656 29.554688 80.363281 29.554688 80.425781 C 29.554688 80.695312 29.480469 81.28125 29.480469 81.699219 C 29.480469 82.386719 29.554688 82.757812 29.554688 82.972656 C 29.554688 83.050781 29.429688 83.128906 29.351562 83.128906 C 29.25 83.128906 29.160156 83.089844 29.136719 82.960938 C 29.074219 82.617188 29.074219 82.375 29.007812 82.199219 C 28.945312 82.007812 28.792969 81.914062 28.410156 81.902344 L 26.601562 81.867188 C 26.421875 81.867188 26.421875 81.929688 26.421875 82.019531 L 26.421875 85.050781 C 26.421875 85.96875 27.097656 85.992188 27.976562 85.992188 L 28.664062 85.992188 C 29.339844 85.992188 29.8125 85.980469 30.128906 85.789062 C 30.410156 85.625 30.804688 84.84375 30.945312 84.527344 C 31.109375 84.527344 31.328125 84.566406 31.328125 84.65625 C 31.328125 84.695312 31.289062 84.796875 31.265625 84.859375 L 30.90625 86.148438 C 30.804688 86.492188 30.742188 86.492188 30.578125 86.492188 C 29.199219 86.492188 27.847656 86.425781 26.003906 86.425781 C 25.582031 86.425781 24.511719 86.492188 23.863281 86.492188 C 23.824219 86.492188 23.785156 86.363281 23.785156 86.285156 C 23.785156 86.183594 23.8125 86.070312 23.863281 86.070312 C 24.96875 86.019531 25.277344 85.90625 25.277344 84.730469 L 25.277344 78.792969 "/>
<path style=" stroke:none;fill-rule:nonzero;fill:rgb(13.729858%,12.159729%,12.548828%);fill-opacity:1;" d="M 46.714844 85.835938 C 45.582031 86.394531 44.214844 86.75 42.671875 86.75 C 39.359375 86.75 35.6875 84.398438 35.6875 80.507812 C 35.6875 76.800781 39.121094 74.332031 42.589844 74.332031 C 43.722656 74.332031 45.667969 74.71875 46.648438 75.3125 L 46.867188 77.273438 C 46.886719 77.410156 46.917969 77.597656 46.917969 77.679688 C 46.917969 77.800781 46.648438 77.800781 46.582031 77.800781 C 46.515625 77.800781 46.359375 77.527344 46.125 76.96875 C 45.632812 75.804688 44.144531 74.992188 42.65625 74.992188 C 39.425781 74.992188 37.582031 77.648438 37.582031 80.691406 C 37.582031 83.464844 39.816406 86.089844 42.65625 86.089844 C 43.65625 86.089844 44.941406 85.730469 45.617188 85.191406 C 46.140625 84.769531 46.359375 84.007812 46.5625 83.382812 C 46.582031 83.347656 46.683594 83.347656 46.765625 83.347656 C 46.902344 83.347656 47.15625 83.363281 47.105469 83.601562 L 46.714844 85.835938 "/>
<path style=" stroke:none;fill-rule:nonzero;fill:rgb(13.729858%,12.159729%,12.548828%);fill-opacity:1;" d="M 57.070312 82.054688 C 57.070312 79.914062 55.605469 77.738281 53.3125 77.738281 C 50.957031 77.738281 49.820312 79.585938 49.820312 81.738281 C 49.820312 83.914062 51.148438 86.171875 53.515625 86.171875 C 55.859375 86.171875 57.070312 84.246094 57.070312 82.054688 Z M 48.460938 82.15625 C 48.460938 79.496094 50.738281 77.316406 53.375 77.316406 C 56.050781 77.316406 58.433594 79.152344 58.433594 81.800781 C 58.433594 84.363281 55.960938 86.667969 53.425781 86.667969 C 50.765625 86.667969 48.460938 84.9375 48.460938 82.15625 "/>
<path style=" stroke:none;fill-rule:nonzero;fill:rgb(13.729858%,12.159729%,12.548828%);fill-opacity:1;" d="M 60.878906 79.28125 C 60.878906 78.324219 60.828125 77.914062 59.769531 77.914062 C 59.617188 77.914062 59.578125 77.878906 59.578125 77.710938 C 59.578125 77.496094 59.667969 77.496094 59.882812 77.496094 C 60.378906 77.496094 60.878906 77.558594 61.375 77.558594 C 62.035156 77.558594 62.699219 77.496094 63.363281 77.496094 C 63.414062 77.546875 63.414062 77.660156 63.414062 77.710938 C 63.414062 77.789062 63.375 77.890625 63.335938 77.890625 C 63.285156 77.890625 63.15625 77.890625 63.082031 77.902344 L 62.585938 77.980469 C 62.316406 78.03125 62.023438 78.195312 62.023438 78.707031 L 62.023438 84.171875 C 62.023438 85.699219 62.265625 85.992188 63.84375 85.992188 L 64.496094 85.992188 C 65.09375 85.992188 65.464844 85.941406 65.707031 85.828125 C 66.023438 85.675781 66.175781 85.179688 66.265625 85.023438 L 66.558594 84.554688 C 66.585938 84.527344 66.597656 84.503906 66.699219 84.503906 C 66.8125 84.503906 66.941406 84.527344 66.941406 84.605469 L 66.609375 85.90625 C 66.546875 86.160156 66.40625 86.492188 66.214844 86.492188 C 64.710938 86.492188 63.195312 86.425781 61.691406 86.425781 C 61.09375 86.425781 60.480469 86.492188 59.882812 86.492188 L 59.679688 86.492188 L 59.589844 86.4375 L 59.589844 86.285156 C 59.589844 86.132812 59.65625 86.09375 60.011719 86.070312 C 60.609375 86.03125 60.878906 85.957031 60.878906 85.417969 L 60.878906 79.28125 "/>
<path style=" stroke:none;fill-rule:nonzero;fill:rgb(13.729858%,12.159729%,12.548828%);fill-opacity:1;" d="M 69.246094 79.28125 C 69.246094 78.324219 69.195312 77.914062 68.136719 77.914062 C 67.984375 77.914062 67.945312 77.878906 67.945312 77.710938 C 67.945312 77.496094 68.035156 77.496094 68.253906 77.496094 C 68.75 77.496094 69.246094 77.558594 69.742188 77.558594 C 70.40625 77.558594 71.066406 77.496094 71.730469 77.496094 C 71.78125 77.546875 71.78125 77.660156 71.78125 77.710938 C 71.78125 77.789062 71.742188 77.890625 71.703125 77.890625 C 71.652344 77.890625 71.527344 77.890625 71.449219 77.902344 L 70.953125 77.980469 C 70.683594 78.03125 70.390625 78.195312 70.390625 78.707031 L 70.390625 84.171875 C 70.390625 85.699219 70.632812 85.992188 72.214844 85.992188 L 72.863281 85.992188 C 73.460938 85.992188 73.832031 85.941406 74.074219 85.828125 C 74.390625 85.675781 74.546875 85.179688 74.636719 85.023438 L 74.925781 84.554688 C 74.953125 84.527344 74.964844 84.503906 75.066406 84.503906 C 75.179688 84.503906 75.308594 84.527344 75.308594 84.605469 L 74.976562 85.90625 C 74.914062 86.160156 74.773438 86.492188 74.582031 86.492188 C 73.078125 86.492188 71.5625 86.425781 70.058594 86.425781 C 69.460938 86.425781 68.851562 86.492188 68.253906 86.492188 L 68.046875 86.492188 L 67.957031 86.4375 L 67.957031 86.285156 C 67.957031 86.132812 68.023438 86.09375 68.378906 86.070312 C 68.976562 86.03125 69.246094 85.957031 69.246094 85.417969 L 69.246094 79.28125 "/>
<path style=" stroke:none;fill-rule:nonzero;fill:rgb(13.729858%,12.159729%,12.548828%);fill-opacity:1;" d="M 77.625 78.792969 C 77.625 77.96875 77.003906 77.878906 76.261719 77.878906 C 76.210938 77.878906 76.210938 77.816406 76.210938 77.765625 L 76.210938 77.625 C 76.210938 77.507812 76.429688 77.496094 76.875 77.496094 C 77.382812 77.496094 77.957031 77.558594 78.492188 77.558594 C 79.003906 77.558594 79.511719 77.496094 80.023438 77.496094 L 82.710938 77.496094 C 82.8125 77.496094 82.824219 77.609375 82.824219 77.75 L 82.824219 79.304688 C 82.824219 79.355469 82.796875 79.40625 82.734375 79.40625 C 82.632812 79.40625 82.429688 79.417969 82.417969 79.265625 L 82.378906 78.871094 C 82.300781 78.058594 81.742188 77.914062 81.027344 77.914062 L 79.714844 77.914062 C 79.003906 77.914062 78.773438 78.070312 78.773438 79.039062 L 78.773438 81.34375 C 78.773438 81.382812 78.847656 81.445312 78.875 81.445312 L 80.378906 81.394531 C 81.144531 81.371094 81.359375 81.125 81.550781 80.453125 C 81.574219 80.375 81.613281 80.347656 81.753906 80.347656 C 81.84375 80.347656 81.90625 80.363281 81.90625 80.425781 C 81.90625 80.695312 81.832031 81.28125 81.832031 81.699219 C 81.832031 82.386719 81.90625 82.757812 81.90625 82.972656 C 81.90625 83.050781 81.78125 83.128906 81.703125 83.128906 C 81.601562 83.128906 81.511719 83.089844 81.488281 82.960938 C 81.421875 82.617188 81.421875 82.375 81.359375 82.199219 C 81.296875 82.007812 81.144531 81.914062 80.761719 81.902344 L 78.953125 81.867188 C 78.773438 81.867188 78.773438 81.929688 78.773438 82.019531 L 78.773438 85.050781 C 78.773438 85.96875 79.449219 85.992188 80.328125 85.992188 L 81.015625 85.992188 C 81.691406 85.992188 82.160156 85.980469 82.480469 85.789062 C 82.761719 85.625 83.15625 84.84375 83.296875 84.527344 C 83.460938 84.527344 83.675781 84.566406 83.675781 84.65625 C 83.675781 84.695312 83.640625 84.796875 83.613281 84.859375 L 83.257812 86.148438 C 83.15625 86.492188 83.089844 86.492188 82.925781 86.492188 C 81.550781 86.492188 80.199219 86.425781 78.351562 86.425781 C 77.933594 86.425781 76.863281 86.492188 76.210938 86.492188 C 76.171875 86.492188 76.136719 86.363281 76.136719 86.285156 C 76.136719 86.183594 76.160156 86.070312 76.210938 86.070312 C 77.320312 86.019531 77.625 85.90625 77.625 84.730469 L 77.625 78.792969 "/>
<path style=" stroke:none;fill-rule:nonzero;fill:rgb(13.729858%,12.159729%,12.548828%);fill-opacity:1;" d="M 93.066406 85.980469 C 92.210938 86.402344 91.179688 86.667969 90.019531 86.667969 C 87.523438 86.667969 84.757812 84.898438 84.757812 81.96875 C 84.757812 79.179688 87.34375 77.316406 89.957031 77.316406 C 90.808594 77.316406 92.273438 77.609375 93.015625 78.058594 L 93.179688 79.535156 C 93.191406 79.636719 93.21875 79.777344 93.21875 79.839844 C 93.21875 79.929688 93.015625 79.929688 92.960938 79.929688 C 92.910156 79.929688 92.796875 79.722656 92.617188 79.304688 C 92.25 78.425781 91.128906 77.816406 90.007812 77.816406 C 87.574219 77.816406 86.183594 79.816406 86.183594 82.105469 C 86.183594 84.199219 87.867188 86.171875 90.007812 86.171875 C 90.757812 86.171875 91.726562 85.90625 92.238281 85.496094 C 92.632812 85.179688 92.796875 84.605469 92.949219 84.132812 C 92.960938 84.105469 93.039062 84.105469 93.101562 84.105469 C 93.203125 84.105469 93.394531 84.121094 93.359375 84.300781 L 93.066406 85.980469 "/>
<path style=" stroke:none;fill-rule:nonzero;fill:rgb(13.729858%,12.159729%,12.548828%);fill-opacity:1;" d="M 98.71875 85.128906 C 98.71875 86.070312 99.355469 86.070312 100.144531 86.070312 L 100.222656 86.132812 L 100.222656 86.335938 C 100.222656 86.492188 100.160156 86.492188 99.953125 86.492188 C 99.699219 86.492188 99.078125 86.425781 98.183594 86.425781 C 97.484375 86.425781 96.386719 86.492188 96.082031 86.492188 C 96.054688 86.402344 96.03125 86.335938 96.03125 86.261719 C 96.03125 86.222656 96.042969 86.148438 96.082031 86.121094 L 96.210938 86.070312 L 96.363281 86.070312 C 97.519531 86.070312 97.574219 85.675781 97.574219 84.617188 L 97.574219 78.578125 L 97.535156 77.992188 L 95.828125 77.992188 C 94.859375 77.992188 94.707031 78.605469 94.464844 79.417969 C 94.4375 79.496094 94.386719 79.535156 94.3125 79.535156 C 94.132812 79.535156 94.019531 79.480469 94.019531 79.40625 C 94.019531 79.191406 94.171875 78.007812 94.171875 77 C 94.171875 76.949219 94.347656 76.949219 94.527344 76.949219 C 94.933594 77.496094 95.0625 77.496094 95.609375 77.496094 L 100.351562 77.496094 C 101.242188 77.496094 101.496094 77.226562 101.8125 76.835938 C 101.902344 76.835938 102.195312 76.835938 102.195312 76.949219 C 102.195312 77.050781 101.941406 78.09375 101.914062 79.011719 C 101.914062 79.152344 101.878906 79.417969 101.8125 79.417969 C 101.699219 79.417969 101.40625 79.355469 101.40625 79.292969 L 101.355469 78.65625 C 101.304688 78.007812 101 77.992188 100.476562 77.992188 L 98.71875 77.992188 L 98.71875 85.128906 "/>
<path style=" stroke:none;fill-rule:nonzero;fill:rgb(13.729858%,12.159729%,12.548828%);fill-opacity:1;" d="M 105.277344 84.132812 C 105.277344 85.992188 105.316406 86.007812 106.5625 86.070312 L 106.628906 86.160156 L 106.628906 86.402344 C 106.628906 86.476562 106.4375 86.492188 106.324219 86.492188 C 106.144531 86.492188 105.289062 86.425781 104.769531 86.425781 C 104.15625 86.425781 103.53125 86.492188 102.871094 86.492188 C 102.820312 86.464844 102.804688 86.390625 102.804688 86.261719 C 102.820312 86.09375 102.84375 86.070312 103.214844 86.070312 C 104.09375 86.070312 104.132812 85.878906 104.132812 84.910156 L 104.132812 78.820312 C 104.132812 78.09375 103.914062 77.914062 102.84375 77.914062 L 102.804688 77.851562 L 102.78125 77.648438 C 102.792969 77.507812 102.910156 77.496094 102.984375 77.496094 C 103.328125 77.496094 103.738281 77.558594 104.601562 77.558594 C 105.238281 77.558594 106.003906 77.496094 106.515625 77.496094 L 106.578125 77.585938 L 106.578125 77.816406 L 106.527344 77.890625 L 106.183594 77.914062 C 105.671875 77.953125 105.277344 78.007812 105.277344 78.59375 L 105.277344 84.132812 "/>
<path style=" stroke:none;fill-rule:nonzero;fill:rgb(13.729858%,12.159729%,12.548828%);fill-opacity:1;" d="M 116.347656 82.054688 C 116.347656 79.914062 114.882812 77.738281 112.589844 77.738281 C 110.230469 77.738281 109.097656 79.585938 109.097656 81.738281 C 109.097656 83.914062 110.425781 86.171875 112.792969 86.171875 C 115.136719 86.171875 116.347656 84.246094 116.347656 82.054688 Z M 107.734375 82.15625 C 107.734375 79.496094 110.015625 77.316406 112.652344 77.316406 C 115.328125 77.316406 117.710938 79.152344 117.710938 81.800781 C 117.710938 84.363281 115.238281 86.667969 112.703125 86.667969 C 110.042969 86.667969 107.734375 84.9375 107.734375 82.15625 "/>
<path style=" stroke:none;fill-rule:nonzero;fill:rgb(13.729858%,12.159729%,12.548828%);fill-opacity:1;" d="M 120.203125 79.0625 C 120.203125 78.808594 120.191406 78.746094 120.140625 78.644531 C 120.027344 78.425781 119.464844 77.96875 119.25 77.953125 L 118.574219 77.914062 C 118.523438 77.914062 118.511719 77.789062 118.511719 77.6875 C 118.511719 77.625 118.511719 77.523438 118.574219 77.523438 C 118.96875 77.523438 119.277344 77.496094 119.59375 77.496094 C 120.179688 77.496094 121.109375 77.546875 121.339844 77.574219 L 125.199219 82.234375 C 125.785156 82.949219 126.359375 83.613281 127.273438 84.527344 L 127.328125 84.527344 L 127.328125 78.921875 C 127.328125 78.082031 127.019531 77.953125 126.613281 77.941406 L 126.066406 77.914062 C 126.015625 77.914062 125.988281 77.789062 125.988281 77.699219 C 125.988281 77.625 126.027344 77.496094 126.101562 77.496094 C 126.382812 77.496094 127.046875 77.558594 127.671875 77.558594 C 128.242188 77.558594 128.855469 77.496094 129.210938 77.496094 C 129.277344 77.496094 129.289062 77.546875 129.289062 77.597656 L 129.289062 77.839844 C 129.289062 77.902344 129.261719 77.914062 129.175781 77.914062 L 128.84375 77.914062 C 127.964844 77.914062 127.964844 78.363281 127.964844 79.445312 L 127.964844 86.820312 L 127.65625 86.820312 L 120.777344 78.960938 L 120.777344 84.808594 C 120.777344 85.90625 120.929688 86.03125 122.027344 86.070312 C 122.078125 86.070312 122.117188 86.183594 122.117188 86.285156 C 122.117188 86.390625 122.101562 86.492188 122.066406 86.492188 C 121.824219 86.492188 121.007812 86.425781 120.472656 86.425781 C 119.847656 86.425781 119.566406 86.492188 118.980469 86.492188 C 118.90625 86.492188 118.890625 86.402344 118.890625 86.234375 C 118.890625 86.121094 118.90625 86.070312 119.058594 86.070312 C 119.59375 86.070312 120.203125 85.941406 120.203125 85.292969 L 120.203125 79.0625 "/>
<path style=" stroke:none;fill-rule:nonzero;fill:rgb(13.729858%,12.159729%,12.548828%);fill-opacity:1;" d="M 131.351562 81.851562 C 130.433594 81.304688 130.0625 80.796875 130.0625 79.800781 C 130.0625 78.210938 131.363281 77.316406 133.082031 77.316406 C 133.566406 77.316406 134.253906 77.480469 134.6875 77.675781 L 134.777344 79.332031 C 134.777344 79.394531 134.648438 79.417969 134.472656 79.417969 C 134.304688 79.417969 134.28125 79.34375 134.265625 79.214844 C 134.179688 78.363281 133.566406 77.816406 132.664062 77.816406 C 131.796875 77.816406 131.121094 78.425781 131.121094 79.242188 C 131.121094 80.15625 131.679688 80.515625 132.953125 81.191406 C 134.21875 81.851562 135.3125 82.4375 135.3125 84.03125 C 135.3125 85.765625 133.746094 86.667969 132.152344 86.667969 C 131.632812 86.667969 130.765625 86.503906 130.28125 86.300781 C 130.179688 86.246094 130.140625 86.082031 130.101562 85.804688 L 129.949219 84.605469 C 129.949219 84.527344 130.203125 84.527344 130.28125 84.527344 C 130.316406 84.527344 130.355469 84.554688 130.382812 84.644531 C 130.675781 85.613281 131.335938 86.171875 132.355469 86.171875 C 133.25 86.171875 134.101562 85.394531 134.101562 84.527344 C 134.101562 83.699219 133.632812 83.203125 132.96875 82.808594 L 131.351562 81.851562 "/>
<path style=" stroke:none;fill-rule:nonzero;fill:rgb(13.729858%,12.159729%,12.548828%);fill-opacity:1;" d="M 148.039062 82.054688 C 148.039062 79.914062 146.574219 77.738281 144.28125 77.738281 C 141.921875 77.738281 140.789062 79.585938 140.789062 81.738281 C 140.789062 83.914062 142.113281 86.171875 144.484375 86.171875 C 146.828125 86.171875 148.039062 84.246094 148.039062 82.054688 Z M 139.425781 82.15625 C 139.425781 79.496094 141.707031 77.316406 144.34375 77.316406 C 147.019531 77.316406 149.402344 79.152344 149.402344 81.800781 C 149.402344 84.363281 146.929688 86.667969 144.394531 86.667969 C 141.734375 86.667969 139.425781 84.9375 139.425781 82.15625 "/>
<path style=" stroke:none;fill-rule:nonzero;fill:rgb(13.729858%,12.159729%,12.548828%);fill-opacity:1;" d="M 151.742188 78.921875 C 151.742188 78.144531 151.617188 77.980469 150.863281 77.980469 L 150.648438 77.980469 C 150.417969 77.992188 150.316406 77.953125 150.316406 77.878906 C 150.316406 77.777344 150.316406 77.558594 150.457031 77.558594 L 155.679688 77.558594 C 156.113281 77.558594 156.546875 77.496094 156.992188 77.496094 C 157.066406 77.496094 157.171875 77.507812 157.171875 77.609375 L 157.222656 79.050781 C 157.222656 79.140625 157.234375 79.226562 157.234375 79.316406 C 157.234375 79.367188 157.132812 79.394531 157.003906 79.394531 L 156.8125 79.394531 C 156.789062 79.242188 156.761719 79.089844 156.722656 78.949219 L 156.609375 78.554688 C 156.46875 78.058594 156.101562 77.980469 155.703125 77.980469 L 153.921875 77.980469 C 152.980469 77.980469 152.890625 78.273438 152.890625 79.203125 L 152.890625 81.445312 L 154.773438 81.445312 C 155.871094 81.445312 156.136719 81.140625 156.136719 80.441406 C 156.265625 80.414062 156.394531 80.375 156.480469 80.375 C 156.535156 80.375 156.558594 80.402344 156.558594 80.464844 C 156.558594 80.566406 156.507812 80.757812 156.507812 81.6875 C 156.507812 82.054688 156.558594 82.71875 156.558594 83 C 156.558594 83.113281 156.46875 83.164062 156.328125 83.164062 C 156.226562 83.164062 156.191406 83.050781 156.136719 82.84375 C 156.050781 82.324219 155.792969 81.867188 154.710938 81.867188 L 152.890625 81.867188 L 152.890625 85.203125 C 152.890625 85.699219 152.953125 85.96875 153.601562 86.019531 L 154.265625 86.070312 C 154.328125 86.070312 154.355469 86.148438 154.355469 86.234375 C 154.355469 86.335938 154.355469 86.492188 154.214844 86.492188 C 153.257812 86.492188 152.851562 86.425781 152.253906 86.425781 C 151.730469 86.425781 150.789062 86.492188 150.445312 86.492188 C 150.34375 86.492188 150.34375 86.363281 150.34375 86.261719 C 150.34375 86.183594 150.355469 86.070312 150.40625 86.070312 L 150.96875 86.03125 C 151.640625 85.980469 151.742188 85.828125 151.742188 85.074219 L 151.742188 78.921875 "/>
<path style=" stroke:none;fill-rule:nonzero;fill:rgb(13.729858%,12.159729%,12.548828%);fill-opacity:1;" d="M 165.511719 85.128906 C 165.511719 86.070312 166.148438 86.070312 166.941406 86.070312 L 167.015625 86.132812 L 167.015625 86.335938 C 167.015625 86.492188 166.953125 86.492188 166.746094 86.492188 C 166.492188 86.492188 165.871094 86.425781 164.976562 86.425781 C 164.277344 86.425781 163.183594 86.492188 162.875 86.492188 C 162.851562 86.402344 162.824219 86.335938 162.824219 86.261719 C 162.824219 86.222656 162.839844 86.148438 162.875 86.121094 L 163.003906 86.070312 L 163.15625 86.070312 C 164.316406 86.070312 164.367188 85.675781 164.367188 84.617188 L 164.367188 78.578125 L 164.328125 77.992188 L 162.621094 77.992188 C 161.652344 77.992188 161.5 78.605469 161.257812 79.417969 C 161.234375 79.496094 161.179688 79.535156 161.105469 79.535156 C 160.925781 79.535156 160.8125 79.480469 160.8125 79.40625 C 160.8125 79.191406 160.964844 78.007812 160.964844 77 C 160.964844 76.949219 161.144531 76.949219 161.320312 76.949219 C 161.730469 77.496094 161.855469 77.496094 162.40625 77.496094 L 167.144531 77.496094 C 168.035156 77.496094 168.289062 77.226562 168.609375 76.835938 C 168.699219 76.835938 168.992188 76.835938 168.992188 76.949219 C 168.992188 77.050781 168.734375 78.09375 168.710938 79.011719 C 168.710938 79.152344 168.671875 79.417969 168.609375 79.417969 C 168.492188 79.417969 168.199219 79.355469 168.199219 79.292969 L 168.148438 78.65625 C 168.097656 78.007812 167.792969 77.992188 167.269531 77.992188 L 165.511719 77.992188 L 165.511719 85.128906 "/>
<path style=" stroke:none;fill-rule:nonzero;fill:rgb(13.729858%,12.159729%,12.548828%);fill-opacity:1;" d="M 170.796875 78.960938 C 170.796875 78.363281 170.707031 77.929688 169.589844 77.914062 L 169.523438 77.816406 L 169.523438 77.597656 C 169.523438 77.507812 169.636719 77.496094 169.742188 77.496094 C 170.121094 77.496094 170.875 77.558594 171.433594 77.558594 C 171.945312 77.558594 172.453125 77.496094 173.015625 77.496094 C 173.28125 77.496094 173.347656 77.496094 173.347656 77.636719 L 173.347656 77.839844 C 173.347656 77.902344 173.191406 77.914062 172.988281 77.914062 C 172.46875 77.914062 171.945312 77.953125 171.945312 78.578125 L 171.945312 81.445312 L 177.410156 81.445312 L 177.410156 79.0625 C 177.410156 78.183594 177.410156 77.992188 176.378906 77.914062 C 176.238281 77.902344 176.214844 77.863281 176.214844 77.710938 L 176.214844 77.558594 L 176.277344 77.496094 C 176.695312 77.523438 177.5 77.558594 178.289062 77.558594 C 179.105469 77.558594 179.433594 77.535156 179.804688 77.496094 L 179.855469 77.574219 L 179.855469 77.816406 C 179.855469 77.914062 179.742188 77.914062 179.550781 77.914062 C 178.886719 77.914062 178.554688 78.03125 178.554688 78.769531 L 178.554688 85.074219 C 178.554688 85.992188 179.054688 86.070312 179.777344 86.070312 C 179.832031 86.070312 179.832031 86.261719 179.832031 86.402344 C 179.832031 86.453125 179.777344 86.492188 179.433594 86.492188 C 178.925781 86.492188 178.417969 86.425781 177.90625 86.425781 C 177.433594 86.425781 176.644531 86.492188 176.492188 86.492188 C 176.160156 86.492188 176.097656 86.464844 176.097656 86.414062 L 176.097656 86.132812 L 176.160156 86.070312 C 177.386719 86.070312 177.410156 85.816406 177.410156 84.921875 L 177.410156 81.941406 L 171.945312 81.941406 L 171.945312 85.164062 C 171.945312 85.890625 172.136719 86.070312 173.078125 86.070312 C 173.21875 86.070312 173.257812 86.09375 173.257812 86.210938 L 173.257812 86.402344 C 173.257812 86.476562 173.128906 86.492188 172.847656 86.492188 C 172.324219 86.492188 171.804688 86.425781 171.28125 86.425781 C 170.796875 86.425781 170.300781 86.492188 169.816406 86.492188 C 169.726562 86.492188 169.613281 86.492188 169.550781 86.414062 L 169.550781 86.132812 L 169.636719 86.070312 C 170.238281 86.070312 170.796875 86.019531 170.796875 85.371094 L 170.796875 78.960938 "/>
<path style=" stroke:none;fill-rule:nonzero;fill:rgb(13.729858%,12.159729%,12.548828%);fill-opacity:1;" d="M 182.132812 78.792969 C 182.132812 77.96875 181.511719 77.878906 180.769531 77.878906 C 180.71875 77.878906 180.71875 77.816406 180.71875 77.765625 L 180.71875 77.625 C 180.71875 77.507812 180.9375 77.496094 181.382812 77.496094 C 181.890625 77.496094 182.464844 77.558594 183 77.558594 C 183.511719 77.558594 184.019531 77.496094 184.527344 77.496094 L 187.21875 77.496094 C 187.320312 77.496094 187.332031 77.609375 187.332031 77.75 L 187.332031 79.304688 C 187.332031 79.355469 187.304688 79.40625 187.242188 79.40625 C 187.140625 79.40625 186.9375 79.417969 186.925781 79.265625 L 186.886719 78.871094 C 186.808594 78.058594 186.25 77.914062 185.535156 77.914062 L 184.222656 77.914062 C 183.511719 77.914062 183.28125 78.070312 183.28125 79.039062 L 183.28125 81.34375 C 183.28125 81.382812 183.355469 81.445312 183.382812 81.445312 L 184.886719 81.394531 C 185.652344 81.371094 185.867188 81.125 186.058594 80.453125 C 186.082031 80.375 186.121094 80.347656 186.261719 80.347656 C 186.351562 80.347656 186.414062 80.363281 186.414062 80.425781 C 186.414062 80.695312 186.339844 81.28125 186.339844 81.699219 C 186.339844 82.386719 186.414062 82.757812 186.414062 82.972656 C 186.414062 83.050781 186.285156 83.128906 186.210938 83.128906 C 186.109375 83.128906 186.019531 83.089844 185.996094 82.960938 C 185.929688 82.617188 185.929688 82.375 185.867188 82.199219 C 185.804688 82.007812 185.652344 81.914062 185.269531 81.902344 L 183.460938 81.867188 C 183.28125 81.867188 183.28125 81.929688 183.28125 82.019531 L 183.28125 85.050781 C 183.28125 85.96875 183.957031 85.992188 184.835938 85.992188 L 185.523438 85.992188 C 186.199219 85.992188 186.667969 85.980469 186.988281 85.789062 C 187.269531 85.625 187.664062 84.84375 187.804688 84.527344 C 187.96875 84.527344 188.183594 84.566406 188.183594 84.65625 C 188.183594 84.695312 188.148438 84.796875 188.121094 84.859375 L 187.765625 86.148438 C 187.664062 86.492188 187.597656 86.492188 187.433594 86.492188 C 186.058594 86.492188 184.707031 86.425781 182.859375 86.425781 C 182.441406 86.425781 181.371094 86.492188 180.71875 86.492188 C 180.683594 86.492188 180.644531 86.363281 180.644531 86.285156 C 180.644531 86.183594 180.667969 86.070312 180.71875 86.070312 C 181.828125 86.019531 182.132812 85.90625 182.132812 84.730469 L 182.132812 78.792969 "/>
</g>
</svg>
