<?xml version="1.0" encoding="UTF-8"?>
<svg xmlns="http://www.w3.org/2000/svg" xmlns:xlink="http://www.w3.org/1999/xlink" width="243pt" height="104pt" viewBox="0 0 243 104" version="1.1">
<g id="surface1">
<rect x="0" y="0" width="243" height="104" style="fill:rgb(100%,100%,100%);fill-opacity:1;stroke:none;"/>
<path style=" stroke:none;fill-rule:nonzero;fill:rgb(13.729858%,12.159729%,12.548828%);fill-opacity:1;" d="M 63.441406 30 L 63.441406 21.789062 L 64.988281 21.789062 C 65.652344 21.789062 66.234375 21.859375 66.730469 22.003906 C 67.226562 22.144531 67.640625 22.371094 67.96875 22.679688 C 68.296875 22.992188 68.539062 23.394531 68.699219 23.890625 C 68.859375 24.386719 68.9375 24.984375 68.9375 25.691406 C 68.9375 26.445312 68.84375 27.09375 68.652344 27.636719 C 68.460938 28.179688 68.191406 28.628906 67.84375 28.976562 C 67.492188 29.324219 67.066406 29.582031 66.5625 29.75 C 66.058594 29.917969 65.496094 30 64.867188 30 Z M 64.476562 22.609375 L 64.476562 29.144531 L 64.867188 29.144531 C 65.34375 29.144531 65.765625 29.082031 66.128906 28.957031 C 66.496094 28.835938 66.804688 28.636719 67.058594 28.363281 C 67.3125 28.089844 67.503906 27.734375 67.636719 27.292969 C 67.765625 26.851562 67.832031 26.320312 67.832031 25.691406 C 67.832031 25.113281 67.769531 24.628906 67.640625 24.234375 C 67.515625 23.84375 67.328125 23.523438 67.085938 23.28125 C 66.84375 23.039062 66.546875 22.867188 66.195312 22.765625 C 65.84375 22.660156 65.441406 22.609375 64.988281 22.609375 Z M 71.199219 30 L 70.234375 30 L 70.234375 24.289062 L 71.199219 24.289062 Z M 70.722656 22.90625 C 70.523438 22.90625 70.367188 22.84375 70.246094 22.71875 C 70.128906 22.589844 70.070312 22.421875 70.070312 22.21875 C 70.070312 22.019531 70.128906 21.855469 70.246094 21.730469 C 70.367188 21.601562 70.523438 21.539062 70.722656 21.539062 C 70.914062 21.539062 71.066406 21.601562 71.1875 21.730469 C 71.304688 21.855469 71.367188 22.019531 71.367188 22.21875 C 71.367188 22.421875 71.304688 22.589844 71.1875 22.71875 C 71.066406 22.84375 70.914062 22.90625 70.722656 22.90625 Z M 76.339844 26.214844 C 76.339844 26.460938 76.332031 26.671875 76.316406 26.851562 C 76.300781 27.03125 76.285156 27.1875 76.269531 27.324219 L 73.351562 27.324219 C 73.382812 27.996094 73.53125 28.492188 73.785156 28.808594 C 74.042969 29.128906 74.414062 29.285156 74.898438 29.285156 C 75.066406 29.285156 75.21875 29.265625 75.351562 29.226562 C 75.488281 29.1875 75.605469 29.140625 75.703125 29.082031 C 75.800781 29.027344 75.886719 28.972656 75.953125 28.917969 C 76.019531 28.863281 76.070312 28.816406 76.101562 28.785156 L 76.457031 29.464844 C 76.417969 29.503906 76.359375 29.5625 76.28125 29.636719 C 76.199219 29.710938 76.09375 29.789062 75.960938 29.863281 C 75.824219 29.9375 75.65625 30.003906 75.460938 30.058594 C 75.261719 30.113281 75.027344 30.144531 74.757812 30.144531 C 74.398438 30.144531 74.078125 30.082031 73.785156 29.964844 C 73.496094 29.84375 73.25 29.660156 73.050781 29.410156 C 72.847656 29.160156 72.691406 28.84375 72.578125 28.460938 C 72.46875 28.074219 72.414062 27.613281 72.414062 27.074219 C 72.414062 26.566406 72.46875 26.125 72.585938 25.757812 C 72.699219 25.390625 72.855469 25.085938 73.054688 24.847656 C 73.253906 24.609375 73.484375 24.433594 73.746094 24.316406 C 74.007812 24.203125 74.289062 24.144531 74.589844 24.144531 C 75.136719 24.144531 75.566406 24.316406 75.875 24.664062 C 76.183594 25.007812 76.339844 25.527344 76.339844 26.214844 Z M 74.53125 24.929688 C 74.191406 24.929688 73.914062 25.074219 73.710938 25.359375 C 73.503906 25.644531 73.382812 26.058594 73.351562 26.597656 L 75.433594 26.597656 C 75.445312 26.558594 75.449219 26.5 75.453125 26.421875 C 75.457031 26.347656 75.460938 26.269531 75.460938 26.179688 C 75.460938 25.78125 75.378906 25.476562 75.222656 25.257812 C 75.0625 25.039062 74.832031 24.929688 74.53125 24.929688 Z M 84.65625 23.882812 C 84.65625 24.167969 84.621094 24.417969 84.550781 24.632812 C 84.480469 24.847656 84.382812 25.03125 84.257812 25.1875 C 84.136719 25.339844 83.992188 25.464844 83.832031 25.5625 C 83.667969 25.65625 83.5 25.726562 83.324219 25.777344 L 83.324219 25.800781 C 83.539062 25.839844 83.738281 25.914062 83.925781 26.027344 C 84.113281 26.136719 84.273438 26.277344 84.414062 26.441406 C 84.550781 26.609375 84.664062 26.804688 84.746094 27.03125 C 84.832031 27.257812 84.871094 27.503906 84.871094 27.773438 C 84.871094 28.101562 84.816406 28.398438 84.707031 28.667969 C 84.59375 28.9375 84.421875 29.171875 84.1875 29.367188 C 83.953125 29.566406 83.65625 29.722656 83.300781 29.832031 C 82.945312 29.945312 82.519531 30 82.027344 30 L 80.351562 30 L 80.351562 21.789062 L 81.933594 21.789062 C 82.417969 21.789062 82.832031 21.839844 83.175781 21.9375 C 83.523438 22.035156 83.804688 22.175781 84.027344 22.359375 C 84.25 22.542969 84.410156 22.761719 84.507812 23.019531 C 84.609375 23.277344 84.65625 23.566406 84.65625 23.882812 Z M 83.609375 23.917969 C 83.609375 23.539062 83.476562 23.226562 83.207031 22.980469 C 82.9375 22.734375 82.511719 22.609375 81.933594 22.609375 L 81.386719 22.609375 L 81.386719 25.441406 L 81.921875 25.441406 C 82.476562 25.441406 82.898438 25.308594 83.183594 25.039062 C 83.46875 24.769531 83.609375 24.394531 83.609375 23.917969 Z M 83.765625 27.703125 C 83.765625 27.257812 83.621094 26.90625 83.332031 26.648438 C 83.042969 26.390625 82.628906 26.261719 82.085938 26.261719 L 81.386719 26.261719 L 81.386719 29.144531 L 82.027344 29.144531 C 82.640625 29.144531 83.082031 29.023438 83.355469 28.78125 C 83.628906 28.539062 83.765625 28.179688 83.765625 27.703125 Z M 89.808594 26.214844 C 89.808594 26.460938 89.800781 26.671875 89.785156 26.851562 C 89.769531 27.03125 89.753906 27.1875 89.738281 27.324219 L 86.824219 27.324219 C 86.855469 27.996094 87 28.492188 87.257812 28.808594 C 87.515625 29.128906 87.886719 29.285156 88.371094 29.285156 C 88.535156 29.285156 88.6875 29.265625 88.824219 29.226562 C 88.957031 29.1875 89.074219 29.140625 89.171875 29.082031 C 89.273438 29.027344 89.355469 28.972656 89.421875 28.917969 C 89.492188 28.863281 89.539062 28.816406 89.574219 28.785156 L 89.929688 29.464844 C 89.890625 29.503906 89.832031 29.5625 89.75 29.636719 C 89.671875 29.710938 89.566406 29.789062 89.429688 29.863281 C 89.292969 29.9375 89.128906 30.003906 88.929688 30.058594 C 88.730469 30.113281 88.496094 30.144531 88.226562 30.144531 C 87.871094 30.144531 87.546875 30.082031 87.257812 29.964844 C 86.96875 29.84375 86.722656 29.660156 86.519531 29.410156 C 86.316406 29.160156 86.160156 28.84375 86.050781 28.460938 C 85.9375 28.074219 85.882812 27.613281 85.882812 27.074219 C 85.882812 26.566406 85.941406 26.125 86.054688 25.757812 C 86.171875 25.390625 86.328125 25.085938 86.527344 24.847656 C 86.722656 24.609375 86.953125 24.433594 87.214844 24.316406 C 87.476562 24.203125 87.761719 24.144531 88.0625 24.144531 C 88.609375 24.144531 89.035156 24.316406 89.347656 24.664062 C 89.65625 25.007812 89.808594 25.527344 89.808594 26.214844 Z M 88 24.929688 C 87.660156 24.929688 87.386719 25.074219 87.179688 25.359375 C 86.972656 25.644531 86.855469 26.058594 86.824219 26.597656 L 88.90625 26.597656 C 88.914062 26.558594 88.917969 26.5 88.921875 26.421875 C 88.925781 26.347656 88.929688 26.269531 88.929688 26.179688 C 88.929688 25.78125 88.851562 25.476562 88.691406 25.257812 C 88.53125 25.039062 88.304688 24.929688 88 24.929688 Z M 90.761719 28.546875 C 90.761719 28.214844 90.828125 27.9375 90.953125 27.714844 C 91.078125 27.492188 91.25 27.3125 91.464844 27.171875 C 91.679688 27.035156 91.929688 26.933594 92.21875 26.875 C 92.511719 26.816406 92.816406 26.785156 93.144531 26.785156 L 93.441406 26.785156 L 93.441406 26.238281 C 93.441406 25.757812 93.355469 25.421875 93.183594 25.238281 C 93.015625 25.058594 92.773438 24.964844 92.464844 24.964844 C 92.179688 24.964844 91.941406 25.027344 91.75 25.152344 C 91.558594 25.273438 91.410156 25.382812 91.296875 25.476562 L 90.894531 24.835938 C 90.957031 24.773438 91.039062 24.699219 91.136719 24.621094 C 91.234375 24.542969 91.355469 24.464844 91.5 24.394531 C 91.644531 24.324219 91.804688 24.265625 91.988281 24.214844 C 92.171875 24.167969 92.378906 24.144531 92.605469 24.144531 C 93.195312 24.144531 93.636719 24.308594 93.941406 24.632812 C 94.242188 24.957031 94.390625 25.480469 94.390625 26.203125 L 94.390625 28.808594 C 94.390625 29.054688 94.398438 29.296875 94.414062 29.53125 C 94.429688 29.765625 94.449219 29.921875 94.464844 30 L 93.546875 30 L 93.511719 29.367188 L 93.488281 29.367188 C 93.457031 29.441406 93.40625 29.523438 93.34375 29.613281 C 93.28125 29.703125 93.203125 29.789062 93.105469 29.863281 C 93.011719 29.9375 92.898438 30.003906 92.761719 30.058594 C 92.628906 30.113281 92.46875 30.144531 92.285156 30.144531 C 92.070312 30.144531 91.871094 30.101562 91.683594 30.023438 C 91.5 29.945312 91.335938 29.832031 91.195312 29.691406 C 91.058594 29.546875 90.949219 29.378906 90.875 29.183594 C 90.800781 28.992188 90.761719 28.777344 90.761719 28.546875 Z M 92.488281 29.320312 C 92.621094 29.320312 92.742188 29.300781 92.84375 29.261719 C 92.949219 29.222656 93.039062 29.175781 93.113281 29.121094 C 93.1875 29.0625 93.25 29.003906 93.304688 28.933594 C 93.355469 28.867188 93.402344 28.808594 93.441406 28.761719 L 93.441406 27.5 L 93.128906 27.511719 C 92.671875 27.527344 92.320312 27.609375 92.082031 27.75 C 91.84375 27.894531 91.726562 28.125 91.726562 28.441406 C 91.726562 28.734375 91.792969 28.953125 91.929688 29.101562 C 92.0625 29.25 92.25 29.320312 92.488281 29.320312 Z M 99.84375 30 L 98.960938 30 L 98.960938 29.355469 L 98.9375 29.355469 C 98.914062 29.40625 98.863281 29.472656 98.78125 29.566406 C 98.703125 29.65625 98.601562 29.742188 98.480469 29.828125 C 98.355469 29.910156 98.207031 29.984375 98.035156 30.046875 C 97.859375 30.109375 97.664062 30.144531 97.449219 30.144531 C 97.195312 30.144531 96.96875 30.105469 96.765625 30.03125 C 96.5625 29.953125 96.390625 29.832031 96.25 29.667969 C 96.105469 29.5 95.996094 29.285156 95.921875 29.019531 C 95.84375 28.753906 95.808594 28.425781 95.808594 28.035156 L 95.808594 24.289062 L 96.773438 24.289062 L 96.773438 27.964844 C 96.773438 28.441406 96.847656 28.78125 97.003906 28.980469 C 97.160156 29.183594 97.398438 29.285156 97.722656 29.285156 C 98 29.285156 98.234375 29.214844 98.425781 29.078125 C 98.617188 28.9375 98.765625 28.800781 98.878906 28.667969 L 98.878906 24.289062 L 99.84375 24.289062 Z M 103.722656 25.074219 L 102.554688 25.074219 L 102.554688 30 L 101.589844 30 L 101.589844 25.074219 L 100.902344 25.074219 L 100.902344 24.429688 L 101.589844 24.300781 L 101.589844 23.15625 C 101.589844 22.847656 101.636719 22.582031 101.722656 22.359375 C 101.808594 22.136719 101.925781 21.957031 102.066406 21.8125 C 102.210938 21.667969 102.378906 21.566406 102.566406 21.503906 C 102.757812 21.441406 102.960938 21.40625 103.175781 21.40625 C 103.378906 21.40625 103.554688 21.4375 103.699219 21.492188 C 103.839844 21.546875 103.9375 21.589844 103.984375 21.621094 L 103.78125 22.417969 C 103.734375 22.386719 103.664062 22.355469 103.578125 22.320312 C 103.492188 22.28125 103.382812 22.265625 103.257812 22.265625 C 103.027344 22.265625 102.851562 22.335938 102.734375 22.480469 C 102.613281 22.621094 102.554688 22.882812 102.554688 23.265625 L 102.554688 24.289062 L 103.839844 24.289062 Z M 107.113281 25.074219 L 105.863281 25.074219 L 105.863281 28.238281 C 105.863281 28.644531 105.914062 28.917969 106.019531 29.066406 C 106.121094 29.210938 106.296875 29.285156 106.542969 29.285156 C 106.683594 29.285156 106.808594 29.265625 106.910156 29.226562 C 107.015625 29.1875 107.089844 29.152344 107.136719 29.121094 L 107.269531 29.894531 C 107.226562 29.925781 107.132812 29.972656 106.980469 30.042969 C 106.832031 30.109375 106.628906 30.144531 106.375 30.144531 C 105.882812 30.144531 105.515625 30.007812 105.269531 29.730469 C 105.023438 29.457031 104.898438 29.003906 104.898438 28.371094 L 104.898438 25.074219 L 104.210938 25.074219 L 104.210938 24.429688 L 104.898438 24.289062 L 105.007812 22.695312 L 105.863281 22.695312 L 105.863281 24.289062 L 107.230469 24.289062 Z M 110.71875 25.132812 C 110.695312 25.117188 110.644531 25.097656 110.5625 25.074219 C 110.484375 25.050781 110.378906 25.039062 110.242188 25.039062 C 109.941406 25.039062 109.703125 25.117188 109.535156 25.28125 C 109.363281 25.445312 109.242188 25.621094 109.171875 25.8125 L 109.171875 30 L 108.207031 30 L 108.207031 24.289062 L 109.089844 24.289062 L 109.089844 25.0625 L 109.113281 25.0625 C 109.152344 24.949219 109.203125 24.839844 109.265625 24.734375 C 109.328125 24.628906 109.410156 24.53125 109.503906 24.449219 C 109.601562 24.363281 109.714844 24.300781 109.84375 24.253906 C 109.976562 24.203125 110.132812 24.179688 110.3125 24.179688 C 110.449219 24.179688 110.558594 24.191406 110.640625 24.214844 C 110.726562 24.238281 110.789062 24.261719 110.839844 24.277344 Z M 111.277344 28.546875 C 111.277344 28.214844 111.34375 27.9375 111.46875 27.714844 C 111.59375 27.492188 111.765625 27.3125 111.980469 27.171875 C 112.195312 27.035156 112.445312 26.933594 112.734375 26.875 C 113.023438 26.816406 113.332031 26.785156 113.65625 26.785156 L 113.953125 26.785156 L 113.953125 26.238281 C 113.953125 25.757812 113.871094 25.421875 113.699219 25.238281 C 113.527344 25.058594 113.289062 24.964844 112.980469 24.964844 C 112.695312 24.964844 112.457031 25.027344 112.265625 25.152344 C 112.074219 25.273438 111.925781 25.382812 111.8125 25.476562 L 111.410156 24.835938 C 111.472656 24.773438 111.554688 24.699219 111.652344 24.621094 C 111.753906 24.542969 111.871094 24.464844 112.015625 24.394531 C 112.160156 24.324219 112.320312 24.265625 112.503906 24.214844 C 112.6875 24.167969 112.894531 24.144531 113.121094 24.144531 C 113.710938 24.144531 114.152344 24.308594 114.453125 24.632812 C 114.757812 24.957031 114.90625 25.480469 114.90625 26.203125 L 114.90625 28.808594 C 114.90625 29.054688 114.914062 29.296875 114.929688 29.53125 C 114.945312 29.765625 114.964844 29.921875 114.980469 30 L 114.0625 30 L 114.027344 29.367188 L 114.003906 29.367188 C 113.972656 29.441406 113.925781 29.523438 113.859375 29.613281 C 113.796875 29.703125 113.71875 29.789062 113.621094 29.863281 C 113.527344 29.9375 113.410156 30.003906 113.277344 30.058594 C 113.144531 30.113281 112.984375 30.144531 112.800781 30.144531 C 112.585938 30.144531 112.386719 30.101562 112.199219 30.023438 C 112.015625 29.945312 111.851562 29.832031 111.714844 29.691406 C 111.574219 29.546875 111.464844 29.378906 111.390625 29.183594 C 111.316406 28.992188 111.277344 28.777344 111.277344 28.546875 Z M 113.003906 29.320312 C 113.140625 29.320312 113.257812 29.300781 113.359375 29.261719 C 113.464844 29.222656 113.554688 29.175781 113.628906 29.121094 C 113.703125 29.0625 113.765625 29.003906 113.820312 28.933594 C 113.871094 28.867188 113.914062 28.808594 113.953125 28.761719 L 113.953125 27.5 L 113.644531 27.511719 C 113.1875 27.527344 112.835938 27.609375 112.597656 27.75 C 112.359375 27.894531 112.242188 28.125 112.242188 28.441406 C 112.242188 28.734375 112.308594 28.953125 112.445312 29.101562 C 112.578125 29.25 112.765625 29.320312 113.003906 29.320312 Z M 120.453125 25.039062 L 119.738281 25.039062 C 119.921875 25.339844 120.011719 25.679688 120.011719 26.0625 C 120.011719 26.363281 119.964844 26.632812 119.863281 26.875 C 119.765625 27.117188 119.625 27.324219 119.449219 27.488281 C 119.269531 27.65625 119.058594 27.78125 118.816406 27.871094 C 118.574219 27.957031 118.316406 28 118.039062 28 C 117.980469 28 117.929688 28 117.882812 28 C 117.835938 28 117.785156 27.996094 117.726562 27.988281 C 117.632812 28.027344 117.535156 28.09375 117.429688 28.179688 C 117.328125 28.265625 117.277344 28.382812 117.277344 28.523438 C 117.277344 28.644531 117.320312 28.742188 117.414062 28.816406 C 117.503906 28.890625 117.652344 28.929688 117.859375 28.929688 L 118.585938 28.929688 C 118.855469 28.929688 119.105469 28.957031 119.335938 29.011719 C 119.5625 29.066406 119.765625 29.15625 119.9375 29.28125 C 120.105469 29.402344 120.238281 29.558594 120.335938 29.75 C 120.429688 29.941406 120.476562 30.171875 120.476562 30.441406 C 120.476562 30.75 120.410156 31.03125 120.28125 31.285156 C 120.148438 31.539062 119.964844 31.757812 119.726562 31.941406 C 119.488281 32.121094 119.199219 32.265625 118.859375 32.367188 C 118.515625 32.472656 118.136719 32.523438 117.714844 32.523438 C 117.105469 32.523438 116.640625 32.390625 116.324219 32.125 C 116.007812 31.859375 115.847656 31.476562 115.847656 30.976562 C 115.847656 30.761719 115.886719 30.578125 115.960938 30.421875 C 116.035156 30.269531 116.125 30.132812 116.230469 30.019531 C 116.332031 29.902344 116.4375 29.8125 116.542969 29.742188 C 116.652344 29.675781 116.734375 29.621094 116.800781 29.582031 L 116.800781 29.558594 C 116.554688 29.378906 116.429688 29.109375 116.429688 28.761719 C 116.429688 28.613281 116.460938 28.480469 116.519531 28.371094 C 116.578125 28.257812 116.648438 28.167969 116.722656 28.097656 C 116.796875 28.023438 116.871094 27.96875 116.949219 27.921875 C 117.023438 27.878906 117.082031 27.851562 117.121094 27.835938 L 117.121094 27.808594 C 116.828125 27.675781 116.589844 27.464844 116.414062 27.171875 C 116.234375 26.882812 116.144531 26.511719 116.144531 26.0625 C 116.144531 25.742188 116.195312 25.464844 116.300781 25.222656 C 116.402344 24.980469 116.542969 24.78125 116.714844 24.621094 C 116.890625 24.460938 117.09375 24.34375 117.328125 24.265625 C 117.5625 24.183594 117.816406 24.144531 118.085938 24.144531 C 118.355469 24.144531 118.609375 24.191406 118.847656 24.289062 L 120.585938 24.289062 Z M 117.800781 29.820312 C 117.632812 29.820312 117.484375 29.808594 117.359375 29.785156 C 117.289062 29.824219 117.21875 29.871094 117.152344 29.929688 C 117.082031 29.984375 117.023438 30.050781 116.964844 30.132812 C 116.910156 30.210938 116.863281 30.304688 116.828125 30.410156 C 116.792969 30.519531 116.777344 30.644531 116.777344 30.785156 C 116.777344 31.398438 117.113281 31.703125 117.789062 31.703125 C 118.367188 31.703125 118.796875 31.589844 119.074219 31.363281 C 119.351562 31.136719 119.488281 30.875 119.488281 30.582031 C 119.488281 30.304688 119.402344 30.109375 119.226562 29.992188 C 119.054688 29.878906 118.820312 29.820312 118.523438 29.820312 Z M 119.074219 26.0625 C 119.074219 25.648438 118.976562 25.355469 118.78125 25.179688 C 118.585938 25.007812 118.359375 24.917969 118.097656 24.917969 C 117.820312 24.917969 117.582031 25.007812 117.382812 25.179688 C 117.183594 25.355469 117.085938 25.648438 117.085938 26.0625 C 117.085938 26.472656 117.183594 26.765625 117.382812 26.941406 C 117.582031 27.117188 117.8125 27.203125 118.074219 27.203125 C 118.351562 27.203125 118.585938 27.117188 118.78125 26.941406 C 118.976562 26.765625 119.074219 26.472656 119.074219 26.0625 Z M 123.988281 25.074219 L 122.738281 25.074219 L 122.738281 28.238281 C 122.738281 28.644531 122.789062 28.917969 122.894531 29.066406 C 122.996094 29.210938 123.171875 29.285156 123.414062 29.285156 C 123.558594 29.285156 123.683594 29.265625 123.785156 29.226562 C 123.886719 29.1875 123.964844 29.152344 124.011719 29.121094 L 124.140625 29.894531 C 124.101562 29.925781 124.007812 29.972656 123.855469 30.042969 C 123.707031 30.109375 123.503906 30.144531 123.25 30.144531 C 122.757812 30.144531 122.390625 30.007812 122.144531 29.730469 C 121.898438 29.457031 121.773438 29.003906 121.773438 28.371094 L 121.773438 25.074219 L 121.085938 25.074219 L 121.085938 24.429688 L 121.773438 24.289062 L 121.882812 22.695312 L 122.738281 22.695312 L 122.738281 24.289062 L 124.105469 24.289062 Z M 128.664062 26.214844 C 128.664062 26.460938 128.65625 26.671875 128.640625 26.851562 C 128.625 27.03125 128.609375 27.1875 128.59375 27.324219 L 125.675781 27.324219 C 125.710938 27.996094 125.855469 28.492188 126.109375 28.808594 C 126.367188 29.128906 126.738281 29.285156 127.222656 29.285156 C 127.390625 29.285156 127.539062 29.265625 127.675781 29.226562 C 127.8125 29.1875 127.929688 29.140625 128.027344 29.082031 C 128.128906 29.027344 128.210938 28.972656 128.277344 28.917969 C 128.34375 28.863281 128.394531 28.816406 128.425781 28.785156 L 128.78125 29.464844 C 128.742188 29.503906 128.683594 29.5625 128.605469 29.636719 C 128.523438 29.710938 128.417969 29.789062 128.28125 29.863281 C 128.148438 29.9375 127.980469 30.003906 127.785156 30.058594 C 127.585938 30.113281 127.351562 30.144531 127.082031 30.144531 C 126.722656 30.144531 126.402344 30.082031 126.109375 29.964844 C 125.820312 29.84375 125.574219 29.660156 125.375 29.410156 C 125.171875 29.160156 125.015625 28.84375 124.902344 28.460938 C 124.792969 28.074219 124.738281 27.613281 124.738281 27.074219 C 124.738281 26.566406 124.796875 26.125 124.910156 25.757812 C 125.023438 25.390625 125.179688 25.085938 125.378906 24.847656 C 125.578125 24.609375 125.808594 24.433594 126.070312 24.316406 C 126.332031 24.203125 126.613281 24.144531 126.914062 24.144531 C 127.460938 24.144531 127.890625 24.316406 128.199219 24.664062 C 128.507812 25.007812 128.664062 25.527344 128.664062 26.214844 Z M 126.855469 24.929688 C 126.515625 24.929688 126.238281 25.074219 126.035156 25.359375 C 125.828125 25.644531 125.710938 26.058594 125.675781 26.597656 L 127.761719 26.597656 C 127.769531 26.558594 127.773438 26.5 127.777344 26.421875 C 127.78125 26.347656 127.785156 26.269531 127.785156 26.179688 C 127.785156 25.78125 127.703125 25.476562 127.546875 25.257812 C 127.386719 25.039062 127.15625 24.929688 126.855469 24.929688 Z M 132.210938 27.226562 C 132.210938 26.648438 132.285156 26.164062 132.4375 25.777344 C 132.585938 25.386719 132.78125 25.074219 133.019531 24.835938 C 133.257812 24.597656 133.527344 24.429688 133.828125 24.328125 C 134.128906 24.230469 134.433594 24.179688 134.734375 24.179688 C 134.914062 24.179688 135.074219 24.195312 135.210938 24.222656 C 135.34375 24.25 135.453125 24.285156 135.542969 24.324219 L 135.542969 21.585938 L 136.507812 21.480469 L 136.507812 30 L 135.625 30 L 135.625 29.394531 L 135.601562 29.394531 C 135.578125 29.441406 135.535156 29.507812 135.472656 29.589844 C 135.40625 29.671875 135.320312 29.757812 135.210938 29.839844 C 135.097656 29.921875 134.960938 29.992188 134.792969 30.054688 C 134.625 30.113281 134.433594 30.144531 134.210938 30.144531 C 133.941406 30.144531 133.683594 30.089844 133.441406 29.980469 C 133.199219 29.875 132.988281 29.703125 132.804688 29.46875 C 132.621094 29.234375 132.476562 28.933594 132.371094 28.566406 C 132.265625 28.199219 132.210938 27.75 132.210938 27.226562 Z M 134.472656 29.285156 C 134.621094 29.285156 134.757812 29.265625 134.875 29.226562 C 134.996094 29.1875 135.097656 29.136719 135.183594 29.078125 C 135.273438 29.019531 135.347656 28.957031 135.40625 28.894531 C 135.464844 28.828125 135.511719 28.773438 135.542969 28.726562 L 135.542969 25.203125 C 135.453125 25.148438 135.355469 25.101562 135.238281 25.0625 C 135.125 25.023438 134.980469 25.003906 134.804688 25.003906 C 134.582031 25.003906 134.375 25.039062 134.179688 25.113281 C 133.984375 25.191406 133.816406 25.316406 133.675781 25.488281 C 133.53125 25.664062 133.417969 25.890625 133.335938 26.167969 C 133.253906 26.445312 133.210938 26.785156 133.210938 27.191406 C 133.210938 27.589844 133.242188 27.917969 133.3125 28.183594 C 133.378906 28.453125 133.472656 28.664062 133.589844 28.828125 C 133.710938 28.992188 133.84375 29.105469 133.996094 29.179688 C 134.144531 29.25 134.304688 29.285156 134.472656 29.285156 Z M 141.648438 26.214844 C 141.648438 26.460938 141.640625 26.671875 141.621094 26.851562 C 141.605469 27.03125 141.589844 27.1875 141.574219 27.324219 L 138.660156 27.324219 C 138.691406 27.996094 138.835938 28.492188 139.09375 28.808594 C 139.351562 29.128906 139.722656 29.285156 140.207031 29.285156 C 140.371094 29.285156 140.523438 29.265625 140.660156 29.226562 C 140.792969 29.1875 140.910156 29.140625 141.011719 29.082031 C 141.109375 29.027344 141.191406 28.972656 141.261719 28.917969 C 141.328125 28.863281 141.378906 28.816406 141.410156 28.785156 L 141.765625 29.464844 C 141.726562 29.503906 141.667969 29.5625 141.589844 29.636719 C 141.507812 29.710938 141.402344 29.789062 141.265625 29.863281 C 141.132812 29.9375 140.964844 30.003906 140.765625 30.058594 C 140.566406 30.113281 140.335938 30.144531 140.0625 30.144531 C 139.707031 30.144531 139.382812 30.082031 139.09375 29.964844 C 138.804688 29.84375 138.558594 29.660156 138.355469 29.410156 C 138.152344 29.160156 137.996094 28.84375 137.886719 28.460938 C 137.773438 28.074219 137.71875 27.613281 137.71875 27.074219 C 137.71875 26.566406 137.777344 26.125 137.894531 25.757812 C 138.007812 25.390625 138.164062 25.085938 138.363281 24.847656 C 138.5625 24.609375 138.789062 24.433594 139.054688 24.316406 C 139.3125 24.203125 139.597656 24.144531 139.898438 24.144531 C 140.445312 24.144531 140.871094 24.316406 141.183594 24.664062 C 141.492188 25.007812 141.648438 25.527344 141.648438 26.214844 Z M 139.839844 24.929688 C 139.496094 24.929688 139.222656 25.074219 139.015625 25.359375 C 138.8125 25.644531 138.691406 26.058594 138.660156 26.597656 L 140.742188 26.597656 C 140.75 26.558594 140.757812 26.5 140.761719 26.421875 C 140.765625 26.347656 140.765625 26.269531 140.765625 26.179688 C 140.765625 25.78125 140.6875 25.476562 140.527344 25.257812 C 140.371094 25.039062 140.140625 24.929688 139.839844 24.929688 Z M 145.441406 25.132812 C 145.417969 25.117188 145.367188 25.097656 145.289062 25.074219 C 145.210938 25.050781 145.101562 25.039062 144.96875 25.039062 C 144.664062 25.039062 144.429688 25.117188 144.257812 25.28125 C 144.089844 25.445312 143.96875 25.621094 143.894531 25.8125 L 143.894531 30 L 142.933594 30 L 142.933594 24.289062 L 143.8125 24.289062 L 143.8125 25.0625 L 143.835938 25.0625 C 143.875 24.949219 143.929688 24.839844 143.992188 24.734375 C 144.054688 24.628906 144.132812 24.53125 144.230469 24.449219 C 144.324219 24.363281 144.4375 24.300781 144.566406 24.253906 C 144.699219 24.203125 144.855469 24.179688 145.039062 24.179688 C 145.171875 24.179688 145.28125 24.191406 145.367188 24.214844 C 145.449219 24.238281 145.515625 24.261719 145.5625 24.277344 Z M 153.152344 23.882812 C 153.152344 24.167969 153.117188 24.417969 153.046875 24.632812 C 152.976562 24.847656 152.878906 25.03125 152.753906 25.1875 C 152.632812 25.339844 152.488281 25.464844 152.328125 25.5625 C 152.164062 25.65625 151.996094 25.726562 151.820312 25.777344 L 151.820312 25.800781 C 152.035156 25.839844 152.234375 25.914062 152.421875 26.027344 C 152.609375 26.136719 152.769531 26.277344 152.910156 26.441406 C 153.050781 26.609375 153.160156 26.804688 153.242188 27.03125 C 153.328125 27.257812 153.367188 27.503906 153.367188 27.773438 C 153.367188 28.101562 153.3125 28.398438 153.203125 28.667969 C 153.089844 28.9375 152.917969 29.171875 152.683594 29.367188 C 152.449219 29.566406 152.15625 29.722656 151.796875 29.832031 C 151.441406 29.945312 151.015625 30 150.523438 30 L 148.847656 30 L 148.847656 21.789062 L 150.429688 21.789062 C 150.914062 21.789062 151.328125 21.839844 151.671875 21.9375 C 152.019531 22.035156 152.300781 22.175781 152.523438 22.359375 C 152.746094 22.542969 152.90625 22.761719 153.003906 23.019531 C 153.105469 23.277344 153.152344 23.566406 153.152344 23.882812 Z M 152.105469 23.917969 C 152.105469 23.539062 151.972656 23.226562 151.703125 22.980469 C 151.433594 22.734375 151.007812 22.609375 150.429688 22.609375 L 149.882812 22.609375 L 149.882812 25.441406 L 150.417969 25.441406 C 150.972656 25.441406 151.394531 25.308594 151.679688 25.039062 C 151.964844 24.769531 152.105469 24.394531 152.105469 23.917969 Z M 152.261719 27.703125 C 152.261719 27.257812 152.117188 26.90625 151.828125 26.648438 C 151.539062 26.390625 151.121094 26.261719 150.585938 26.261719 L 149.882812 26.261719 L 149.882812 29.144531 L 150.523438 29.144531 C 151.136719 29.144531 151.578125 29.023438 151.851562 28.78125 C 152.125 28.539062 152.261719 28.179688 152.261719 27.703125 Z M 158.640625 30 L 157.757812 30 L 157.757812 29.355469 L 157.734375 29.355469 C 157.710938 29.40625 157.660156 29.472656 157.582031 29.566406 C 157.503906 29.65625 157.398438 29.742188 157.277344 29.828125 C 157.15625 29.910156 157.007812 29.984375 156.832031 30.046875 C 156.65625 30.109375 156.464844 30.144531 156.246094 30.144531 C 155.992188 30.144531 155.765625 30.105469 155.5625 30.03125 C 155.363281 29.953125 155.1875 29.832031 155.046875 29.667969 C 154.902344 29.5 154.796875 29.285156 154.71875 29.019531 C 154.644531 28.753906 154.605469 28.425781 154.605469 28.035156 L 154.605469 24.289062 L 155.570312 24.289062 L 155.570312 27.964844 C 155.570312 28.441406 155.648438 28.78125 155.800781 28.980469 C 155.957031 29.183594 156.195312 29.285156 156.523438 29.285156 C 156.800781 29.285156 157.035156 29.214844 157.222656 29.078125 C 157.414062 28.9375 157.566406 28.800781 157.675781 28.667969 L 157.675781 24.289062 L 158.640625 24.289062 Z M 163.234375 30 L 163.234375 26.324219 C 163.234375 25.839844 163.152344 25.492188 162.988281 25.28125 C 162.828125 25.070312 162.578125 24.964844 162.246094 24.964844 C 161.960938 24.964844 161.722656 25.039062 161.53125 25.179688 C 161.339844 25.324219 161.191406 25.460938 161.078125 25.597656 L 161.078125 30 L 160.117188 30 L 160.117188 24.289062 L 160.996094 24.289062 L 160.996094 24.929688 L 161.019531 24.929688 C 161.042969 24.882812 161.097656 24.8125 161.175781 24.722656 C 161.253906 24.632812 161.355469 24.542969 161.484375 24.460938 C 161.609375 24.378906 161.761719 24.304688 161.9375 24.238281 C 162.109375 24.175781 162.308594 24.144531 162.53125 24.144531 C 162.785156 24.144531 163.015625 24.183594 163.222656 24.257812 C 163.429688 24.332031 163.601562 24.453125 163.746094 24.621094 C 163.886719 24.789062 164 25.003906 164.078125 25.269531 C 164.15625 25.535156 164.195312 25.863281 164.195312 26.25 L 164.195312 30 Z M 165.375 27.226562 C 165.375 26.648438 165.449219 26.164062 165.601562 25.777344 C 165.753906 25.386719 165.945312 25.074219 166.183594 24.835938 C 166.421875 24.597656 166.691406 24.429688 166.992188 24.328125 C 167.296875 24.230469 167.597656 24.179688 167.898438 24.179688 C 168.082031 24.179688 168.238281 24.195312 168.375 24.222656 C 168.507812 24.25 168.621094 24.285156 168.707031 24.324219 L 168.707031 21.585938 L 169.671875 21.480469 L 169.671875 30 L 168.789062 30 L 168.789062 29.394531 L 168.765625 29.394531 C 168.742188 29.441406 168.699219 29.507812 168.636719 29.589844 C 168.574219 29.671875 168.484375 29.757812 168.375 29.839844 C 168.261719 29.921875 168.125 29.992188 167.957031 30.054688 C 167.789062 30.113281 167.597656 30.144531 167.375 30.144531 C 167.105469 30.144531 166.847656 30.089844 166.605469 29.980469 C 166.363281 29.875 166.152344 29.703125 165.972656 29.46875 C 165.789062 29.234375 165.644531 28.933594 165.535156 28.566406 C 165.429688 28.199219 165.375 27.75 165.375 27.226562 Z M 167.636719 29.285156 C 167.785156 29.285156 167.921875 29.265625 168.039062 29.226562 C 168.160156 29.1875 168.261719 29.136719 168.351562 29.078125 C 168.4375 29.019531 168.511719 28.957031 168.570312 28.894531 C 168.628906 28.828125 168.675781 28.773438 168.707031 28.726562 L 168.707031 25.203125 C 168.621094 25.148438 168.519531 25.101562 168.402344 25.0625 C 168.289062 25.023438 168.144531 25.003906 167.96875 25.003906 C 167.746094 25.003906 167.539062 25.039062 167.34375 25.113281 C 167.152344 25.191406 166.980469 25.316406 166.839844 25.488281 C 166.695312 25.664062 166.585938 25.890625 166.5 26.167969 C 166.417969 26.445312 166.375 26.785156 166.375 27.191406 C 166.375 27.589844 166.410156 27.917969 166.476562 28.183594 C 166.542969 28.453125 166.636719 28.664062 166.757812 28.828125 C 166.875 28.992188 167.011719 29.105469 167.160156 29.179688 C 167.3125 29.25 167.46875 29.285156 167.636719 29.285156 Z M 174.8125 26.214844 C 174.8125 26.460938 174.804688 26.671875 174.789062 26.851562 C 174.773438 27.03125 174.757812 27.1875 174.742188 27.324219 L 171.824219 27.324219 C 171.855469 27.996094 172.003906 28.492188 172.261719 28.808594 C 172.519531 29.128906 172.886719 29.285156 173.371094 29.285156 C 173.539062 29.285156 173.6875 29.265625 173.824219 29.226562 C 173.960938 29.1875 174.078125 29.140625 174.175781 29.082031 C 174.273438 29.027344 174.359375 28.972656 174.425781 28.917969 C 174.492188 28.863281 174.542969 28.816406 174.574219 28.785156 L 174.929688 29.464844 C 174.890625 29.503906 174.832031 29.5625 174.753906 29.636719 C 174.671875 29.710938 174.566406 29.789062 174.429688 29.863281 C 174.296875 29.9375 174.128906 30.003906 173.933594 30.058594 C 173.734375 30.113281 173.5 30.144531 173.230469 30.144531 C 172.871094 30.144531 172.550781 30.082031 172.261719 29.964844 C 171.96875 29.84375 171.722656 29.660156 171.523438 29.410156 C 171.320312 29.160156 171.164062 28.84375 171.050781 28.460938 C 170.941406 28.074219 170.886719 27.613281 170.886719 27.074219 C 170.886719 26.566406 170.941406 26.125 171.058594 25.757812 C 171.171875 25.390625 171.328125 25.085938 171.527344 24.847656 C 171.726562 24.609375 171.957031 24.433594 172.21875 24.316406 C 172.480469 24.203125 172.761719 24.144531 173.0625 24.144531 C 173.609375 24.144531 174.039062 24.316406 174.347656 24.664062 C 174.65625 25.007812 174.8125 25.527344 174.8125 26.214844 Z M 173.003906 24.929688 C 172.660156 24.929688 172.390625 25.074219 172.183594 25.359375 C 171.976562 25.644531 171.855469 26.058594 171.824219 26.597656 L 173.90625 26.597656 C 173.914062 26.558594 173.921875 26.5 173.925781 26.421875 C 173.929688 26.347656 173.933594 26.269531 173.933594 26.179688 C 173.933594 25.78125 173.851562 25.476562 173.695312 25.257812 C 173.535156 25.039062 173.304688 24.929688 173.003906 24.929688 Z M 178.5625 25.441406 C 178.496094 25.371094 178.382812 25.273438 178.214844 25.152344 C 178.050781 25.027344 177.832031 24.964844 177.5625 24.964844 C 177.308594 24.964844 177.113281 25.027344 176.976562 25.144531 C 176.84375 25.265625 176.777344 25.40625 176.777344 25.574219 C 176.777344 25.789062 176.835938 25.964844 176.960938 26.101562 C 177.082031 26.242188 177.269531 26.390625 177.523438 26.546875 L 177.882812 26.761719 C 178.269531 26.992188 178.578125 27.242188 178.800781 27.507812 C 179.019531 27.773438 179.132812 28.117188 179.132812 28.535156 C 179.132812 28.988281 178.976562 29.367188 178.660156 29.679688 C 178.347656 29.988281 177.898438 30.144531 177.3125 30.144531 C 177.082031 30.144531 176.878906 30.117188 176.703125 30.070312 C 176.53125 30.023438 176.378906 29.96875 176.246094 29.90625 C 176.113281 29.839844 176.007812 29.773438 175.917969 29.695312 C 175.832031 29.621094 175.761719 29.550781 175.703125 29.488281 L 176.167969 28.726562 C 176.214844 28.773438 176.273438 28.828125 176.339844 28.894531 C 176.410156 28.957031 176.488281 29.019531 176.585938 29.078125 C 176.679688 29.136719 176.789062 29.1875 176.90625 29.226562 C 177.027344 29.265625 177.164062 29.285156 177.324219 29.285156 C 177.609375 29.285156 177.828125 29.222656 177.976562 29.09375 C 178.128906 28.96875 178.203125 28.8125 178.203125 28.632812 C 178.203125 28.496094 178.1875 28.378906 178.148438 28.28125 C 178.113281 28.179688 178.0625 28.09375 177.988281 28.011719 C 177.917969 27.933594 177.832031 27.859375 177.726562 27.785156 C 177.625 27.714844 177.503906 27.636719 177.371094 27.546875 L 177.015625 27.324219 C 176.65625 27.09375 176.378906 26.851562 176.175781 26.597656 C 175.972656 26.34375 175.871094 26.019531 175.871094 25.621094 C 175.871094 25.40625 175.914062 25.210938 175.996094 25.03125 C 176.078125 24.851562 176.195312 24.699219 176.347656 24.566406 C 176.496094 24.4375 176.675781 24.332031 176.878906 24.257812 C 177.078125 24.183594 177.296875 24.144531 177.523438 24.144531 C 177.746094 24.144531 177.9375 24.167969 178.097656 24.210938 C 178.253906 24.253906 178.390625 24.308594 178.507812 24.378906 C 178.621094 24.445312 178.71875 24.511719 178.792969 24.578125 C 178.867188 24.648438 178.929688 24.703125 178.976562 24.753906 Z M 182.773438 25.132812 C 182.75 25.117188 182.699219 25.097656 182.617188 25.074219 C 182.539062 25.050781 182.433594 25.039062 182.296875 25.039062 C 181.996094 25.039062 181.761719 25.117188 181.589844 25.28125 C 181.417969 25.445312 181.296875 25.621094 181.226562 25.8125 L 181.226562 30 L 180.261719 30 L 180.261719 24.289062 L 181.144531 24.289062 L 181.144531 25.0625 L 181.167969 25.0625 C 181.207031 24.949219 181.257812 24.839844 181.320312 24.734375 C 181.386719 24.628906 181.464844 24.53125 181.558594 24.449219 C 181.65625 24.363281 181.769531 24.300781 181.898438 24.253906 C 182.03125 24.203125 182.1875 24.179688 182.367188 24.179688 C 182.503906 24.179688 182.613281 24.191406 182.695312 24.214844 C 182.777344 24.238281 182.84375 24.261719 182.890625 24.277344 Z M 187.246094 26.214844 C 187.246094 26.460938 187.238281 26.671875 187.222656 26.851562 C 187.207031 27.03125 187.191406 27.1875 187.175781 27.324219 L 184.261719 27.324219 C 184.292969 27.996094 184.4375 28.492188 184.695312 28.808594 C 184.953125 29.128906 185.324219 29.285156 185.808594 29.285156 C 185.972656 29.285156 186.125 29.265625 186.261719 29.226562 C 186.394531 29.1875 186.511719 29.140625 186.609375 29.082031 C 186.710938 29.027344 186.792969 28.972656 186.859375 28.917969 C 186.929688 28.863281 186.976562 28.816406 187.011719 28.785156 L 187.367188 29.464844 C 187.328125 29.503906 187.269531 29.5625 187.1875 29.636719 C 187.109375 29.710938 187.003906 29.789062 186.867188 29.863281 C 186.730469 29.9375 186.566406 30.003906 186.367188 30.058594 C 186.167969 30.113281 185.933594 30.144531 185.664062 30.144531 C 185.308594 30.144531 184.984375 30.082031 184.695312 29.964844 C 184.40625 29.84375 184.160156 29.660156 183.957031 29.410156 C 183.753906 29.160156 183.597656 28.84375 183.488281 28.460938 C 183.375 28.074219 183.320312 27.613281 183.320312 27.074219 C 183.320312 26.566406 183.378906 26.125 183.492188 25.757812 C 183.609375 25.390625 183.765625 25.085938 183.964844 24.847656 C 184.160156 24.609375 184.390625 24.433594 184.652344 24.316406 C 184.914062 24.203125 185.195312 24.144531 185.496094 24.144531 C 186.046875 24.144531 186.472656 24.316406 186.785156 24.664062 C 187.09375 25.007812 187.246094 25.527344 187.246094 26.214844 Z M 185.4375 24.929688 C 185.097656 24.929688 184.824219 25.074219 184.617188 25.359375 C 184.410156 25.644531 184.292969 26.058594 184.261719 26.597656 L 186.34375 26.597656 C 186.351562 26.558594 186.355469 26.5 186.359375 26.421875 C 186.363281 26.347656 186.367188 26.269531 186.367188 26.179688 C 186.367188 25.78125 186.289062 25.476562 186.128906 25.257812 C 185.96875 25.039062 185.738281 24.929688 185.4375 24.929688 Z M 192.628906 25.039062 L 191.914062 25.039062 C 192.09375 25.339844 192.1875 25.679688 192.1875 26.0625 C 192.1875 26.363281 192.136719 26.632812 192.039062 26.875 C 191.9375 27.117188 191.800781 27.324219 191.621094 27.488281 C 191.441406 27.65625 191.230469 27.78125 190.988281 27.871094 C 190.746094 27.957031 190.488281 28 190.210938 28 C 190.15625 28 190.105469 28 190.054688 28 C 190.007812 28 189.957031 27.996094 189.902344 27.988281 C 189.804688 28.027344 189.707031 28.09375 189.605469 28.179688 C 189.5 28.265625 189.449219 28.382812 189.449219 28.523438 C 189.449219 28.644531 189.496094 28.742188 189.585938 28.816406 C 189.675781 28.890625 189.824219 28.929688 190.03125 28.929688 L 190.757812 28.929688 C 191.027344 28.929688 191.277344 28.957031 191.507812 29.011719 C 191.738281 29.066406 191.9375 29.15625 192.109375 29.28125 C 192.277344 29.402344 192.410156 29.558594 192.507812 29.75 C 192.601562 29.941406 192.648438 30.171875 192.648438 30.441406 C 192.648438 30.75 192.585938 31.03125 192.453125 31.285156 C 192.324219 31.539062 192.140625 31.757812 191.902344 31.941406 C 191.664062 32.121094 191.371094 32.265625 191.03125 32.367188 C 190.691406 32.472656 190.308594 32.523438 189.890625 32.523438 C 189.277344 32.523438 188.8125 32.390625 188.496094 32.125 C 188.179688 31.859375 188.019531 31.476562 188.019531 30.976562 C 188.019531 30.761719 188.058594 30.578125 188.132812 30.421875 C 188.210938 30.269531 188.300781 30.132812 188.402344 30.019531 C 188.503906 29.902344 188.609375 29.8125 188.71875 29.742188 C 188.824219 29.675781 188.910156 29.621094 188.972656 29.582031 L 188.972656 29.558594 C 188.726562 29.378906 188.605469 29.109375 188.605469 28.761719 C 188.605469 28.613281 188.632812 28.480469 188.695312 28.371094 C 188.753906 28.257812 188.820312 28.167969 188.894531 28.097656 C 188.972656 28.023438 189.046875 27.96875 189.121094 27.921875 C 189.195312 27.878906 189.253906 27.851562 189.296875 27.835938 L 189.296875 27.808594 C 189 27.675781 188.765625 27.464844 188.585938 27.171875 C 188.40625 26.882812 188.320312 26.511719 188.320312 26.0625 C 188.320312 25.742188 188.371094 25.464844 188.472656 25.222656 C 188.578125 24.980469 188.714844 24.78125 188.890625 24.621094 C 189.0625 24.460938 189.269531 24.34375 189.503906 24.265625 C 189.738281 24.183594 189.988281 24.144531 190.257812 24.144531 C 190.527344 24.144531 190.78125 24.191406 191.019531 24.289062 L 192.757812 24.289062 Z M 189.972656 29.820312 C 189.804688 29.820312 189.660156 29.808594 189.53125 29.785156 C 189.460938 29.824219 189.390625 29.871094 189.324219 29.929688 C 189.257812 29.984375 189.195312 30.050781 189.140625 30.132812 C 189.085938 30.210938 189.039062 30.304688 189.003906 30.410156 C 188.96875 30.519531 188.949219 30.644531 188.949219 30.785156 C 188.949219 31.398438 189.285156 31.703125 189.960938 31.703125 C 190.539062 31.703125 190.96875 31.589844 191.246094 31.363281 C 191.523438 31.136719 191.664062 30.875 191.664062 30.582031 C 191.664062 30.304688 191.574219 30.109375 191.402344 29.992188 C 191.226562 29.878906 190.992188 29.820312 190.699219 29.820312 Z M 191.246094 26.0625 C 191.246094 25.648438 191.148438 25.355469 190.953125 25.179688 C 190.761719 25.007812 190.53125 24.917969 190.269531 24.917969 C 189.992188 24.917969 189.753906 25.007812 189.554688 25.179688 C 189.359375 25.355469 189.257812 25.648438 189.257812 26.0625 C 189.257812 26.472656 189.359375 26.765625 189.554688 26.941406 C 189.753906 27.117188 189.984375 27.203125 190.246094 27.203125 C 190.523438 27.203125 190.761719 27.117188 190.953125 26.941406 C 191.148438 26.765625 191.246094 26.472656 191.246094 26.0625 Z M 194.683594 30 L 193.722656 30 L 193.722656 24.289062 L 194.683594 24.289062 Z M 194.210938 22.90625 C 194.011719 22.90625 193.851562 22.84375 193.734375 22.71875 C 193.613281 22.589844 193.554688 22.421875 193.554688 22.21875 C 193.554688 22.019531 193.613281 21.855469 193.734375 21.730469 C 193.851562 21.601562 194.011719 21.539062 194.210938 21.539062 C 194.398438 21.539062 194.554688 21.601562 194.671875 21.730469 C 194.792969 21.855469 194.851562 22.019531 194.851562 22.21875 C 194.851562 22.421875 194.792969 22.589844 194.671875 22.71875 C 194.554688 22.84375 194.398438 22.90625 194.210938 22.90625 Z M 199.824219 26.214844 C 199.824219 26.460938 199.816406 26.671875 199.800781 26.851562 C 199.785156 27.03125 199.769531 27.1875 199.753906 27.324219 L 196.839844 27.324219 C 196.871094 27.996094 197.015625 28.492188 197.273438 28.808594 C 197.53125 29.128906 197.902344 29.285156 198.386719 29.285156 C 198.554688 29.285156 198.703125 29.265625 198.839844 29.226562 C 198.972656 29.1875 199.089844 29.140625 199.1875 29.082031 C 199.289062 29.027344 199.371094 28.972656 199.4375 28.917969 C 199.507812 28.863281 199.554688 28.816406 199.589844 28.785156 L 199.945312 29.464844 C 199.90625 29.503906 199.847656 29.5625 199.765625 29.636719 C 199.6875 29.710938 199.578125 29.789062 199.445312 29.863281 C 199.308594 29.9375 199.144531 30.003906 198.945312 30.058594 C 198.746094 30.113281 198.511719 30.144531 198.242188 30.144531 C 197.886719 30.144531 197.5625 30.082031 197.273438 29.964844 C 196.984375 29.84375 196.738281 29.660156 196.535156 29.410156 C 196.335938 29.160156 196.175781 28.84375 196.066406 28.460938 C 195.953125 28.074219 195.898438 27.613281 195.898438 27.074219 C 195.898438 26.566406 195.957031 26.125 196.070312 25.757812 C 196.1875 25.390625 196.34375 25.085938 196.542969 24.847656 C 196.738281 24.609375 196.96875 24.433594 197.230469 24.316406 C 197.492188 24.203125 197.773438 24.144531 198.078125 24.144531 C 198.625 24.144531 199.050781 24.316406 199.363281 24.664062 C 199.671875 25.007812 199.824219 25.527344 199.824219 26.214844 Z M 198.015625 24.929688 C 197.675781 24.929688 197.402344 25.074219 197.195312 25.359375 C 196.988281 25.644531 196.871094 26.058594 196.839844 26.597656 L 198.921875 26.597656 C 198.929688 26.558594 198.9375 26.5 198.9375 26.421875 C 198.941406 26.347656 198.945312 26.269531 198.945312 26.179688 C 198.945312 25.78125 198.867188 25.476562 198.707031 25.257812 C 198.550781 25.039062 198.320312 24.929688 198.015625 24.929688 Z M 203.621094 25.132812 C 203.597656 25.117188 203.546875 25.097656 203.46875 25.074219 C 203.386719 25.050781 203.28125 25.039062 203.144531 25.039062 C 202.84375 25.039062 202.609375 25.117188 202.4375 25.28125 C 202.269531 25.445312 202.144531 25.621094 202.074219 25.8125 L 202.074219 30 L 201.109375 30 L 201.109375 24.289062 L 201.992188 24.289062 L 201.992188 25.0625 L 202.015625 25.0625 C 202.054688 24.949219 202.105469 24.839844 202.171875 24.734375 C 202.234375 24.628906 202.3125 24.53125 202.40625 24.449219 C 202.503906 24.363281 202.617188 24.300781 202.746094 24.253906 C 202.878906 24.203125 203.035156 24.179688 203.21875 24.179688 C 203.351562 24.179688 203.460938 24.191406 203.546875 24.214844 C 203.628906 24.238281 203.691406 24.261719 203.742188 24.277344 Z M 208.574219 30 L 207.691406 30 L 207.691406 29.355469 L 207.667969 29.355469 C 207.644531 29.40625 207.59375 29.472656 207.511719 29.566406 C 207.433594 29.65625 207.332031 29.742188 207.210938 29.828125 C 207.085938 29.910156 206.9375 29.984375 206.765625 30.046875 C 206.589844 30.109375 206.394531 30.144531 206.179688 30.144531 C 205.925781 30.144531 205.699219 30.105469 205.496094 30.03125 C 205.292969 29.953125 205.121094 29.832031 204.980469 29.667969 C 204.835938 29.5 204.726562 29.285156 204.652344 29.019531 C 204.574219 28.753906 204.539062 28.425781 204.539062 28.035156 L 204.539062 24.289062 L 205.503906 24.289062 L 205.503906 27.964844 C 205.503906 28.441406 205.578125 28.78125 205.734375 28.980469 C 205.890625 29.183594 206.128906 29.285156 206.453125 29.285156 C 206.730469 29.285156 206.964844 29.214844 207.15625 29.078125 C 207.347656 28.9375 207.496094 28.800781 207.609375 28.667969 L 207.609375 24.289062 L 208.574219 24.289062 Z M 213.164062 30 L 213.164062 26.324219 C 213.164062 25.839844 213.085938 25.492188 212.921875 25.28125 C 212.757812 25.070312 212.511719 24.964844 212.179688 24.964844 C 211.894531 24.964844 211.65625 25.039062 211.464844 25.179688 C 211.273438 25.324219 211.121094 25.460938 211.011719 25.597656 L 211.011719 30 L 210.046875 30 L 210.046875 24.289062 L 210.929688 24.289062 L 210.929688 24.929688 L 210.953125 24.929688 C 210.976562 24.882812 211.027344 24.8125 211.105469 24.722656 C 211.1875 24.632812 211.289062 24.542969 211.417969 24.460938 C 211.542969 24.378906 211.695312 24.304688 211.867188 24.238281 C 212.042969 24.175781 212.242188 24.144531 212.464844 24.144531 C 212.71875 24.144531 212.949219 24.183594 213.152344 24.257812 C 213.359375 24.332031 213.535156 24.453125 213.679688 24.621094 C 213.820312 24.789062 213.933594 25.003906 214.011719 25.269531 C 214.089844 25.535156 214.128906 25.863281 214.128906 26.25 L 214.128906 30 Z M 219.664062 25.039062 L 218.949219 25.039062 C 219.132812 25.339844 219.222656 25.679688 219.222656 26.0625 C 219.222656 26.363281 219.171875 26.632812 219.074219 26.875 C 218.976562 27.117188 218.835938 27.324219 218.65625 27.488281 C 218.480469 27.65625 218.269531 27.78125 218.027344 27.871094 C 217.785156 27.957031 217.523438 28 217.246094 28 C 217.191406 28 217.140625 28 217.09375 28 C 217.046875 28 216.992188 27.996094 216.9375 27.988281 C 216.84375 28.027344 216.742188 28.09375 216.640625 28.179688 C 216.539062 28.265625 216.484375 28.382812 216.484375 28.523438 C 216.484375 28.644531 216.53125 28.742188 216.621094 28.816406 C 216.714844 28.890625 216.863281 28.929688 217.070312 28.929688 L 217.796875 28.929688 C 218.066406 28.929688 218.3125 28.957031 218.546875 29.011719 C 218.773438 29.066406 218.976562 29.15625 219.144531 29.28125 C 219.316406 29.402344 219.449219 29.558594 219.542969 29.75 C 219.640625 29.941406 219.6875 30.171875 219.6875 30.441406 C 219.6875 30.75 219.621094 31.03125 219.492188 31.285156 C 219.359375 31.539062 219.175781 31.757812 218.9375 31.941406 C 218.699219 32.121094 218.410156 32.265625 218.070312 32.367188 C 217.726562 32.472656 217.347656 32.523438 216.925781 32.523438 C 216.316406 32.523438 215.851562 32.390625 215.535156 32.125 C 215.21875 31.859375 215.058594 31.476562 215.058594 30.976562 C 215.058594 30.761719 215.097656 30.578125 215.171875 30.421875 C 215.246094 30.269531 215.335938 30.132812 215.4375 30.019531 C 215.542969 29.902344 215.648438 29.8125 215.753906 29.742188 C 215.859375 29.675781 215.945312 29.621094 216.011719 29.582031 L 216.011719 29.558594 C 215.765625 29.378906 215.640625 29.109375 215.640625 28.761719 C 215.640625 28.613281 215.671875 28.480469 215.730469 28.371094 C 215.789062 28.257812 215.855469 28.167969 215.933594 28.097656 C 216.007812 28.023438 216.085938 27.96875 216.160156 27.921875 C 216.234375 27.878906 216.292969 27.851562 216.332031 27.835938 L 216.332031 27.808594 C 216.039062 27.675781 215.800781 27.464844 215.621094 27.171875 C 215.445312 26.882812 215.355469 26.511719 215.355469 26.0625 C 215.355469 25.742188 215.40625 25.464844 215.511719 25.222656 C 215.613281 24.980469 215.753906 24.78125 215.925781 24.621094 C 216.101562 24.460938 216.304688 24.34375 216.539062 24.265625 C 216.773438 24.183594 217.023438 24.144531 217.296875 24.144531 C 217.566406 24.144531 217.820312 24.191406 218.058594 24.289062 L 219.792969 24.289062 Z M 217.011719 29.820312 C 216.84375 29.820312 216.695312 29.808594 216.570312 29.785156 C 216.496094 29.824219 216.429688 29.871094 216.359375 29.929688 C 216.292969 29.984375 216.230469 30.050781 216.175781 30.132812 C 216.121094 30.210938 216.074219 30.304688 216.039062 30.410156 C 216.003906 30.519531 215.984375 30.644531 215.984375 30.785156 C 215.984375 31.398438 216.324219 31.703125 216.996094 31.703125 C 217.578125 31.703125 218.003906 31.589844 218.28125 31.363281 C 218.5625 31.136719 218.699219 30.875 218.699219 30.582031 C 218.699219 30.304688 218.613281 30.109375 218.4375 29.992188 C 218.261719 29.878906 218.027344 29.820312 217.734375 29.820312 Z M 218.28125 26.0625 C 218.28125 25.648438 218.1875 25.355469 217.992188 25.179688 C 217.796875 25.007812 217.570312 24.917969 217.308594 24.917969 C 217.027344 24.917969 216.789062 25.007812 216.59375 25.179688 C 216.394531 25.355469 216.296875 25.648438 216.296875 26.0625 C 216.296875 26.472656 216.394531 26.765625 216.59375 26.941406 C 216.789062 27.117188 217.019531 27.203125 217.28125 27.203125 C 217.5625 27.203125 217.796875 27.117188 217.992188 26.941406 C 218.1875 26.765625 218.28125 26.472656 218.28125 26.0625 Z M 65.640625 37.074219 L 64.476562 37.074219 L 64.476562 42 L 63.511719 42 L 63.511719 37.074219 L 62.820312 37.074219 L 62.820312 36.429688 L 63.511719 36.300781 L 63.511719 35.15625 C 63.511719 34.847656 63.554688 34.582031 63.644531 34.359375 C 63.730469 34.136719 63.84375 33.957031 63.988281 33.8125 C 64.128906 33.667969 64.296875 33.566406 64.488281 33.503906 C 64.675781 33.441406 64.878906 33.40625 65.09375 33.40625 C 65.300781 33.40625 65.476562 33.4375 65.617188 33.492188 C 65.761719 33.546875 65.855469 33.589844 65.902344 33.621094 L 65.703125 34.417969 C 65.652344 34.386719 65.585938 34.355469 65.5 34.320312 C 65.410156 34.28125 65.304688 34.265625 65.175781 34.265625 C 64.949219 34.265625 64.773438 34.335938 64.652344 34.480469 C 64.535156 34.621094 64.476562 34.882812 64.476562 35.265625 L 64.476562 36.289062 L 65.761719 36.289062 Z M 70.59375 42 L 69.710938 42 L 69.710938 41.355469 L 69.6875 41.355469 C 69.664062 41.40625 69.613281 41.472656 69.53125 41.566406 C 69.453125 41.65625 69.351562 41.742188 69.230469 41.828125 C 69.105469 41.910156 68.957031 41.984375 68.78125 42.046875 C 68.609375 42.109375 68.414062 42.144531 68.199219 42.144531 C 67.945312 42.144531 67.71875 42.105469 67.515625 42.03125 C 67.3125 41.953125 67.140625 41.832031 66.996094 41.667969 C 66.855469 41.5 66.746094 41.285156 66.671875 41.019531 C 66.59375 40.753906 66.558594 40.425781 66.558594 40.035156 L 66.558594 36.289062 L 67.523438 36.289062 L 67.523438 39.964844 C 67.523438 40.441406 67.597656 40.78125 67.753906 40.980469 C 67.910156 41.183594 68.148438 41.285156 68.472656 41.285156 C 68.75 41.285156 68.984375 41.214844 69.175781 41.078125 C 69.367188 40.9375 69.515625 40.800781 69.628906 40.667969 L 69.628906 36.289062 L 70.59375 36.289062 Z M 68.222656 34.644531 C 68.222656 34.828125 68.167969 34.976562 68.058594 35.085938 C 67.945312 35.199219 67.8125 35.253906 67.652344 35.253906 C 67.492188 35.253906 67.359375 35.199219 67.246094 35.085938 C 67.136719 34.976562 67.082031 34.828125 67.082031 34.644531 C 67.082031 34.464844 67.136719 34.316406 67.246094 34.207031 C 67.359375 34.09375 67.492188 34.039062 67.652344 34.039062 C 67.8125 34.039062 67.945312 34.09375 68.058594 34.207031 C 68.167969 34.316406 68.222656 34.464844 68.222656 34.644531 Z M 70.054688 34.644531 C 70.054688 34.828125 70 34.976562 69.890625 35.085938 C 69.777344 35.199219 69.644531 35.253906 69.484375 35.253906 C 69.328125 35.253906 69.191406 35.199219 69.082031 35.085938 C 68.96875 34.976562 68.914062 34.828125 68.914062 34.644531 C 68.914062 34.464844 68.96875 34.316406 69.082031 34.207031 C 69.191406 34.09375 69.328125 34.039062 69.484375 34.039062 C 69.644531 34.039062 69.777344 34.09375 69.890625 34.207031 C 70 34.316406 70.054688 34.464844 70.054688 34.644531 Z M 74.578125 37.132812 C 74.554688 37.117188 74.503906 37.097656 74.421875 37.074219 C 74.34375 37.050781 74.238281 37.039062 74.101562 37.039062 C 73.800781 37.039062 73.566406 37.117188 73.394531 37.28125 C 73.222656 37.445312 73.101562 37.621094 73.03125 37.8125 L 73.03125 42 L 72.066406 42 L 72.066406 36.289062 L 72.949219 36.289062 L 72.949219 37.0625 L 72.972656 37.0625 C 73.011719 36.949219 73.0625 36.839844 73.125 36.734375 C 73.191406 36.628906 73.269531 36.53125 73.363281 36.449219 C 73.460938 36.363281 73.574219 36.300781 73.703125 36.253906 C 73.835938 36.203125 73.992188 36.179688 74.171875 36.179688 C 74.308594 36.179688 74.417969 36.191406 74.5 36.214844 C 74.585938 36.238281 74.648438 36.261719 74.699219 36.277344 Z M 80.503906 37.800781 L 83.289062 42 L 82.015625 42 L 79.636719 38.261719 L 79.015625 38.261719 L 79.015625 42 L 77.980469 42 L 77.980469 33.789062 L 79.015625 33.789062 L 79.015625 37.441406 L 79.648438 37.441406 L 81.945312 33.789062 L 83.097656 33.789062 Z M 87.964844 42 L 87.085938 42 L 87.085938 41.355469 L 87.0625 41.355469 C 87.039062 41.40625 86.984375 41.472656 86.90625 41.566406 C 86.828125 41.65625 86.726562 41.742188 86.601562 41.828125 C 86.480469 41.910156 86.332031 41.984375 86.15625 42.046875 C 85.984375 42.109375 85.789062 42.144531 85.574219 42.144531 C 85.320312 42.144531 85.09375 42.105469 84.890625 42.03125 C 84.6875 41.953125 84.515625 41.832031 84.371094 41.667969 C 84.230469 41.5 84.121094 41.285156 84.042969 41.019531 C 83.96875 40.753906 83.933594 40.425781 83.933594 40.035156 L 83.933594 36.289062 L 84.894531 36.289062 L 84.894531 39.964844 C 84.894531 40.441406 84.972656 40.78125 85.128906 40.980469 C 85.28125 41.183594 85.523438 41.285156 85.847656 41.285156 C 86.125 41.285156 86.359375 41.214844 86.550781 41.078125 C 86.738281 40.9375 86.890625 40.800781 87.003906 40.667969 L 87.003906 36.289062 L 87.964844 36.289062 Z M 90.394531 40.667969 C 90.394531 40.90625 90.425781 41.070312 90.496094 41.167969 C 90.5625 41.261719 90.679688 41.308594 90.84375 41.308594 C 90.933594 41.308594 91.007812 41.300781 91.066406 41.285156 C 91.125 41.269531 91.171875 41.253906 91.203125 41.238281 L 91.285156 41.953125 C 91.238281 41.976562 91.152344 42.007812 91.023438 42.046875 C 90.898438 42.085938 90.726562 42.105469 90.511719 42.105469 C 90.1875 42.105469 89.925781 42.007812 89.726562 41.808594 C 89.527344 41.609375 89.429688 41.257812 89.429688 40.75 L 89.429688 33.585938 L 90.394531 33.480469 Z M 94.59375 37.074219 L 93.34375 37.074219 L 93.34375 40.238281 C 93.34375 40.644531 93.398438 40.917969 93.5 41.066406 C 93.601562 41.210938 93.777344 41.285156 94.023438 41.285156 C 94.164062 41.285156 94.289062 41.265625 94.390625 41.226562 C 94.496094 41.1875 94.570312 41.152344 94.617188 41.121094 L 94.75 41.894531 C 94.710938 41.925781 94.613281 41.972656 94.464844 42.042969 C 94.3125 42.109375 94.109375 42.144531 93.855469 42.144531 C 93.363281 42.144531 92.996094 42.007812 92.75 41.730469 C 92.503906 41.457031 92.382812 41.003906 92.382812 40.371094 L 92.382812 37.074219 L 91.691406 37.074219 L 91.691406 36.429688 L 92.382812 36.289062 L 92.488281 34.695312 L 93.34375 34.695312 L 93.34375 36.289062 L 94.714844 36.289062 Z M 99.6875 42 L 98.808594 42 L 98.808594 41.355469 L 98.78125 41.355469 C 98.757812 41.40625 98.707031 41.472656 98.628906 41.566406 C 98.550781 41.65625 98.449219 41.742188 98.324219 41.828125 C 98.203125 41.910156 98.054688 41.984375 97.878906 42.046875 C 97.703125 42.109375 97.511719 42.144531 97.296875 42.144531 C 97.042969 42.144531 96.8125 42.105469 96.609375 42.03125 C 96.410156 41.953125 96.234375 41.832031 96.09375 41.667969 C 95.949219 41.5 95.84375 41.285156 95.765625 41.019531 C 95.691406 40.753906 95.652344 40.425781 95.652344 40.035156 L 95.652344 36.289062 L 96.617188 36.289062 L 96.617188 39.964844 C 96.617188 40.441406 96.695312 40.78125 96.847656 40.980469 C 97.003906 41.183594 97.242188 41.285156 97.570312 41.285156 C 97.847656 41.285156 98.082031 41.214844 98.273438 41.078125 C 98.460938 40.9375 98.613281 40.800781 98.722656 40.667969 L 98.722656 36.289062 L 99.6875 36.289062 Z M 103.675781 37.132812 C 103.648438 37.117188 103.597656 37.097656 103.519531 37.074219 C 103.441406 37.050781 103.332031 37.039062 103.199219 37.039062 C 102.894531 37.039062 102.660156 37.117188 102.488281 37.28125 C 102.320312 37.445312 102.199219 37.621094 102.128906 37.8125 L 102.128906 42 L 101.164062 42 L 101.164062 36.289062 L 102.042969 36.289062 L 102.042969 37.0625 L 102.066406 37.0625 C 102.105469 36.949219 102.160156 36.839844 102.222656 36.734375 C 102.285156 36.628906 102.363281 36.53125 102.460938 36.449219 C 102.554688 36.363281 102.667969 36.300781 102.800781 36.253906 C 102.929688 36.203125 103.085938 36.179688 103.269531 36.179688 C 103.402344 36.179688 103.511719 36.191406 103.597656 36.214844 C 103.679688 36.238281 103.746094 36.261719 103.792969 36.277344 Z M 110.871094 42 L 109.992188 42 L 109.992188 41.355469 L 109.96875 41.355469 C 109.945312 41.40625 109.894531 41.472656 109.8125 41.566406 C 109.734375 41.65625 109.632812 41.742188 109.511719 41.828125 C 109.386719 41.910156 109.238281 41.984375 109.066406 42.046875 C 108.890625 42.109375 108.695312 42.144531 108.480469 42.144531 C 108.226562 42.144531 108 42.105469 107.796875 42.03125 C 107.59375 41.953125 107.421875 41.832031 107.28125 41.667969 C 107.136719 41.5 107.027344 41.285156 106.953125 41.019531 C 106.878906 40.753906 106.839844 40.425781 106.839844 40.035156 L 106.839844 36.289062 L 107.804688 36.289062 L 107.804688 39.964844 C 107.804688 40.441406 107.882812 40.78125 108.035156 40.980469 C 108.191406 41.183594 108.429688 41.285156 108.753906 41.285156 C 109.03125 41.285156 109.265625 41.214844 109.457031 41.078125 C 109.648438 40.9375 109.796875 40.800781 109.910156 40.667969 L 109.910156 36.289062 L 110.871094 36.289062 Z M 115.46875 42 L 115.46875 38.324219 C 115.46875 37.839844 115.386719 37.492188 115.222656 37.28125 C 115.058594 37.070312 114.8125 36.964844 114.480469 36.964844 C 114.195312 36.964844 113.953125 37.039062 113.765625 37.179688 C 113.574219 37.324219 113.425781 37.460938 113.3125 37.597656 L 113.3125 42 L 112.347656 42 L 112.347656 36.289062 L 113.230469 36.289062 L 113.230469 36.929688 L 113.253906 36.929688 C 113.277344 36.882812 113.328125 36.8125 113.40625 36.722656 C 113.488281 36.632812 113.589844 36.542969 113.71875 36.460938 C 113.84375 36.378906 113.996094 36.304688 114.171875 36.238281 C 114.34375 36.175781 114.542969 36.144531 114.765625 36.144531 C 115.019531 36.144531 115.25 36.183594 115.453125 36.257812 C 115.660156 36.332031 115.835938 36.453125 115.980469 36.621094 C 116.121094 36.789062 116.230469 37.003906 116.3125 37.269531 C 116.390625 37.535156 116.429688 37.863281 116.429688 38.25 L 116.429688 42 Z M 117.609375 39.226562 C 117.609375 38.648438 117.683594 38.164062 117.835938 37.777344 C 117.984375 37.386719 118.179688 37.074219 118.417969 36.835938 C 118.65625 36.597656 118.925781 36.429688 119.226562 36.328125 C 119.527344 36.230469 119.828125 36.179688 120.132812 36.179688 C 120.3125 36.179688 120.472656 36.195312 120.609375 36.222656 C 120.742188 36.25 120.855469 36.285156 120.941406 36.324219 L 120.941406 33.585938 L 121.90625 33.480469 L 121.90625 42 L 121.023438 42 L 121.023438 41.394531 L 121 41.394531 C 120.976562 41.441406 120.933594 41.507812 120.871094 41.589844 C 120.804688 41.671875 120.71875 41.757812 120.609375 41.839844 C 120.496094 41.921875 120.359375 41.992188 120.191406 42.054688 C 120.023438 42.113281 119.828125 42.144531 119.609375 42.144531 C 119.339844 42.144531 119.082031 42.089844 118.839844 41.980469 C 118.597656 41.875 118.386719 41.703125 118.203125 41.46875 C 118.019531 41.234375 117.878906 40.933594 117.769531 40.566406 C 117.664062 40.199219 117.609375 39.75 117.609375 39.226562 Z M 119.871094 41.285156 C 120.019531 41.285156 120.15625 41.265625 120.273438 41.226562 C 120.394531 41.1875 120.496094 41.136719 120.585938 41.078125 C 120.671875 41.019531 120.746094 40.957031 120.804688 40.894531 C 120.863281 40.828125 120.910156 40.773438 120.941406 40.726562 L 120.941406 37.203125 C 120.855469 37.148438 120.753906 37.101562 120.636719 37.0625 C 120.523438 37.023438 120.378906 37.003906 120.203125 37.003906 C 119.980469 37.003906 119.773438 37.039062 119.578125 37.113281 C 119.382812 37.191406 119.214844 37.316406 119.074219 37.488281 C 118.929688 37.664062 118.816406 37.890625 118.734375 38.167969 C 118.648438 38.445312 118.609375 38.785156 118.609375 39.191406 C 118.609375 39.589844 118.640625 39.917969 118.710938 40.183594 C 118.777344 40.453125 118.871094 40.664062 118.988281 40.828125 C 119.109375 40.992188 119.242188 41.105469 119.394531 41.179688 C 119.546875 41.25 119.703125 41.285156 119.871094 41.285156 Z M 132.949219 33.789062 L 132.949219 42 L 131.949219 42 L 131.949219 38.097656 C 131.949219 37.851562 131.949219 37.609375 131.949219 37.371094 C 131.949219 37.132812 131.949219 36.910156 131.953125 36.703125 C 131.957031 36.496094 131.964844 36.316406 131.972656 36.15625 C 131.980469 36 131.988281 35.875 131.996094 35.789062 L 131.960938 35.789062 C 131.921875 35.96875 131.839844 36.265625 131.714844 36.675781 C 131.59375 37.082031 131.453125 37.523438 131.292969 37.988281 L 129.9375 42 L 129.117188 42 L 127.761719 37.988281 C 127.601562 37.523438 127.460938 37.082031 127.335938 36.675781 C 127.214844 36.265625 127.132812 35.96875 127.09375 35.789062 L 127.058594 35.789062 C 127.066406 35.882812 127.074219 36.011719 127.082031 36.167969 C 127.089844 36.328125 127.09375 36.507812 127.097656 36.710938 C 127.101562 36.914062 127.105469 37.132812 127.105469 37.371094 C 127.105469 37.609375 127.105469 37.851562 127.105469 38.097656 L 127.105469 42 L 126.105469 42 L 126.105469 33.789062 L 127.261719 33.789062 L 129.199219 39.453125 C 129.285156 39.714844 129.363281 39.972656 129.433594 40.21875 C 129.5 40.46875 129.539062 40.6875 129.558594 40.871094 L 129.578125 40.871094 C 129.589844 40.6875 129.625 40.472656 129.691406 40.226562 C 129.761719 39.980469 129.839844 39.726562 129.925781 39.464844 L 131.863281 33.789062 Z M 138.242188 38.214844 C 138.242188 38.460938 138.234375 38.671875 138.21875 38.851562 C 138.203125 39.03125 138.1875 39.1875 138.171875 39.324219 L 135.257812 39.324219 C 135.289062 39.996094 135.433594 40.492188 135.691406 40.808594 C 135.949219 41.128906 136.320312 41.285156 136.804688 41.285156 C 136.96875 41.285156 137.121094 41.265625 137.257812 41.226562 C 137.390625 41.1875 137.507812 41.140625 137.605469 41.082031 C 137.707031 41.027344 137.789062 40.972656 137.855469 40.917969 C 137.925781 40.863281 137.972656 40.816406 138.003906 40.785156 L 138.363281 41.464844 C 138.324219 41.503906 138.261719 41.5625 138.183594 41.636719 C 138.105469 41.710938 137.996094 41.789062 137.863281 41.863281 C 137.726562 41.9375 137.5625 42.003906 137.363281 42.058594 C 137.164062 42.113281 136.929688 42.144531 136.660156 42.144531 C 136.304688 42.144531 135.980469 42.082031 135.691406 41.964844 C 135.402344 41.84375 135.15625 41.660156 134.953125 41.410156 C 134.75 41.160156 134.59375 40.84375 134.484375 40.460938 C 134.371094 40.074219 134.316406 39.613281 134.316406 39.074219 C 134.316406 38.566406 134.375 38.125 134.488281 37.757812 C 134.605469 37.390625 134.761719 37.085938 134.960938 36.847656 C 135.15625 36.609375 135.386719 36.433594 135.648438 36.316406 C 135.910156 36.203125 136.191406 36.144531 136.492188 36.144531 C 137.042969 36.144531 137.46875 36.316406 137.777344 36.664062 C 138.089844 37.007812 138.242188 37.527344 138.242188 38.214844 Z M 136.433594 36.929688 C 136.09375 36.929688 135.820312 37.074219 135.613281 37.359375 C 135.40625 37.644531 135.289062 38.058594 135.257812 38.597656 L 137.339844 38.597656 C 137.347656 38.558594 137.351562 38.5 137.355469 38.421875 C 137.359375 38.347656 137.363281 38.269531 137.363281 38.179688 C 137.363281 37.78125 137.285156 37.476562 137.125 37.257812 C 136.964844 37.039062 136.734375 36.929688 136.433594 36.929688 Z M 139.265625 39.226562 C 139.265625 38.648438 139.34375 38.164062 139.492188 37.777344 C 139.644531 37.386719 139.839844 37.074219 140.074219 36.835938 C 140.3125 36.597656 140.585938 36.429688 140.886719 36.328125 C 141.1875 36.230469 141.488281 36.179688 141.789062 36.179688 C 141.972656 36.179688 142.132812 36.195312 142.265625 36.222656 C 142.402344 36.25 142.511719 36.285156 142.597656 36.324219 L 142.597656 33.585938 L 143.5625 33.480469 L 143.5625 42 L 142.683594 42 L 142.683594 41.394531 L 142.660156 41.394531 C 142.636719 41.441406 142.589844 41.507812 142.527344 41.589844 C 142.464844 41.671875 142.378906 41.757812 142.265625 41.839844 C 142.15625 41.921875 142.015625 41.992188 141.847656 42.054688 C 141.683594 42.113281 141.488281 42.144531 141.265625 42.144531 C 140.996094 42.144531 140.742188 42.089844 140.496094 41.980469 C 140.257812 41.875 140.046875 41.703125 139.863281 41.46875 C 139.679688 41.234375 139.535156 40.933594 139.429688 40.566406 C 139.320312 40.199219 139.265625 39.75 139.265625 39.226562 Z M 141.527344 41.285156 C 141.679688 41.285156 141.8125 41.265625 141.933594 41.226562 C 142.050781 41.1875 142.15625 41.136719 142.242188 41.078125 C 142.328125 41.019531 142.402344 40.957031 142.460938 40.894531 C 142.519531 40.828125 142.566406 40.773438 142.597656 40.726562 L 142.597656 37.203125 C 142.511719 37.148438 142.410156 37.101562 142.296875 37.0625 C 142.179688 37.023438 142.035156 37.003906 141.859375 37.003906 C 141.640625 37.003906 141.429688 37.039062 141.234375 37.113281 C 141.042969 37.191406 140.871094 37.316406 140.730469 37.488281 C 140.589844 37.664062 140.476562 37.890625 140.390625 38.167969 C 140.308594 38.445312 140.265625 38.785156 140.265625 39.191406 C 140.265625 39.589844 140.300781 39.917969 140.367188 40.183594 C 140.433594 40.453125 140.527344 40.664062 140.648438 40.828125 C 140.765625 40.992188 140.902344 41.105469 141.050781 41.179688 C 141.203125 41.25 141.359375 41.285156 141.527344 41.285156 Z M 146.003906 42 L 145.039062 42 L 145.039062 36.289062 L 146.003906 36.289062 Z M 145.527344 34.90625 C 145.328125 34.90625 145.167969 34.84375 145.050781 34.71875 C 144.929688 34.589844 144.871094 34.421875 144.871094 34.21875 C 144.871094 34.019531 144.929688 33.855469 145.050781 33.730469 C 145.167969 33.601562 145.328125 33.539062 145.527344 33.539062 C 145.71875 33.539062 145.871094 33.601562 145.988281 33.730469 C 146.109375 33.855469 146.167969 34.019531 146.167969 34.21875 C 146.167969 34.421875 146.109375 34.589844 145.988281 34.71875 C 145.871094 34.84375 145.71875 34.90625 145.527344 34.90625 Z M 151.144531 38.214844 C 151.144531 38.460938 151.136719 38.671875 151.117188 38.851562 C 151.105469 39.03125 151.089844 39.1875 151.070312 39.324219 L 148.15625 39.324219 C 148.1875 39.996094 148.332031 40.492188 148.589844 40.808594 C 148.847656 41.128906 149.21875 41.285156 149.703125 41.285156 C 149.871094 41.285156 150.019531 41.265625 150.15625 41.226562 C 150.289062 41.1875 150.40625 41.140625 150.507812 41.082031 C 150.605469 41.027344 150.6875 40.972656 150.757812 40.917969 C 150.824219 40.863281 150.871094 40.816406 150.90625 40.785156 L 151.261719 41.464844 C 151.222656 41.503906 151.164062 41.5625 151.085938 41.636719 C 151.003906 41.710938 150.898438 41.789062 150.761719 41.863281 C 150.628906 41.9375 150.460938 42.003906 150.261719 42.058594 C 150.0625 42.113281 149.828125 42.144531 149.5625 42.144531 C 149.203125 42.144531 148.878906 42.082031 148.589844 41.964844 C 148.300781 41.84375 148.054688 41.660156 147.851562 41.410156 C 147.648438 41.160156 147.492188 40.84375 147.382812 40.460938 C 147.269531 40.074219 147.214844 39.613281 147.214844 39.074219 C 147.214844 38.566406 147.273438 38.125 147.390625 37.757812 C 147.503906 37.390625 147.660156 37.085938 147.859375 36.847656 C 148.058594 36.609375 148.285156 36.433594 148.550781 36.316406 C 148.8125 36.203125 149.09375 36.144531 149.394531 36.144531 C 149.941406 36.144531 150.371094 36.316406 150.679688 36.664062 C 150.988281 37.007812 151.144531 37.527344 151.144531 38.214844 Z M 149.335938 36.929688 C 148.992188 36.929688 148.71875 37.074219 148.511719 37.359375 C 148.308594 37.644531 148.1875 38.058594 148.15625 38.597656 L 150.238281 38.597656 C 150.246094 38.558594 150.253906 38.5 150.257812 38.421875 C 150.261719 38.347656 150.261719 38.269531 150.261719 38.179688 C 150.261719 37.78125 150.183594 37.476562 150.023438 37.257812 C 149.867188 37.039062 149.636719 36.929688 149.335938 36.929688 Z M 155.546875 42 L 155.546875 38.324219 C 155.546875 37.839844 155.464844 37.492188 155.300781 37.28125 C 155.140625 37.070312 154.890625 36.964844 154.558594 36.964844 C 154.273438 36.964844 154.035156 37.039062 153.84375 37.179688 C 153.652344 37.324219 153.503906 37.460938 153.390625 37.597656 L 153.390625 42 L 152.429688 42 L 152.429688 36.289062 L 153.308594 36.289062 L 153.308594 36.929688 L 153.332031 36.929688 C 153.355469 36.882812 153.40625 36.8125 153.488281 36.722656 C 153.566406 36.632812 153.671875 36.542969 153.796875 36.460938 C 153.925781 36.378906 154.074219 36.304688 154.25 36.238281 C 154.421875 36.175781 154.621094 36.144531 154.84375 36.144531 C 155.097656 36.144531 155.328125 36.183594 155.535156 36.257812 C 155.742188 36.332031 155.914062 36.453125 156.058594 36.621094 C 156.199219 36.789062 156.3125 37.003906 156.390625 37.269531 C 156.46875 37.535156 156.511719 37.863281 156.511719 38.25 L 156.511719 42 L 155.546875 42 "/>
<path style=" stroke:none;fill-rule:nonzero;fill:rgb(94.758606%,81.028748%,1.609802%);fill-opacity:1;" d="M 54.5 62 L 56 62 L 56 82 L 52.5 82 L 52.5 62 L 54.5 62 "/>
<path style=" stroke:none;fill-rule:nonzero;fill:rgb(92.939758%,10.978699%,14.118958%);fill-opacity:1;" d="M 54.5 41.898438 L 56 41.898438 L 56 62 L 52.5 62 L 52.5 41.898438 L 54.5 41.898438 "/>
<path style=" stroke:none;fill-rule:nonzero;fill:rgb(13.729858%,12.159729%,12.548828%);fill-opacity:1;" d="M 43.390625 28.992188 C 44.414062 30.609375 45.21875 30.582031 46.425781 30.582031 C 45.425781 29.816406 44.765625 28.832031 44.449219 28.332031 L 42.578125 25.339844 C 42.394531 24.414062 41.917969 23.550781 41.203125 22.90625 C 41.441406 22.816406 41.644531 22.722656 41.761719 22.628906 C 40.542969 22.628906 39.332031 22.011719 38.664062 22.011719 C 38.238281 22.011719 37.960938 22.265625 37.960938 22.605469 C 37.988281 22.980469 38.378906 23.363281 39.09375 23.363281 C 39.257812 23.363281 39.464844 23.34375 39.691406 23.304688 C 40.082031 23.847656 40.394531 24.335938 40.394531 25.03125 C 40.394531 26.34375 38.828125 27.363281 37.246094 27.363281 C 37.15625 27.363281 37.074219 27.359375 36.984375 27.351562 C 36.839844 27.03125 36.363281 26.484375 36.363281 25.863281 C 36.363281 24.824219 37.042969 23.972656 37.042969 22.941406 C 37.042969 22.300781 36.730469 21.90625 36.609375 21.738281 C 36.804688 21.558594 37.015625 21.335938 37.066406 21.1875 C 36.953125 21.234375 36.820312 21.242188 36.625 21.242188 C 35.867188 21.242188 35.246094 21.042969 34.644531 21.042969 C 34.300781 21.042969 34.210938 21.148438 34.210938 21.25 C 34.210938 21.289062 34.214844 21.324219 34.226562 21.34375 C 34.097656 21.292969 33.976562 21.261719 33.832031 21.234375 C 33.65625 21.199219 33.464844 21.183594 33.261719 21.183594 C 32.527344 21.183594 32.269531 21.492188 32.269531 21.753906 C 32.269531 21.976562 32.445312 22.382812 32.644531 22.691406 C 32.929688 22.546875 33.269531 22.449219 33.425781 22.449219 C 33.816406 22.449219 34.160156 22.820312 34.34375 23.257812 C 34.082031 23.289062 34.03125 23.300781 33.769531 23.300781 C 33.054688 23.300781 32.570312 23.046875 32.472656 23.046875 C 32.460938 23.046875 32.441406 23.050781 32.441406 23.066406 C 32.441406 23.167969 32.644531 23.429688 33.042969 23.578125 C 33.566406 23.769531 34.355469 23.847656 34.484375 23.871094 C 34.484375 23.894531 34.351562 24.140625 34.203125 24.191406 C 34.171875 24.199219 34.148438 24.199219 34.109375 24.195312 C 33.5625 24.085938 33.410156 24.039062 32.714844 23.773438 C 32.691406 23.765625 32.679688 23.78125 32.679688 23.800781 C 32.679688 24.078125 33.390625 24.683594 34.03125 24.917969 C 33.496094 25.597656 32.832031 26.292969 32.519531 27.351562 C 32.429688 27.359375 32.34375 27.363281 32.253906 27.363281 C 30.671875 27.363281 29.105469 26.34375 29.105469 25.03125 C 29.105469 24.335938 29.417969 23.847656 29.808594 23.304688 C 30.035156 23.34375 30.242188 23.363281 30.40625 23.363281 C 31.121094 23.363281 31.511719 22.980469 31.539062 22.605469 C 31.539062 22.265625 31.265625 22.011719 30.835938 22.011719 C 30.167969 22.011719 28.960938 22.628906 27.738281 22.628906 C 27.859375 22.722656 28.058594 22.816406 28.296875 22.90625 C 27.582031 23.550781 27.105469 24.414062 26.921875 25.339844 L 25.050781 28.332031 C 24.738281 28.832031 24.074219 29.816406 23.074219 30.582031 C 24.28125 30.582031 25.085938 30.609375 26.109375 28.992188 L 27.066406 27.457031 C 27.140625 27.65625 27.226562 27.851562 27.328125 28.039062 L 25.421875 31.089844 C 25.105469 31.597656 24.449219 32.570312 23.441406 33.34375 C 24.652344 33.34375 25.453125 33.371094 26.476562 31.753906 L 28.117188 29.125 C 28.242188 29.257812 28.371094 29.382812 28.507812 29.507812 L 26.191406 33.214844 C 25.871094 33.71875 25.21875 34.691406 24.210938 35.464844 C 25.421875 35.464844 26.222656 35.492188 27.246094 33.875 L 29.503906 30.257812 C 29.652344 30.351562 29.804688 30.445312 29.964844 30.53125 L 27.207031 34.941406 C 26.890625 35.449219 26.234375 36.417969 25.226562 37.191406 C 26.4375 37.191406 27.238281 37.21875 28.265625 35.601562 L 31.101562 31.058594 C 31.269531 31.121094 31.441406 31.183594 31.613281 31.238281 L 28.40625 36.371094 C 28.09375 36.871094 27.421875 37.859375 26.425781 38.621094 C 27.636719 38.621094 28.441406 38.648438 29.464844 37.03125 L 32.882812 31.5625 C 32.914062 31.566406 32.949219 31.574219 32.984375 31.582031 C 33.078125 31.875 33.140625 32.152344 33.140625 32.425781 C 33.140625 34.144531 32.015625 35.664062 30.660156 36.835938 C 30.746094 36.875 30.898438 36.886719 31.035156 36.886719 C 31.316406 36.886719 31.496094 36.871094 31.625 36.847656 C 31.308594 37.5625 30.636719 38.484375 30.296875 38.960938 C 29.851562 38.878906 29.207031 38.816406 28.785156 38.816406 C 28.34375 38.816406 28.292969 39.078125 28.292969 39.304688 C 28.292969 39.707031 28.480469 40.027344 28.699219 40.207031 C 28.78125 40 28.945312 39.726562 29.761719 39.726562 C 29.777344 39.726562 29.808594 39.726562 29.84375 39.730469 C 29.605469 39.996094 28.859375 40.597656 28.859375 41.085938 C 28.859375 41.40625 29.214844 41.890625 29.679688 41.890625 C 29.652344 41.785156 29.65625 41.691406 29.65625 41.621094 C 29.65625 41.226562 30.003906 40.765625 30.296875 40.445312 C 30.289062 40.539062 30.292969 40.53125 30.292969 40.640625 C 30.292969 41.574219 30.378906 42 30.96875 42 C 31.257812 42 31.460938 41.839844 31.527344 41.792969 C 31.144531 41.441406 31.125 41.160156 31.125 40.640625 C 31.125 40.503906 31.125 40.371094 31.128906 40.1875 C 31.128906 40.070312 31.128906 39.910156 31.105469 39.796875 C 31.320312 39.765625 31.40625 39.765625 31.566406 39.765625 C 31.566406 39.765625 32.40625 39.699219 32.609375 40.136719 C 32.835938 39.925781 33.167969 39.632812 33.167969 39.308594 C 33.167969 39.09375 33.066406 38.847656 32.632812 38.847656 C 32.46875 38.847656 31.957031 38.949219 31.523438 38.949219 C 31.640625 38.691406 32.15625 37.9375 32.601562 37.390625 C 32.667969 37.601562 32.773438 37.832031 33.007812 38.019531 C 33.042969 37.667969 33.246094 36.554688 33.796875 35.90625 C 33.863281 36.34375 33.949219 36.796875 33.949219 37.746094 C 33.949219 40.058594 33.390625 41.769531 32.210938 42.09375 C 32.363281 42.363281 32.691406 42.601562 33.027344 42.601562 C 33.457031 42.601562 33.695312 42.113281 33.933594 41.65625 C 34.058594 41.992188 34.40625 42.828125 34.75 42.828125 C 35.09375 42.828125 35.441406 41.992188 35.566406 41.65625 C 35.804688 42.113281 36.042969 42.601562 36.472656 42.601562 C 36.8125 42.601562 37.136719 42.363281 37.289062 42.09375 C 36.109375 41.769531 35.550781 40.058594 35.550781 37.746094 C 35.550781 36.796875 35.636719 36.34375 35.703125 35.90625 C 36.253906 36.554688 36.460938 37.667969 36.492188 38.019531 C 36.726562 37.832031 36.832031 37.601562 36.898438 37.390625 C 37.34375 37.9375 37.859375 38.691406 37.976562 38.949219 C 37.546875 38.949219 37.03125 38.847656 36.867188 38.847656 C 36.433594 38.847656 36.332031 39.09375 36.332031 39.308594 C 36.332031 39.632812 36.664062 39.925781 36.890625 40.136719 C 37.09375 39.699219 37.933594 39.765625 37.933594 39.765625 C 38.097656 39.765625 38.179688 39.765625 38.394531 39.796875 C 38.375 39.910156 38.371094 40.070312 38.375 40.1875 C 38.375 40.371094 38.375 40.503906 38.375 40.640625 C 38.375 41.160156 38.355469 41.441406 37.972656 41.792969 C 38.042969 41.839844 38.242188 42 38.53125 42 C 39.121094 42 39.207031 41.574219 39.207031 40.640625 C 39.207031 40.53125 39.210938 40.539062 39.203125 40.445312 C 39.496094 40.765625 39.847656 41.226562 39.847656 41.621094 C 39.847656 41.691406 39.851562 41.785156 39.824219 41.890625 C 40.289062 41.890625 40.640625 41.40625 40.640625 41.085938 C 40.640625 40.597656 39.894531 39.996094 39.65625 39.730469 C 39.695312 39.726562 39.722656 39.726562 39.738281 39.726562 C 40.554688 39.726562 40.71875 40 40.800781 40.207031 C 41.019531 40.027344 41.207031 39.707031 41.207031 39.304688 C 41.207031 39.078125 41.15625 38.816406 40.714844 38.816406 C 40.292969 38.816406 39.648438 38.878906 39.203125 38.960938 C 38.863281 38.484375 38.191406 37.5625 37.878906 36.847656 C 38.003906 36.871094 38.183594 36.886719 38.464844 36.886719 C 38.601562 36.886719 38.753906 36.875 38.839844 36.835938 C 37.488281 35.664062 36.359375 34.144531 36.359375 32.425781 C 36.359375 32.152344 36.421875 31.875 36.515625 31.582031 C 36.550781 31.574219 36.585938 31.566406 36.621094 31.5625 L 40.039062 37.03125 C 41.0625 38.648438 41.863281 38.621094 43.074219 38.621094 C 42.078125 37.859375 41.40625 36.871094 41.09375 36.371094 L 37.886719 31.238281 C 38.0625 31.183594 38.230469 31.121094 38.398438 31.058594 L 41.238281 35.601562 C 42.261719 37.21875 43.0625 37.191406 44.273438 37.191406 C 43.265625 36.417969 42.613281 35.449219 42.292969 34.941406 L 39.539062 30.53125 C 39.695312 30.445312 39.847656 30.351562 39.996094 30.257812 L 42.253906 33.875 C 43.277344 35.492188 44.078125 35.464844 45.289062 35.464844 C 44.28125 34.691406 43.628906 33.71875 43.308594 33.214844 L 40.992188 29.507812 C 41.128906 29.382812 41.261719 29.257812 41.382812 29.125 L 43.023438 31.753906 C 44.046875 33.371094 44.847656 33.34375 46.058594 33.34375 C 45.050781 32.570312 44.398438 31.597656 44.078125 31.089844 L 42.171875 28.039062 C 42.273438 27.851562 42.363281 27.65625 42.433594 27.457031 Z M 28.085938 25.476562 C 28.085938 24.339844 28.914062 23.4375 29.207031 23.183594 C 29.277344 23.199219 29.347656 23.214844 29.417969 23.230469 C 29.105469 23.609375 28.558594 24.242188 28.558594 25.085938 C 28.558594 26.75 30.339844 28.199219 32.359375 28.199219 C 32.347656 28.34375 32.339844 28.492188 32.339844 28.648438 C 32.339844 28.894531 32.351562 29.121094 32.378906 29.339844 C 30.09375 29.324219 28.085938 27.472656 28.085938 25.476562 Z M 31.175781 39.152344 L 31.164062 39.191406 L 31.203125 39.191406 C 31.84375 39.191406 32.15625 39.144531 32.363281 39.113281 C 32.472656 39.101562 32.550781 39.089844 32.632812 39.089844 C 32.800781 39.089844 32.925781 39.105469 32.925781 39.308594 C 32.925781 39.445312 32.765625 39.660156 32.609375 39.789062 C 32.375 39.566406 32.046875 39.523438 31.566406 39.523438 C 31.34375 39.523438 31.050781 39.5625 30.890625 39.585938 L 30.867188 39.585938 L 30.839844 39.589844 L 30.847656 39.664062 C 30.867188 39.796875 30.890625 39.964844 30.890625 40.1875 L 30.886719 40.390625 L 30.882812 40.640625 C 30.882812 41.183594 30.960938 41.492188 31.148438 41.726562 C 31.101562 41.746094 31.019531 41.761719 30.96875 41.761719 C 30.632812 41.761719 30.53125 41.613281 30.53125 40.640625 C 30.53125 40.445312 30.523438 40.261719 30.515625 40.140625 L 30.507812 39.960938 L 30.464844 39.992188 C 29.960938 40.375 29.445312 41.058594 29.414062 41.570312 C 29.261719 41.472656 29.097656 41.253906 29.097656 41.085938 C 29.097656 40.804688 29.519531 40.386719 30.003906 39.902344 L 30.28125 39.621094 L 30.320312 39.585938 L 30.226562 39.566406 C 30.121094 39.535156 29.929688 39.488281 29.761719 39.488281 C 29.21875 39.488281 28.878906 39.589844 28.667969 39.820312 C 28.589844 39.710938 28.527344 39.457031 28.527344 39.304688 C 28.527344 39.210938 28.546875 39.140625 28.585938 39.101562 C 28.632812 39.054688 28.707031 39.054688 28.773438 39.054688 L 28.785156 39.054688 C 29.386719 39.054688 30.101562 39.164062 30.382812 39.210938 L 30.402344 39.214844 L 30.410156 39.199219 C 30.460938 39.136719 31.605469 37.609375 31.902344 36.800781 C 31.96875 36.777344 32.03125 36.757812 32.148438 36.757812 C 32.375 36.757812 32.4375 36.910156 32.5 37.140625 C 31.785156 38.011719 31.339844 38.6875 31.175781 39.152344 Z M 37.351562 36.757812 C 37.472656 36.757812 37.53125 36.777344 37.597656 36.800781 C 37.898438 37.609375 39.042969 39.136719 39.089844 39.199219 L 39.101562 39.214844 L 39.117188 39.210938 C 39.398438 39.164062 40.113281 39.054688 40.714844 39.054688 L 40.726562 39.054688 C 40.792969 39.054688 40.867188 39.054688 40.914062 39.101562 C 40.953125 39.140625 40.972656 39.210938 40.972656 39.304688 C 40.972656 39.457031 40.910156 39.710938 40.835938 39.820312 C 40.625 39.589844 40.28125 39.488281 39.738281 39.488281 C 39.574219 39.488281 39.378906 39.535156 39.273438 39.566406 L 39.230469 39.574219 L 39.179688 39.585938 L 39.496094 39.902344 C 39.984375 40.386719 40.402344 40.804688 40.402344 41.085938 C 40.402344 41.253906 40.238281 41.472656 40.089844 41.570312 C 40.054688 41.058594 39.539062 40.375 39.035156 39.992188 L 38.992188 39.960938 L 38.984375 40.140625 C 38.976562 40.261719 38.96875 40.445312 38.96875 40.640625 C 38.96875 41.613281 38.867188 41.761719 38.53125 41.761719 C 38.480469 41.761719 38.402344 41.746094 38.351562 41.726562 C 38.542969 41.492188 38.617188 41.183594 38.617188 40.640625 L 38.613281 40.390625 L 38.609375 40.1875 C 38.609375 39.964844 38.632812 39.796875 38.652344 39.664062 L 38.660156 39.589844 L 38.609375 39.585938 C 38.453125 39.5625 38.15625 39.523438 37.933594 39.523438 C 37.453125 39.523438 37.128906 39.566406 36.890625 39.789062 C 36.734375 39.660156 36.574219 39.445312 36.574219 39.308594 C 36.574219 39.105469 36.703125 39.089844 36.867188 39.089844 C 36.949219 39.089844 37.027344 39.101562 37.136719 39.113281 C 37.34375 39.144531 37.65625 39.191406 38.296875 39.191406 L 38.335938 39.191406 L 38.324219 39.152344 C 38.160156 38.6875 37.714844 38.011719 37 37.140625 C 37.0625 36.910156 37.128906 36.757812 37.351562 36.757812 Z M 34.703125 23.457031 C 34.628906 23.160156 34.480469 22.855469 34.285156 22.628906 C 34.109375 22.417969 33.820312 22.171875 33.425781 22.171875 C 33.246094 22.171875 32.949219 22.257812 32.757812 22.335938 C 32.683594 22.207031 32.546875 21.894531 32.546875 21.753906 C 32.546875 21.609375 32.792969 21.460938 33.261719 21.460938 C 34.292969 21.460938 34.910156 21.929688 34.910156 22.710938 C 34.910156 22.984375 34.800781 23.234375 34.703125 23.457031 Z M 35.164062 22.441406 C 35.128906 22.21875 35.042969 22.019531 34.914062 21.847656 C 34.921875 21.644531 35.003906 21.453125 35.332031 21.609375 C 35.15625 21.789062 35.289062 22.109375 35.289062 22.109375 C 35.289062 22.109375 35.652344 21.941406 35.578125 21.707031 C 36.109375 21.832031 35.726562 22.550781 35.164062 22.441406 Z M 37.171875 29.339844 C 37.199219 29.113281 37.214844 28.882812 37.214844 28.648438 C 37.214844 28.519531 37.21875 28.367188 37.203125 28.199219 C 39.195312 28.171875 40.941406 26.734375 40.941406 25.085938 C 40.941406 24.242188 40.394531 23.609375 40.085938 23.230469 C 40.15625 23.214844 40.222656 23.199219 40.292969 23.183594 C 40.585938 23.4375 41.414062 24.339844 41.414062 25.476562 C 41.414062 27.460938 39.433594 29.296875 37.171875 29.339844 "/>
<path style=" stroke:none;fill-rule:nonzero;fill:rgb(13.729858%,12.159729%,12.548828%);fill-opacity:1;" d="M 56 22 L 56 42 L 52.5 42 L 52.5 22 L 56 22 "/>
</g>
</svg>
