<?xml version="1.0" encoding="utf-8"?>
<!-- Generator: Adobe Illustrator 25.2.2, SVG Export Plug-In . SVG Version: 6.00 Build 0)  -->
<svg version="1.1" id="Ebene_1" xmlns="http://www.w3.org/2000/svg" xmlns:xlink="http://www.w3.org/1999/xlink" x="0px" y="0px"
	 viewBox="0 0 409.5 54" style="enable-background:new 0 0 409.5 54;" xml:space="preserve">
<style type="text/css">
	.st0{fill:#FFFFFF;}
	.st1{fill:#E30613;}
</style>
<path class="st0" d="M408.5,28.7c0-0.1-0.1-0.2,0-0.4c-0.2,0-0.4-0.2-0.6-0.3c-0.1-0.2-0.3-0.3-0.6-0.3c-0.4,0-0.8,0.1-1.3,0.3
	c-0.4,0.2-0.9,0.4-1.3,0.7c-0.6,0.1-1.1,0.2-1.7,0.5c-0.6,0.2-1,0.5-1.5,0.7c-0.3,0.1-0.7,0.1-1,0.2s-0.6,0.2-0.9,0.3
	c-0.3,0.1-0.6,0.2-0.9,0.3c-0.3,0.1-0.6,0.1-0.9,0c0.2-0.2,0.3-0.4,0.4-0.7c0.1-0.2,0.2-0.5,0.4-0.7c0.2-0.3,0.5-0.6,0.8-0.9
	s0.6-0.6,0.8-0.9c0.1-0.1,0.1-0.1,0.1-0.3c0-0.1,0-0.2,0.1-0.3c0.2-0.3,0.5-0.6,0.9-0.9c0.3-0.3,0.6-0.6,0.9-0.9
	c0.5-0.6,1-1.3,1.5-2s0.8-1.5,1-2.5c-0.1-0.4-0.3-0.7-0.5-1s-0.4-0.6-0.7-0.9c-0.4-0.1-0.8-0.2-1.1-0.4c-0.3-0.2-0.6-0.6-0.7-1
	c-0.8-0.4-1.6-0.6-2.6-0.6c-0.9,0-1.9,0-2.8,0.2c-1,0.2-1.9,0.4-2.8,0.7c-0.9,0.3-1.7,0.7-2.5,1c-0.1,0.2-0.2,0.4-0.3,0.7
	c-0.1,0.2-0.1,0.5-0.2,0.7c0.1,0.2,0.2,0.4,0.2,0.6c0,0.3,0.1,0.5,0.2,0.8s0.2,0.5,0.3,0.8c0.1,0.2,0.3,0.4,0.5,0.6
	c0.4,0,0.7,0,1.1,0c0.4-0.1,0.7,0,1,0c0.3-0.1,0.7-0.3,1.1-0.5s0.9-0.4,1.4-0.6s1-0.3,1.6-0.4c0.5-0.1,1.1-0.1,1.6,0
	c-0.3,0.5-0.7,0.9-1.1,1.3s-0.7,0.8-1,1.3c-1,1-1.9,2.1-2.6,3.3c-0.7,1.2-1.4,2.4-2.1,3.6c-0.1,0.4-0.1,0.8-0.1,1.3
	c0,0.5,0.1,1,0.2,1.4c0.1,0.5,0.3,0.9,0.6,1.3c0.3,0.4,0.6,0.7,1,1c0.9,0.2,2,0.1,3.3-0.1c1.6-0.5,3.2-1.1,4.8-1.8
	c1.6-0.7,3.1-1.3,4.7-1.9c0-0.1,0.1-0.2,0.2-0.3c0.1-0.1,0.2-0.2,0.2-0.3c0.3,0.1,0.6,0.1,0.8-0.1c0.3-0.2,0.5-0.4,0.6-0.7
	c0.1-0.3,0.2-0.6,0.1-0.9s-0.3-0.5-0.7-0.6C408.5,29,408.5,28.8,408.5,28.7 M383.3,34.8c-0.2-0.1-0.4-0.2-0.7-0.2
	c-0.3,0-0.6,0-0.9,0c-0.2,0-0.4,0-0.7,0c-0.3,0-0.4,0-0.5-0.1l-0.4-0.1l-0.2,0.4c-0.1,0.3-0.3,0.6-0.3,0.7c-0.1,0.1-0.1,0.3-0.2,0.4
	c-0.1,0.1-0.1,0.2-0.2,0.3s-0.2,0.3-0.4,0.5l0.4,0.5l-0.3,0.3l0.5,0.3c0.1,0.1,0.1,0.2,0.2,0.5c0.1,0.1,0.1,0.2,0.2,0.3
	c0,0.1,0.2,0.3,0.4,0.5c0.2,0.1,0.3,0.1,0.5,0.2s0.4,0.2,0.6,0.4l0.3-0.1c0.2,0,0.5-0.1,0.8-0.3l0.4-0.1v-0.4l0.1-0.1
	c0.1,0,0.1-0.1,0.2-0.1c0.1-0.1,0.2-0.2,0.4-0.3c0.1-0.1,0.2-0.2,0.3-0.4v-0.4c0-0.1,0-0.2-0.1-0.2c0,0,0,0,0-0.1c0,0,0,0,0-0.1
	c0,0,0-0.1,0.1-0.3c0-0.2,0-0.4,0.1-0.6c0-0.2,0.1-0.4,0.1-0.6c-0.1-0.1-0.1-0.3-0.2-0.4c0-0.1-0.1-0.3-0.2-0.4L383.3,34.8z
	 M370.3,40.6c0.2,0,0.5-0.1,0.7-0.2c0.2-0.1,0.5-0.1,0.7-0.2c0.2-0.1,0.4-0.1,0.7-0.2c0.2-0.1,0.4-0.1,0.6-0.2
	c0.5-0.1,1.1-0.1,1.6-0.1c0.4-0.2,0.7-0.3,0.9-0.3c0.1,0,0.1,0,0.2,0s0.2,0,0.3-0.1c0.1-0.1,0.2-0.2,0.2-0.3
	c0.1-0.1,0.3-0.2,0.5-0.3l-0.1-0.3c0.1-0.1,0.1-0.2,0-0.4c0-0.1-0.1-0.2-0.2-0.3l-0.4-1.2c-0.2-0.1-0.4-0.2-0.6-0.2
	s-0.4-0.1-0.7-0.1c-0.2,0-0.5-0.1-0.7-0.1s-0.5-0.2-0.7-0.3c-0.1,0-0.2,0-0.3,0c-0.1,0-0.2,0-0.2,0s-0.2,0-0.4-0.1
	c-0.2,0.1-0.5,0.1-0.7,0.2c-0.3,0.1-0.5,0.1-0.8,0.2c-0.7,0.1-1.3,0.3-2,0.5s-1.2,0.5-1.7,0.9c-0.2,0-0.4,0-0.6,0
	c-0.1,0-0.2,0-0.2,0c-0.1,0-0.2,0.1-0.3,0.1c-0.1-0.7-0.1-1.3,0-1.9c0.1-0.6,0.2-1.2,0.3-1.8c0.1-0.3,0.1-0.7,0.2-1s0.1-0.7,0-1.2
	c0.1-0.1,0.1-0.2,0.2-0.3c0-0.1,0.1-0.2,0.1-0.3c0-0.1,0-0.2,0.1-0.3c0-0.1,0-0.2,0.1-0.3c0-0.4,0-0.8,0.1-1.1
	c0.1-0.3,0.1-0.6,0.2-0.9s0.1-0.6,0.2-0.9s0.1-0.6,0.1-1c0.1,0,0.1-0.1,0.2-0.3c0-0.4-0.1-0.8-0.3-1c-0.2-0.2-0.4-0.4-0.7-0.6
	l-0.1-0.1c0,0-0.2-0.1-0.3-0.2c-0.3,0.1-0.7,0.1-1.2,0s-0.9-0.2-1.3-0.3c-0.1,0-0.2,0.1-0.3,0.1c-0.1,0.1-0.2,0.1-0.3,0.3
	c0,1-0.1,2-0.2,2.8c-0.1,0.9-0.3,1.8-0.4,2.7c-0.1,0.5-0.2,1.1-0.3,1.6c-0.1,0.5-0.2,1.2-0.3,2c-0.1,0.2-0.1,0.4-0.1,0.6
	c0,0.2,0,0.4,0.1,0.6c-0.1,0.2-0.2,0.5-0.2,0.8s-0.1,0.6-0.1,0.9c0,0.1,0,0.2,0,0.3s0,0.2,0,0.2c0,0.4,0,0.7,0,1.1
	c0,0.4,0.1,0.8,0.2,1.1c0.1,0.4,0.3,0.7,0.5,1s0.4,0.6,0.7,0.8c0,0.1,0.1,0.3,0.2,0.3c0.1,0.1,0.1,0.1,0.2,0.2
	c0.1,0.1,0.2,0.2,0.3,0.4c0.6,0.4,1.4,0.5,2.4,0.3c0.6-0.1,1.2-0.3,1.8-0.6c0.6-0.3,1.1-0.6,1.6-0.8L370.3,40.6z M354.3,39.1
	c-0.5,0.4-1.1,0.8-1.9,1.1c-0.4,0.1-0.8,0.2-1.2,0.4c-0.4,0.2-0.9,0.3-1.3,0.4c-0.5,0.1-0.9,0.2-1.3,0.2s-0.9-0.1-1.2-0.3
	c-0.1-0.5-0.1-0.9,0-1.2c0.1-0.4,0.2-0.7,0.4-1.1c0.1-0.3,0.3-0.7,0.5-1s0.3-0.7,0.4-1.1c0.1-0.1,0.1-0.1,0.2-0.1c0,0,0.1,0,0.1-0.1
	c0.3-0.6,0.7-1.2,1.2-1.7s0.9-1.1,1.4-1.6c0.1,0.1,0.2,0.1,0.4,0.1c0.1,0,0.3,0,0.4,0s0.2-0.1,0.3-0.1c0.1-0.1,0.1-0.2,0.1-0.4
	c0.1,0.1,0.2,0.1,0.3,0c0.1-0.1,0.1-0.2,0.2-0.3c0.5,0.5,1,1.1,1.4,1.7c0.4,0.6,0.9,1.2,1.4,1.7c0,0.2,0.1,0.3,0.1,0.4
	c0,0.1,0.1,0.2,0.2,0.3c0,0.3,0,0.5-0.1,0.6c-0.1,0.2-0.2,0.3-0.2,0.6C355.3,38.3,354.8,38.7,354.3,39.1 M357.2,32.4
	c-0.5-0.8-1.1-1.4-1.7-2.1c0.1-0.1,0.1-0.2,0-0.4c0-0.1-0.1-0.1-0.2-0.1s-0.1-0.1-0.2-0.2c0.2-0.1,0.3-0.3,0.3-0.5s0-0.4,0.1-0.6
	c-0.1-0.2-0.2-0.4-0.3-0.5c-0.1-0.1-0.2-0.2-0.3-0.5c-0.1,0-0.1,0-0.1,0.1c0,0-0.1,0.1-0.2,0.1c-0.1-0.2-0.2-0.3-0.3-0.4
	c-0.1-0.1-0.2-0.1-0.4-0.2c-0.1-0.1-0.3-0.1-0.4-0.2s-0.2-0.2-0.3-0.4c-0.2-0.2-0.5-0.2-0.8-0.2s-0.5,0-0.8-0.1
	c-0.2,0.2-0.4,0.4-0.5,0.5c-0.1,0.2-0.2,0.4-0.3,0.7c-0.2,0.1-0.4,0.1-0.5,0.1s-0.2,0.1-0.4,0.1c-0.2,0.3-0.3,0.6-0.4,0.8
	c-0.1,0.2-0.3,0.5-0.6,0.7l0.1,0.3c-0.1,0.1-0.3,0.2-0.4,0.3c-0.1,0.1-0.2,0.2-0.3,0.3c-0.1,0.1-0.2,0.2-0.3,0.3
	c-0.1,0.1-0.2,0.2-0.4,0.3c-0.1,0.3-0.3,0.5-0.5,0.7s-0.4,0.4-0.5,0.7c-0.1,0-0.2,0.1-0.2,0.2c-0.1,0.1-0.1,0.2-0.1,0.3
	s-0.1,0.2-0.1,0.2c-0.1,0.1-0.1,0.1-0.3,0.1c-0.4,0.7-0.8,1.4-1.2,2.2c-0.4,0.7-0.8,1.5-1.1,2.3c-0.3,0.8-0.4,1.7-0.5,2.6
	c-0.1,0.9,0.1,1.9,0.5,2.9c0.3,0.5,0.7,0.9,1.1,1.3c0.4,0.4,0.9,0.7,1.4,1c0.5,0.2,1.1,0.4,1.7,0.4s1.2-0.1,1.9-0.3
	c0.7,0,1.4-0.1,1.9-0.2c0.5-0.2,1.1-0.4,1.6-0.7c0.2,0,0.5-0.1,0.8-0.2c0.3-0.1,0.6-0.2,0.9-0.4s0.6-0.3,0.8-0.5
	c0.3-0.2,0.5-0.3,0.7-0.5c0.3-0.1,0.5-0.2,0.7-0.3s0.5-0.2,0.6-0.4c0.3-0.3,0.6-0.6,0.9-0.9c0.3-0.3,0.6-0.6,0.8-1
	c0.2-0.2,0.3-0.4,0.4-0.6c0.1-0.3,0.2-0.6,0.2-0.9c0-0.3,0-0.6,0-0.9c0-0.3-0.1-0.6-0.2-0.9c-0.1-0.2-0.2-0.4-0.3-0.6
	s-0.2-0.4-0.4-0.6c-0.1-0.2-0.2-0.4-0.3-0.6c-0.1-0.2-0.2-0.4-0.2-0.6C358.3,33.8,357.7,33.1,357.2,32.4 M339.5,41.8
	c0-0.1,0.1-0.1,0.1-0.2c0-0.1,0.1-0.1,0.1-0.2c0-0.1,0.1-0.1,0.2-0.1c0.2-0.8,0.5-1.7,0.8-2.5s0.7-1.6,1.1-2.3s0.8-1.5,1.2-2.2
	c0.4-0.7,0.8-1.4,1.1-2c-0.1-0.3-0.1-0.6,0-0.8c0.1-0.2,0.2-0.5,0.2-0.8c-0.1,0.1-0.1,0.1-0.1,0c0,0,0-0.1,0-0.2s0-0.2,0-0.3
	c0-0.1,0-0.2-0.1-0.2c-0.2-0.2-0.3-0.4-0.3-0.5c-0.1-0.1-0.1-0.2-0.2-0.3c0-0.1-0.1-0.2-0.1-0.2c-0.1-0.1-0.1-0.2-0.2-0.4
	c-0.2,0.1-0.4,0.1-0.5,0.1s-0.3,0-0.4,0s-0.2,0-0.4-0.1c-0.1,0-0.3,0-0.5,0c-0.8,1.1-1.4,2.1-1.9,2.9c-0.5,0.9-0.9,1.7-1.2,2.5
	c-0.4,0.8-0.7,1.7-1,2.5c-0.3,0.9-0.7,1.9-1.2,3c-0.2-0.3-0.3-0.7-0.5-1.2c-0.1-0.5-0.3-1-0.4-1.5s-0.3-1-0.5-1.6
	c-0.2-0.5-0.4-1-0.6-1.5s-0.5-0.9-0.8-1.2s-0.7-0.6-1.1-0.8c0-0.3-0.1-0.5-0.4-0.8s-0.7-0.4-1.1-0.3c-0.1,0.2-0.3,0.4-0.5,0.6
	s-0.3,0.4-0.4,0.6s0,0.5,0,0.9c0.1,0.4,0.2,0.8,0.3,1.2s0.3,0.9,0.4,1.4s0.3,0.9,0.3,1.3c0.1,0.4,0.2,0.9,0.2,1.4
	c0.1,0.5,0.2,0.9,0.3,1.4c0.1,0.2,0.2,0.4,0.3,0.5c0.1,0.1,0.2,0.3,0.2,0.5c0.1,0.4,0.2,0.8,0.3,1.2c0.2,0.4,0.3,0.9,0.5,1.3
	c0.2,0.4,0.4,0.9,0.6,1.3c0.2,0.4,0.4,0.8,0.5,1.2c0.1,0,0.3,0.1,0.5,0.4c0.2,0.3,0.3,0.6,0.3,0.9c0.3,0,0.5,0.1,0.7,0.3
	s0.4,0.4,0.6,0.5c0.6,0.3,1.1,0.2,1.7-0.2c0.5-0.4,0.9-1,1-1.8c-0.1-0.2-0.1-0.4-0.1-0.6c0-0.1,0-0.3-0.1-0.5
	c0.1-0.2,0.3-0.4,0.4-0.6c0.1-0.2,0.3-0.5,0.4-0.7s0.2-0.5,0.2-0.8c0.1-0.3,0.1-0.5,0-0.8C339.4,41.9,339.4,41.9,339.5,41.8"/>
<path class="st0" d="M250.6,42.8c0,1.3,0.2,2.1,0.6,2.5c1,0.5,2.2,0.8,3.4,0.7v1.5h-12.9V46c1.2,0,2.4-0.2,3.4-0.7
	c0.4-0.3,0.6-1.1,0.5-2.5V29.9c0-4.6-1.9-6.9-5.6-6.8c-1.3,0-2.6,0.4-3.7,1.1c-1.1,0.7-2,1.7-2.6,2.8c-0.4,0.9-0.6,2-0.5,3v12.8
	c0,1.3,0.1,2.1,0.6,2.5c1.1,0.5,2.2,0.8,3.4,0.7v1.5h-12.8V46c1.2,0,2.4-0.2,3.4-0.7c0.4-0.3,0.6-1.1,0.5-2.5V25.6
	c0.1-0.7,0-1.3-0.3-1.9c-0.4-0.3-0.9-0.5-1.4-0.5l-2-0.3v-1.3l7.8-1.3l0.8,4.1c1.5-1.1,3-2,4.6-2.9c1.5-0.8,3.3-1.2,5-1.2
	c5.1,0.1,7.7,3,7.8,8.7V42.8z M201,34.1c0,3.8,0.6,6.7,1.8,8.8c1,2.1,3.1,3.3,5.3,3.3c2.3,0.1,4.5-1.2,5.5-3.3
	c1.1-2.1,1.7-5.1,1.7-8.8c0-7.9-2.4-11.9-7.2-12.1c-2.2-0.1-4.3,1.2-5.3,3.2C201.6,27.3,201,30.3,201,34.1 M208.1,20.1
	c8.5,0.1,12.7,4.8,12.6,14s-4.3,13.9-12.6,14c-8.4-0.2-12.6-4.8-12.6-14S199.7,20.3,208.1,20.1 M188.7,42.8
	c-0.1,0.9,0.1,1.8,0.6,2.5c0.4,0.2,0.8,0.4,1.2,0.4l2.1,0.3v1.5h-12.8V46c1.2,0,2.3-0.2,3.4-0.7c0.5-0.7,0.7-1.6,0.6-2.5V29.9
	c0-4.6-1.9-6.9-5.6-6.8c-1.3,0-2.6,0.4-3.8,1.1c-1.1,0.7-2,1.7-2.6,2.8c-0.4,0.9-0.5,2-0.5,3v12.8c-0.1,0.9,0.1,1.8,0.6,2.5
	c0.4,0.2,0.8,0.4,1.2,0.4l2.1,0.3v1.5h-12.8V46c1.2,0,2.3-0.2,3.4-0.7c0.5-0.7,0.7-1.6,0.5-2.5V12.5c0.1-0.6,0-1.3-0.3-1.9
	c-0.4-0.4-0.9-0.6-1.4-0.6l-2-0.3V8.4L171,7l0.4,0.3v16.9c1.5-1.1,3-2.1,4.6-2.9c1.5-0.8,3.2-1.2,4.9-1.2c5.1,0.1,7.7,3,7.8,8.7
	V42.8z M151.6,23v16.9c0,2,0.4,3.5,1.1,4.3c0.5,0.8,1.4,1.2,2.4,1.2c1.3,0,2.6-0.2,3.7-0.7l0.4,1.1c-0.9,0.6-1.9,1.1-2.9,1.5
	c-1.2,0.5-2.5,0.8-3.9,0.9c-0.6,0-1.1-0.1-1.6-0.2c-0.7-0.2-1.4-0.4-2-0.8c-0.7-0.5-1.2-1.1-1.6-1.9c-0.5-1-0.7-2.1-0.7-3.3V23h-3.8
	v-2.2h4l3.2-6.9h1.5v6.9h6.8V23H151.6z M136.7,40.6c-0.1,1.2,0.1,2.4,0.6,3.5c0.3,0.7,0.7,1.1,1.2,1.2c0.9,0.2,1.8,0.2,2.7-0.1
	l0.3,1.3c-1.9,1-4,1.6-6.2,1.6c-0.8,0-1.6-0.3-2.1-0.9c-0.6-0.7-1-1.5-1.3-2.3c-0.9,0.6-1.9,1.2-3.3,1.9c-1.4,0.8-3,1.2-4.6,1.3
	c-2.2,0.1-4.2-0.8-5.7-2.4c-1.3-1.5-2-3.4-2-5.3c0-1.3,0.4-2.6,1.1-3.8c0.9-1.3,2.3-2.3,3.9-2.7l6.5-2.1c1.5-0.4,2.9-1.1,4.2-2v-2.3
	c0-2.1-0.5-3.6-1.4-4.3s-1.9-1.1-3-1.1c-1.1,0-2.2,0.4-3,1.1c-1.2,1.1-2.1,2.6-2.4,4.2c-0.1,0.4-0.2,0.8-0.5,1.1
	c-0.3,0.3-0.8,0.5-1.2,0.5c-0.7,0-1.3-0.3-1.8-0.7c-0.7-0.4-1.2-1.1-1.2-1.9c0-1.6,1.1-3,3.2-4.3c3.8-2,8.2-2.5,12.3-1.2
	c1,0.3,1.9,0.9,2.6,1.7c0.5,0.7,0.9,1.5,1.1,2.4c0.1,0.8,0.2,1.7,0.2,2.5L136.7,40.6z M131.9,32c-0.8,0.5-1.7,0.9-2.6,1.3
	c-1.2,0.4-2.3,0.9-3.4,1.4c-2.8,1-4.2,2.6-4.2,5c-0.1,1.4,0.4,2.8,1.2,4c0.9,1.1,2.3,1.7,3.7,1.6c0.6,0,1.2-0.1,1.8-0.3
	c0.6-0.2,1.2-0.5,1.7-0.9c0.5-0.5,1-1.1,1.4-1.7c0.3-0.9,0.5-1.8,0.5-2.7L131.9,32L131.9,32z M90.1,12.5c0.1-0.7,0-1.4-0.3-2
	c-0.4-0.3-0.9-0.5-1.4-0.5l-2-0.2V8.4L94.7,7l0.4,0.3v25.6h0.1c2.5-3.5,5.2-7,8-10.6c0.4-0.5,0.9-1,1.4-1.3c0.6-0.2,1.2-0.3,1.9-0.3
	h5.4v1.5c-1.2,0.1-2.4,0.3-3.5,0.8c-1,0.4-1.8,0.9-2.6,1.6c-2.2,1.7-4.2,3.7-6,5.9c-0.2,0.2-0.3,0.4-0.4,0.7c0,0.2,0.1,0.4,0.2,0.6
	c2.8,4.1,6,7.9,9.4,11.5c1.2,1.4,2.8,2.4,4.5,3v1.5l-4-0.2c-0.9-0.1-1.8-0.3-2.7-0.7c-1.1-0.5-2.1-1.2-3-2
	c-3.2-3.5-6.1-7.2-8.7-11.2H95v9.1c0,1.3,0.2,2.1,0.6,2.5c1.1,0.5,2.2,0.8,3.4,0.7v1.5H86.2v-1.6c1.2,0,2.3-0.2,3.4-0.7
	c0.4-0.3,0.6-1.1,0.5-2.5V12.5z M74.6,45.3c1.7,0.1,3.3-0.4,4.7-1.5c1.3-1.2,2.3-2.7,2.9-4.3l1.6,0.8c-0.6,2.5-2.1,4.6-4.2,6
	c-1.8,1.1-3.8,1.8-5.9,1.8c-8.1,0-12.2-4.6-12.2-13.7c-0.1-3.5,0.9-7,2.9-9.9c1.9-2.8,5.3-4.3,10-4.4c2.4-0.1,4.7,0.5,6.8,1.6
	c1.6,1.1,2.4,2.3,2.4,3.7c0.1,0.9-0.4,1.7-1.1,2.1c-0.6,0.4-1.3,0.6-2,0.7c-0.4,0-0.7-0.1-1-0.4s-0.5-0.6-0.6-1
	c-1-3.1-2.6-4.7-5-4.7c-1.9,0-3.7,1-4.7,2.6c-1.3,1.8-2,4.7-2.1,8.8c0,2.7,0.5,5.4,1.5,7.9c0.5,1.1,1.4,2.1,2.4,2.8
	C72,44.9,73.3,45.3,74.6,45.3 M54.1,40.6c-0.1,1.2,0.1,2.4,0.6,3.5c0.3,0.7,0.7,1.1,1.2,1.2c0.9,0.2,1.8,0.2,2.7-0.1l0.3,1.3
	c-1.9,1-4.1,1.6-6.2,1.6c-0.8,0-1.6-0.3-2.1-0.9c-0.6-0.7-1-1.5-1.3-2.3c-1.1,0.7-2.2,1.3-3.3,1.9c-1.4,0.8-3,1.2-4.6,1.3
	c-2.2,0.1-4.2-0.8-5.7-2.4c-1.3-1.5-2-3.4-2-5.3c0-1.3,0.4-2.6,1.1-3.8c0.9-1.3,2.3-2.3,3.9-2.7l6.5-2.1c1.5-0.4,2.9-1.1,4.2-2v-2.3
	c0-2.1-0.5-3.6-1.4-4.3s-1.9-1.1-3-1.1s-2.2,0.4-3,1.1c-1.2,1.1-2,2.6-2.4,4.2c-0.1,0.4-0.2,0.8-0.5,1.1c-0.3,0.3-0.8,0.5-1.2,0.5
	c-0.7,0-1.3-0.3-1.8-0.7c-0.7-0.4-1.2-1.1-1.2-1.9c0-1.6,1.1-3,3.2-4.3c2.3-1.3,4.9-2,7.5-1.9c1.6-0.1,3.2,0.2,4.8,0.7
	c1,0.3,1.9,0.9,2.5,1.7c0.5,0.7,0.9,1.5,1.2,2.4c0.1,0.8,0.2,1.7,0.2,2.5L54.1,40.6z M49.3,32c-0.8,0.5-1.7,1-2.6,1.3
	c-1.2,0.4-2.3,0.9-3.4,1.4c-2.8,1-4.2,2.6-4.1,5c-0.1,1.4,0.4,2.8,1.2,4c0.9,1.1,2.2,1.7,3.7,1.6c0.6,0,1.2-0.1,1.8-0.3
	s1.2-0.5,1.7-0.9c0.5-0.5,1-1.1,1.4-1.7c0.3-0.9,0.5-1.8,0.5-2.7L49.3,32z M26.2,42.8c-0.1,0.9,0.1,1.8,0.6,2.5
	c0.4,0.2,0.8,0.4,1.2,0.4l2.1,0.3v1.5H17.3V46c1.2,0,2.3-0.2,3.4-0.7c0.5-0.7,0.7-1.6,0.6-2.5V29.9c0-4.6-1.9-6.9-5.6-6.8
	c-1.3,0-2.6,0.4-3.8,1.1c-1.1,0.7-2,1.7-2.6,2.8c-0.4,0.9-0.5,2-0.5,3v12.8c-0.1,0.9,0.1,1.8,0.6,2.5c0.4,0.2,0.8,0.4,1.2,0.4
	l2.1,0.3v1.5H0V46c1.2,0,2.3-0.2,3.4-0.7c0.5-0.7,0.7-1.6,0.5-2.5V12.5c0.1-0.6,0-1.3-0.3-1.9C3.2,10.2,2.7,10,2.2,10l-2-0.3V8.4
	L8.4,7l0.4,0.3v16.9c1.5-1.1,3-2.1,4.6-2.9c1.5-0.8,3.2-1.2,4.9-1.2c5.1,0.1,7.7,3,7.8,8.7v14H26.2z"/>
<path class="st1" d="M310.9,14.6c-0.6,0-1.2-0.2-1.7-0.6c-0.7-0.5-1.6-0.8-2.5-0.9c-2,0-6.4,5.4-10.3,11.7c0.9,3.9,2.4,9.5,3.3,12.6
	c1.1,3.8,2,5.8,3.4,5.8c2.1,0,4.2-2.8,6.4-7.5l2.2,1.3c-2.5,5.8-6.2,10.9-11.9,10.9c-3.5,0-5.1-2.1-6.5-7.6c-0.7-2.7-1.3-5.3-2-7.9
	h-0.2c-5,8.1-8.5,15.5-14.7,15.5c-3.2,0-5.1-1.8-5.1-4.1c0-1.8,1.9-4.4,3.6-4.4c0.5,0,1.1,0.2,1.5,0.5c0.9,0.9,2.1,1.5,3.3,1.7
	c3,0,7.9-8.1,10.6-13.1l-3.6-13.4c-0.8-2.7-1.4-2.9-3.1-2.7l-5.9,0.3l-0.2-1.9l13.8-4l0.5,0.3l3.6,14.1h0.2
	C302.1,11,306,6.7,310.7,6.7c2.2,0,3.7,1.2,3.7,3.1C314.6,12.2,312,14.5,310.9,14.6 M312.8,0h-39.4c-4,0-7.3,3.3-7.3,7.3l0,0v39.4
	c0,4,3.2,7.3,7.2,7.3c0,0,0,0,0.1,0h39.4c4,0,7.3-3.3,7.3-7.3l0,0V7.3C320.1,3.3,316.9,0,312.8,0L312.8,0"/>
</svg>
